STARTFONT 2.1
FONT -JDECW-Gothic-Medium-R-Normal--12-120-75-75-M-120-JISX0208.1983-1
SIZE 12 75 75
FONTBOUNDINGBOX 14 14 0 -2

STARTPROPERTIES 26
FONTNAME_REGISTRY ""
FAMILY_NAME "Gothic"
FOUNDRY "JDECW"
WEIGHT_NAME "Medium"
SLANT "R"
SETWIDTH_NAME "Normal"
ADD_STYLE_NAME ""
PIXEL_SIZE 12
POINT_SIZE 120
RESOLUTION_X 75
RESOLUTION_Y 75
SPACING "M"
AVERAGE_WIDTH 120
CHARSET_REGISTRY "JISX0208.1983"
CHARSET_ENCODING "1"
DEVICE_FONT_NAME "Gothic-JISX0208.1983-1"
CHARSET_COLLECTIONS "JISX0208.1983 1"
FULL_NAME "Gothic-JISX0208.1983-1"
COPYRIGHT "Copyright (c) 1990 1991 TYPEBANK, Digital Equipment Corporation Japan"
CAP_HEIGHT 10
X_HEIGHT 7
WEIGHT 10
QUAD_WIDTH 14
DEFAULT_CHAR 41634
FONT_DESCENT 2
FONT_ASCENT 12
ENDPROPERTIES

CHARS 6968

STARTCHAR Ca1a1
ENCODING 41377
SWIDTH 1000 0
DWIDTH 14 0
BBX 14 14 0 -2
BITMAP
0000
0000
0000
0000
0000
0000
0000
0000
0000
0000
0000
0000
0000
0000
ENDCHAR

STARTCHAR Ca1a2
ENCODING 41378
SWIDTH 1000 0
DWIDTH 14 0
BBX 14 14 0 -2
BITMAP
0000
0000
0000
0000
0000
0000
0000
0000
0000
0000
4000
2000
1000
0000
ENDCHAR

STARTCHAR Ca1a3
ENCODING 41379
SWIDTH 1000 0
DWIDTH 14 0
BBX 14 14 0 -2
BITMAP
0000
0000
0000
0000
0000
0000
0000
0000
0000
3000
4800
4800
3000
0000
ENDCHAR

STARTCHAR Ca1a4
ENCODING 41380
SWIDTH 1000 0
DWIDTH 14 0
BBX 14 14 0 -2
BITMAP
0000
0000
0000
0000
0000
0000
0000
0000
0000
6000
6000
2000
4000
0000
ENDCHAR

STARTCHAR Ca1a5
ENCODING 41381
SWIDTH 1000 0
DWIDTH 14 0
BBX 14 14 0 -2
BITMAP
0000
0000
0000
0000
0000
0000
0000
0000
0000
0000
6000
6000
0000
0000
ENDCHAR

STARTCHAR Ca1a6
ENCODING 41382
SWIDTH 1000 0
DWIDTH 14 0
BBX 14 14 0 -2
BITMAP
0000
0000
0000
0000
0000
0000
0300
0300
0000
0000
0000
0000
0000
0000
ENDCHAR

STARTCHAR Ca1a7
ENCODING 41383
SWIDTH 1000 0
DWIDTH 14 0
BBX 14 14 0 -2
BITMAP
0000
0000
0000
0000
0300
0300
0000
0000
0000
0300
0300
0000
0000
0000
ENDCHAR

STARTCHAR Ca1a8
ENCODING 41384
SWIDTH 1000 0
DWIDTH 14 0
BBX 14 14 0 -2
BITMAP
0000
0000
0000
0000
0300
0300
0000
0000
0000
0300
0300
0100
0200
0000
ENDCHAR

STARTCHAR Ca1a9
ENCODING 41385
SWIDTH 1000 0
DWIDTH 14 0
BBX 14 14 0 -2
BITMAP
0000
0000
0780
0840
0C40
0040
0180
0200
0200
0200
0000
0200
0200
0000
ENDCHAR

STARTCHAR Ca1aa
ENCODING 41386
SWIDTH 1000 0
DWIDTH 14 0
BBX 14 14 0 -2
BITMAP
0000
0000
0700
0700
0700
0700
0700
0200
0200
0200
0000
0200
0200
0000
ENDCHAR

STARTCHAR Ca1ab
ENCODING 41387
SWIDTH 1000 0
DWIDTH 14 0
BBX 14 14 0 -2
BITMAP
0000
1000
4800
2000
0000
0000
0000
0000
0000
0000
0000
0000
0000
0000
ENDCHAR

STARTCHAR Ca1ac
ENCODING 41388
SWIDTH 1000 0
DWIDTH 14 0
BBX 14 14 0 -2
BITMAP
0000
2000
5000
2000
0000
0000
0000
0000
0000
0000
0000
0000
0000
0000
ENDCHAR

STARTCHAR Ca1ad
ENCODING 41389
SWIDTH 1000 0
DWIDTH 14 0
BBX 14 14 0 -2
BITMAP
0000
0300
0400
0000
0000
0000
0000
0000
0000
0000
0000
0000
0000
0000
ENDCHAR

STARTCHAR Ca1ae
ENCODING 41390
SWIDTH 1000 0
DWIDTH 14 0
BBX 14 14 0 -2
BITMAP
0000
0300
0080
0000
0000
0000
0000
0000
0000
0000
0000
0000
0000
0000
ENDCHAR

STARTCHAR Ca1af
ENCODING 41391
SWIDTH 1000 0
DWIDTH 14 0
BBX 14 14 0 -2
BITMAP
0000
0480
0000
0000
0000
0000
0000
0000
0000
0000
0000
0000
0000
0000
ENDCHAR

STARTCHAR Ca1b0
ENCODING 41392
SWIDTH 1000 0
DWIDTH 14 0
BBX 14 14 0 -2
BITMAP
0000
0700
0880
0000
0000
0000
0000
0000
0000
0000
0000
0000
0000
0000
ENDCHAR

STARTCHAR Ca1b1
ENCODING 41393
SWIDTH 1000 0
DWIDTH 14 0
BBX 14 14 0 -2
BITMAP
0000
7FF8
0000
0000
0000
0000
0000
0000
0000
0000
0000
0000
0000
0000
ENDCHAR

STARTCHAR Ca1b2
ENCODING 41394
SWIDTH 1000 0
DWIDTH 14 0
BBX 14 14 0 -2
BITMAP
0000
0000
0000
0000
0000
0000
0000
0000
0000
0000
0000
0000
7FF8
0000
ENDCHAR

STARTCHAR Ca1b3
ENCODING 41395
SWIDTH 1000 0
DWIDTH 14 0
BBX 14 14 0 -2
BITMAP
0000
0000
0000
0000
0800
0400
0200
0100
0080
0080
0000
0000
0000
0000
ENDCHAR

STARTCHAR Ca1b4
ENCODING 41396
SWIDTH 1000 0
DWIDTH 14 0
BBX 14 14 0 -2
BITMAP
0000
0000
0040
0120
0880
0400
0200
0100
0080
0080
0000
0000
0000
0000
ENDCHAR

STARTCHAR Ca1b5
ENCODING 41397
SWIDTH 1000 0
DWIDTH 14 0
BBX 14 14 0 -2
BITMAP
0000
0000
0000
0000
0C00
0300
0080
0040
0020
00C0
0300
0000
0000
0000
ENDCHAR

STARTCHAR Ca1b6
ENCODING 41398
SWIDTH 1000 0
DWIDTH 14 0
BBX 14 14 0 -2
BITMAP
0000
0000
0000
0010
0C48
0320
0080
0040
0020
00C0
0300
0000
0000
0000
ENDCHAR

STARTCHAR Ca1b7
ENCODING 41399
SWIDTH 1000 0
DWIDTH 14 0
BBX 14 14 0 -2
BITMAP
0000
0000
0000
0000
06C0
0480
0900
0900
1200
1200
0000
0000
0000
0000
ENDCHAR

STARTCHAR Ca1b8
ENCODING 41400
SWIDTH 1000 0
DWIDTH 14 0
BBX 14 14 0 -2
BITMAP
0000
0300
0480
0840
1020
2010
4FC8
0200
0200
0200
0200
3FF0
0000
0000
ENDCHAR

STARTCHAR Ca1b9
ENCODING 41401
SWIDTH 1000 0
DWIDTH 14 0
BBX 14 14 0 -2
BITMAP
0000
0000
0400
0400
07E0
0820
0840
1040
2480
0300
0100
0080
0000
0000
ENDCHAR

STARTCHAR Ca1ba
ENCODING 41402
SWIDTH 1000 0
DWIDTH 14 0
BBX 14 14 0 -2
BITMAP
0000
0000
0000
0020
0040
0C40
1280
1100
1280
1240
1400
0800
0000
0000
ENDCHAR

STARTCHAR Ca1bb
ENCODING 41403
SWIDTH 1000 0
DWIDTH 14 0
BBX 14 14 0 -2
BITMAP
0000
0780
1860
2010
2010
4008
4008
4008
4008
2010
2010
1860
0780
0000
ENDCHAR

STARTCHAR Ca1bc
ENCODING 41404
SWIDTH 1000 0
DWIDTH 14 0
BBX 14 14 0 -2
BITMAP
0000
0000
0000
0000
0000
0000
0000
3FF0
0000
0000
0000
0000
0000
0000
ENDCHAR

STARTCHAR Ca1bd
ENCODING 41405
SWIDTH 1000 0
DWIDTH 14 0
BBX 14 14 0 -2
BITMAP
0000
0000
0000
0000
0000
0000
0000
7FF8
0000
0000
0000
0000
0000
0000
ENDCHAR

STARTCHAR Ca1be
ENCODING 41406
SWIDTH 1000 0
DWIDTH 14 0
BBX 14 14 0 -2
BITMAP
0000
0000
0000
0000
0000
0000
0000
0FC0
0000
0000
0000
0000
0000
0000
ENDCHAR

STARTCHAR Ca1bf
ENCODING 41407
SWIDTH 1000 0
DWIDTH 14 0
BBX 14 14 0 -2
BITMAP
0000
0008
0010
0020
0040
0080
0100
0200
0400
0800
1000
2000
4000
0000
ENDCHAR

STARTCHAR Ca1c0
ENCODING 41408
SWIDTH 1000 0
DWIDTH 14 0
BBX 14 14 0 -2
BITMAP
0000
4000
2000
1000
0800
0400
0200
0100
0080
0040
0020
0010
0008
0000
ENDCHAR

STARTCHAR Ca1c1
ENCODING 41409
SWIDTH 1000 0
DWIDTH 14 0
BBX 14 14 0 -2
BITMAP
0000
0000
0000
0000
0000
0000
0C10
1320
20C0
0000
0000
0000
0000
0000
ENDCHAR

STARTCHAR Ca1c2
ENCODING 41410
SWIDTH 1000 0
DWIDTH 14 0
BBX 14 14 0 -2
BITMAP
0000
0480
0480
0480
0480
0480
0480
0480
0480
0480
0480
0480
0480
0000
ENDCHAR

STARTCHAR Ca1c3
ENCODING 41411
SWIDTH 1000 0
DWIDTH 14 0
BBX 14 14 0 -2
BITMAP
0000
0200
0200
0200
0200
0200
0200
0200
0200
0200
0200
0200
0200
0000
ENDCHAR

STARTCHAR Ca1c4
ENCODING 41412
SWIDTH 1000 0
DWIDTH 14 0
BBX 14 14 0 -2
BITMAP
0000
0000
0000
0000
0000
0000
3330
3330
0000
0000
0000
0000
0000
0000
ENDCHAR

STARTCHAR Ca1c5
ENCODING 41413
SWIDTH 1000 0
DWIDTH 14 0
BBX 14 14 0 -2
BITMAP
0000
0000
0000
0000
0000
0000
1860
1860
0000
0000
0000
0000
0000
0000
ENDCHAR

STARTCHAR Ca1c6
ENCODING 41414
SWIDTH 1000 0
DWIDTH 14 0
BBX 14 14 0 -2
BITMAP
0000
0008
0010
0018
0018
0000
0000
0000
0000
0000
0000
0000
0000
0000
ENDCHAR

STARTCHAR Ca1c7
ENCODING 41415
SWIDTH 1000 0
DWIDTH 14 0
BBX 14 14 0 -2
BITMAP
0000
6000
6000
2000
4000
0000
0000
0000
0000
0000
0000
0000
0000
0000
ENDCHAR

STARTCHAR Ca1c8
ENCODING 41416
SWIDTH 1000 0
DWIDTH 14 0
BBX 14 14 0 -2
BITMAP
0000
0048
0090
00D8
00D8
0000
0000
0000
0000
0000
0000
0000
0000
0000
ENDCHAR

STARTCHAR Ca1c9
ENCODING 41417
SWIDTH 1000 0
DWIDTH 14 0
BBX 14 14 0 -2
BITMAP
0000
6C00
6C00
2400
4800
0000
0000
0000
0000
0000
0000
0000
0000
0000
ENDCHAR

STARTCHAR Ca1ca
ENCODING 41418
SWIDTH 1000 0
DWIDTH 14 0
BBX 14 14 0 -2
BITMAP
0000
0010
0020
0020
0040
0040
0040
0040
0040
0040
0020
0020
0010
0000
ENDCHAR

STARTCHAR Ca1cb
ENCODING 41419
SWIDTH 1000 0
DWIDTH 14 0
BBX 14 14 0 -2
BITMAP
0000
2000
1000
1000
0800
0800
0800
0800
0800
0800
1000
1000
2000
0000
ENDCHAR

STARTCHAR Ca1cc
ENCODING 41420
SWIDTH 1000 0
DWIDTH 14 0
BBX 14 14 0 -2
BITMAP
0000
0010
0020
0040
0040
0040
0040
0040
0040
0040
0040
0020
0010
0000
ENDCHAR

STARTCHAR Ca1cd
ENCODING 41421
SWIDTH 1000 0
DWIDTH 14 0
BBX 14 14 0 -2
BITMAP
0000
2000
1000
0800
0800
0800
0800
0800
0800
0800
0800
1000
2000
0000
ENDCHAR

STARTCHAR Ca1ce
ENCODING 41422
SWIDTH 1000 0
DWIDTH 14 0
BBX 14 14 0 -2
BITMAP
0000
0070
0040
0040
0040
0040
0040
0040
0040
0040
0040
0040
0070
0000
ENDCHAR

STARTCHAR Ca1cf
ENCODING 41423
SWIDTH 1000 0
DWIDTH 14 0
BBX 14 14 0 -2
BITMAP
0000
3800
0800
0800
0800
0800
0800
0800
0800
0800
0800
0800
3800
0000
ENDCHAR

STARTCHAR Ca1d0
ENCODING 41424
SWIDTH 1000 0
DWIDTH 14 0
BBX 14 14 0 -2
BITMAP
0000
0030
0040
0040
0040
0040
0080
0040
0040
0040
0040
0040
0030
0000
ENDCHAR

STARTCHAR Ca1d1
ENCODING 41425
SWIDTH 1000 0
DWIDTH 14 0
BBX 14 14 0 -2
BITMAP
0000
3000
0800
0800
0800
0800
0400
0800
0800
0800
0800
0800
3000
0000
ENDCHAR

STARTCHAR Ca1d2
ENCODING 41426
SWIDTH 1000 0
DWIDTH 14 0
BBX 14 14 0 -2
BITMAP
0000
0010
0020
0040
0080
0100
0200
0200
0100
0080
0040
0020
0010
0000
ENDCHAR

STARTCHAR Ca1d3
ENCODING 41427
SWIDTH 1000 0
DWIDTH 14 0
BBX 14 14 0 -2
BITMAP
0000
2000
1000
0800
0400
0200
0100
0100
0200
0400
0800
1000
2000
0000
ENDCHAR

STARTCHAR Ca1d4
ENCODING 41428
SWIDTH 1000 0
DWIDTH 14 0
BBX 14 14 0 -2
BITMAP
0000
0090
0120
0240
0480
0900
1200
1200
0900
0480
0240
0120
0090
0000
ENDCHAR

STARTCHAR Ca1d5
ENCODING 41429
SWIDTH 1000 0
DWIDTH 14 0
BBX 14 14 0 -2
BITMAP
0000
2400
1200
0900
0480
0240
0120
0120
0240
0480
0900
1200
2400
0000
ENDCHAR

STARTCHAR Ca1d6
ENCODING 41430
SWIDTH 1000 0
DWIDTH 14 0
BBX 14 14 0 -2
BITMAP
0000
00F0
0080
0080
0080
0080
0080
0080
0080
0080
0080
0000
0000
0000
ENDCHAR

STARTCHAR Ca1d7
ENCODING 41431
SWIDTH 1000 0
DWIDTH 14 0
BBX 14 14 0 -2
BITMAP
0000
0000
0000
0400
0400
0400
0400
0400
0400
0400
0400
0400
3C00
0000
ENDCHAR

STARTCHAR Ca1d8
ENCODING 41432
SWIDTH 1000 0
DWIDTH 14 0
BBX 14 14 0 -2
BITMAP
0000
03F0
0210
02F0
0280
0280
0280
0280
0280
0280
0380
0000
0000
0000
ENDCHAR

STARTCHAR Ca1d9
ENCODING 41433
SWIDTH 1000 0
DWIDTH 14 0
BBX 14 14 0 -2
BITMAP
0000
0000
0000
0700
0500
0500
0500
0500
0500
0500
3D00
2100
3F00
0000
ENDCHAR

STARTCHAR Ca1da
ENCODING 41434
SWIDTH 1000 0
DWIDTH 14 0
BBX 14 14 0 -2
BITMAP
0000
00F0
00E0
00E0
00C0
00C0
00C0
00C0
00C0
00C0
00E0
00E0
00F0
0000
ENDCHAR

STARTCHAR Ca1db
ENCODING 41435
SWIDTH 1000 0
DWIDTH 14 0
BBX 14 14 0 -2
BITMAP
0000
3C00
1C00
1C00
0C00
0C00
0C00
0C00
0C00
0C00
1C00
1C00
3C00
0000
ENDCHAR

STARTCHAR Ca1dc
ENCODING 41436
SWIDTH 1000 0
DWIDTH 14 0
BBX 14 14 0 -2
BITMAP
0000
0000
0000
0200
0200
0200
0200
3FE0
0200
0200
0200
0200
0000
0000
ENDCHAR

STARTCHAR Ca1dd
ENCODING 41437
SWIDTH 1000 0
DWIDTH 14 0
BBX 14 14 0 -2
BITMAP
0000
0000
0000
0000
0000
0000
0000
1FE0
0000
0000
0000
0000
0000
0000
ENDCHAR

STARTCHAR Ca1de
ENCODING 41438
SWIDTH 1000 0
DWIDTH 14 0
BBX 14 14 0 -2
BITMAP
0000
0000
0200
0200
0200
3FE0
0200
0200
0200
0000
0000
3FE0
0000
0000
ENDCHAR

STARTCHAR Ca1df
ENCODING 41439
SWIDTH 1000 0
DWIDTH 14 0
BBX 14 14 0 -2
BITMAP
0000
0000
0000
1040
0880
0500
0200
0200
0500
0880
1040
0000
0000
0000
ENDCHAR

STARTCHAR Ca1e0
ENCODING 41440
SWIDTH 1000 0
DWIDTH 14 0
BBX 14 14 0 -2
BITMAP
0000
0000
0000
0000
0300
0000
0000
1FE0
0000
0000
0300
0000
0000
0000
ENDCHAR

STARTCHAR Ca1e1
ENCODING 41441
SWIDTH 1000 0
DWIDTH 14 0
BBX 14 14 0 -2
BITMAP
0000
0000
0000
0000
0000
1FE0
0000
0000
1FE0
0000
0000
0000
0000
0000
ENDCHAR

STARTCHAR Ca1e2
ENCODING 41442
SWIDTH 1000 0
DWIDTH 14 0
BBX 14 14 0 -2
BITMAP
0000
0000
0000
0040
0080
1FE0
0100
0200
1FE0
0400
0800
0000
0000
0000
ENDCHAR

STARTCHAR Ca1e3
ENCODING 41443
SWIDTH 1000 0
DWIDTH 14 0
BBX 14 14 0 -2
BITMAP
0000
0010
0060
0180
0600
1800
2000
1800
0600
0180
0060
0010
0000
0000
ENDCHAR

STARTCHAR Ca1e4
ENCODING 41444
SWIDTH 1000 0
DWIDTH 14 0
BBX 14 14 0 -2
BITMAP
0000
2000
1800
0600
0180
0060
0010
0060
0180
0600
1800
2000
0000
0000
ENDCHAR

STARTCHAR Ca1e5
ENCODING 41445
SWIDTH 1000 0
DWIDTH 14 0
BBX 14 14 0 -2
BITMAP
0000
0070
0380
0C00
3000
0C00
0380
0070
0000
3FF0
0000
3FF0
0000
0000
ENDCHAR

STARTCHAR Ca1e6
ENCODING 41446
SWIDTH 1000 0
DWIDTH 14 0
BBX 14 14 0 -2
BITMAP
0000
3800
0700
00C0
0030
00C0
0700
3800
0000
3FF0
0000
3FF0
0000
0000
ENDCHAR

STARTCHAR Ca1e7
ENCODING 41447
SWIDTH 1000 0
DWIDTH 14 0
BBX 14 14 0 -2
BITMAP
0000
0000
0000
0000
0000
38E0
4510
4210
4510
38E0
0000
0000
0000
0000
ENDCHAR

STARTCHAR Ca1e8
ENCODING 41448
SWIDTH 1000 0
DWIDTH 14 0
BBX 14 14 0 -2
BITMAP
0000
0000
0000
0000
0300
0300
0000
0000
0000
1860
1860
0000
0000
0000
ENDCHAR

STARTCHAR Ca1e9
ENCODING 41449
SWIDTH 1000 0
DWIDTH 14 0
BBX 14 14 0 -2
BITMAP
0000
0000
01F0
0030
0050
0090
0110
1E00
2200
2200
2200
1C00
0000
0000
ENDCHAR

STARTCHAR Ca1ea
ENCODING 41450
SWIDTH 1000 0
DWIDTH 14 0
BBX 14 14 0 -2
BITMAP
0000
0700
0880
0880
0880
0700
0200
0200
3FE0
0200
0200
0200
0200
0000
ENDCHAR

STARTCHAR Ca1eb
ENCODING 41451
SWIDTH 1000 0
DWIDTH 14 0
BBX 14 14 0 -2
BITMAP
0000
3000
4800
4800
3000
0000
0000
0000
0000
0000
0000
0000
0000
0000
ENDCHAR

STARTCHAR Ca1ec
ENCODING 41452
SWIDTH 1000 0
DWIDTH 14 0
BBX 14 14 0 -2
BITMAP
0000
3000
2000
2000
4000
4000
0000
0000
0000
0000
0000
0000
0000
0000
ENDCHAR

STARTCHAR Ca1ed
ENCODING 41453
SWIDTH 1000 0
DWIDTH 14 0
BBX 14 14 0 -2
BITMAP
0000
3600
2400
2400
4800
4800
0000
0000
0000
0000
0000
0000
0000
0000
ENDCHAR

STARTCHAR Ca1ee
ENCODING 41454
SWIDTH 1000 0
DWIDTH 14 0
BBX 14 14 0 -2
BITMAP
0000
3000
4BC0
4C20
3810
1000
1000
1000
1010
0810
0420
03C0
0000
0000
ENDCHAR

STARTCHAR Ca1ef
ENCODING 41455
SWIDTH 1000 0
DWIDTH 14 0
BBX 14 14 0 -2
BITMAP
0000
0000
2020
1040
0880
0500
3FE0
0200
3FE0
0200
0200
0200
0000
0000
ENDCHAR

STARTCHAR Ca1f0
ENCODING 41456
SWIDTH 1000 0
DWIDTH 14 0
BBX 14 14 0 -2
BITMAP
0000
0200
0F80
1240
1240
1200
0E00
0380
0240
1240
1240
0F80
0200
0000
ENDCHAR

STARTCHAR Ca1f1
ENCODING 41457
SWIDTH 1000 0
DWIDTH 14 0
BBX 14 14 0 -2
BITMAP
0000
0000
0080
0080
0780
0940
0900
0A00
0A40
0780
0400
0400
0000
0000
ENDCHAR

STARTCHAR Ca1f2
ENCODING 41458
SWIDTH 1000 0
DWIDTH 14 0
BBX 14 14 0 -2
BITMAP
0000
0000
0380
0440
0440
0400
1FC0
0200
0200
0E20
1320
0CC0
0000
0000
ENDCHAR

STARTCHAR Ca1f3
ENCODING 41459
SWIDTH 1000 0
DWIDTH 14 0
BBX 14 14 0 -2
BITMAP
0000
0040
1840
2480
2480
2500
1900
0260
0290
0490
0490
0860
0800
0000
ENDCHAR

STARTCHAR Ca1f4
ENCODING 41460
SWIDTH 1000 0
DWIDTH 14 0
BBX 14 14 0 -2
BITMAP
0000
0000
0240
0240
0FE0
0480
0480
0480
0480
1FC0
0900
0900
0000
0000
ENDCHAR

STARTCHAR Ca1f5
ENCODING 41461
SWIDTH 1000 0
DWIDTH 14 0
BBX 14 14 0 -2
BITMAP
0000
0000
0C00
1200
1200
1400
0880
1480
2280
2100
2180
1E40
0000
0000
ENDCHAR

STARTCHAR Ca1f6
ENCODING 41462
SWIDTH 1000 0
DWIDTH 14 0
BBX 14 14 0 -2
BITMAP
0000
0000
0200
0700
2220
3260
0A80
0700
0A80
3260
2220
0700
0200
0000
ENDCHAR

STARTCHAR Ca1f7
ENCODING 41463
SWIDTH 1000 0
DWIDTH 14 0
BBX 14 14 0 -2
BITMAP
0000
0000
0780
0840
1320
2490
2490
2490
24E0
1300
0860
0780
0000
0000
ENDCHAR

STARTCHAR Ca1f8
ENCODING 41464
SWIDTH 1000 0
DWIDTH 14 0
BBX 14 14 0 -2
BITMAP
0000
0780
0840
0840
0600
0580
0840
0840
0680
0180
0840
0840
0780
0000
ENDCHAR

STARTCHAR Ca1f9
ENCODING 41465
SWIDTH 1000 0
DWIDTH 14 0
BBX 14 14 0 -2
BITMAP
0000
0000
0200
0200
0500
7DF0
1040
0880
0A80
1540
18C0
2020
0000
0000
ENDCHAR

STARTCHAR Ca1fa
ENCODING 41466
SWIDTH 1000 0
DWIDTH 14 0
BBX 14 14 0 -2
BITMAP
0000
0000
0200
0200
0700
7FF0
1FC0
0F80
0F80
1DC0
18C0
2020
0000
0000
ENDCHAR

STARTCHAR Ca1fb
ENCODING 41467
SWIDTH 1000 0
DWIDTH 14 0
BBX 14 14 0 -2
BITMAP
0000
0000
0700
18C0
2020
2020
4010
4010
4010
2020
2020
18C0
0700
0000
ENDCHAR

STARTCHAR Ca1fc
ENCODING 41468
SWIDTH 1000 0
DWIDTH 14 0
BBX 14 14 0 -2
BITMAP
0000
0000
0700
1FC0
3FE0
3FE0
7FF0
7FF0
7FF0
3FE0
3FE0
1FC0
0700
0000
ENDCHAR

STARTCHAR Ca1fd
ENCODING 41469
SWIDTH 1000 0
DWIDTH 14 0
BBX 14 14 0 -2
BITMAP
0000
0000
0700
18C0
2020
2720
4890
4890
4890
2720
2020
18C0
0700
0000
ENDCHAR

STARTCHAR Ca1fe
ENCODING 41470
SWIDTH 1000 0
DWIDTH 14 0
BBX 14 14 0 -2
BITMAP
0000
0000
0200
0500
0880
1040
2020
4010
2020
1040
0880
0500
0200
0000
ENDCHAR

STARTCHAR Ca2a1
ENCODING 41633
SWIDTH 1000 0
DWIDTH 14 0
BBX 14 14 0 -2
BITMAP
0000
0000
0200
0700
0F80
1FC0
3FE0
7FF0
3FE0
1FC0
0F80
0700
0200
0000
ENDCHAR

STARTCHAR Ca2a2
ENCODING 41634
SWIDTH 1000 0
DWIDTH 14 0
BBX 14 14 0 -2
BITMAP
0000
0000
0000
3FE0
2020
2020
2020
2020
2020
2020
2020
3FE0
0000
0000
ENDCHAR

STARTCHAR Ca2a3
ENCODING 41635
SWIDTH 1000 0
DWIDTH 14 0
BBX 14 14 0 -2
BITMAP
0000
0000
0000
3FE0
3FE0
3FE0
3FE0
3FE0
3FE0
3FE0
3FE0
3FE0
0000
0000
ENDCHAR

STARTCHAR Ca2a4
ENCODING 41636
SWIDTH 1000 0
DWIDTH 14 0
BBX 14 14 0 -2
BITMAP
0000
0000
0200
0500
0500
0880
0880
1040
1040
2020
2020
7FF0
0000
0000
ENDCHAR

STARTCHAR Ca2a5
ENCODING 41637
SWIDTH 1000 0
DWIDTH 14 0
BBX 14 14 0 -2
BITMAP
0000
0000
0200
0700
0700
0F80
0F80
1FC0
1FC0
3FE0
3FE0
7FF0
0000
0000
ENDCHAR

STARTCHAR Ca2a6
ENCODING 41638
SWIDTH 1000 0
DWIDTH 14 0
BBX 14 14 0 -2
BITMAP
0000
0000
0000
7FF0
2020
2020
1040
1040
0880
0880
0500
0500
0200
0000
ENDCHAR

STARTCHAR Ca2a7
ENCODING 41639
SWIDTH 1000 0
DWIDTH 14 0
BBX 14 14 0 -2
BITMAP
0000
0000
0000
7FF0
3FE0
3FE0
1FC0
1FC0
0F80
0F80
0700
0700
0200
0000
ENDCHAR

STARTCHAR Ca2a8
ENCODING 41640
SWIDTH 1000 0
DWIDTH 14 0
BBX 14 14 0 -2
BITMAP
0000
0000
0200
2720
1240
0880
2520
7270
2520
0880
1240
2720
0200
0000
ENDCHAR

STARTCHAR Ca2a9
ENCODING 41641
SWIDTH 1000 0
DWIDTH 14 0
BBX 14 14 0 -2
BITMAP
0000
0000
1FE0
1FE0
0000
0000
1FE0
1FE0
0300
0300
0300
0300
0300
0000
ENDCHAR

STARTCHAR Ca2aa
ENCODING 41642
SWIDTH 1000 0
DWIDTH 14 0
BBX 14 14 0 -2
BITMAP
0000
0000
0000
0000
0000
0040
0020
3FF0
0020
0040
0000
0000
0000
0000
ENDCHAR

STARTCHAR Ca2ab
ENCODING 41643
SWIDTH 1000 0
DWIDTH 14 0
BBX 14 14 0 -2
BITMAP
0000
0000
0000
0000
0000
0800
1000
3FF0
1000
0800
0000
0000
0000
0000
ENDCHAR

STARTCHAR Ca2ac
ENCODING 41644
SWIDTH 1000 0
DWIDTH 14 0
BBX 14 14 0 -2
BITMAP
0000
0000
0200
0700
0A80
0200
0200
0200
0200
0200
0200
0200
0000
0000
ENDCHAR

STARTCHAR Ca2ad
ENCODING 41645
SWIDTH 1000 0
DWIDTH 14 0
BBX 14 14 0 -2
BITMAP
0000
0000
0200
0200
0200
0200
0200
0200
0200
0A80
0700
0200
0000
0000
ENDCHAR

STARTCHAR Ca2ae
ENCODING 41646
SWIDTH 1000 0
DWIDTH 14 0
BBX 14 14 0 -2
BITMAP
0000
0000
0000
0000
0000
3FF0
0000
0000
3FF0
0000
0000
0000
0000
0000
ENDCHAR

STARTCHAR Ca2af
ENCODING 41647
SWIDTH 1000 0
DWIDTH 14 0
BBX 14 14 0 -2
BITMAP
0000
0000
0000
0000
0000
0000
0000
0000
0000
0000
0000
0000
0000
0000
ENDCHAR

STARTCHAR Ca2b0
ENCODING 41648
SWIDTH 1000 0
DWIDTH 14 0
BBX 14 14 0 -2
BITMAP
0000
0000
0000
0000
0000
0000
0000
0000
0000
0000
0000
0000
0000
0000
ENDCHAR

STARTCHAR Ca2b1
ENCODING 41649
SWIDTH 1000 0
DWIDTH 14 0
BBX 14 14 0 -2
BITMAP
0000
0000
0000
0000
0000
0000
0000
0000
0000
0000
0000
0000
0000
0000
ENDCHAR

STARTCHAR Ca2b2
ENCODING 41650
SWIDTH 1000 0
DWIDTH 14 0
BBX 14 14 0 -2
BITMAP
0000
0000
0000
0000
0000
0000
0000
0000
0000
0000
0000
0000
0000
0000
ENDCHAR

STARTCHAR Ca2b3
ENCODING 41651
SWIDTH 1000 0
DWIDTH 14 0
BBX 14 14 0 -2
BITMAP
0000
0000
0000
0000
0000
0000
0000
0000
0000
0000
0000
0000
0000
0000
ENDCHAR

STARTCHAR Ca2b4
ENCODING 41652
SWIDTH 1000 0
DWIDTH 14 0
BBX 14 14 0 -2
BITMAP
0000
0000
0000
0000
0000
0000
0000
0000
0000
0000
0000
0000
0000
0000
ENDCHAR

STARTCHAR Ca2b5
ENCODING 41653
SWIDTH 1000 0
DWIDTH 14 0
BBX 14 14 0 -2
BITMAP
0000
0000
0000
0000
0000
0000
0000
0000
0000
0000
0000
0000
0000
0000
ENDCHAR

STARTCHAR Ca2b6
ENCODING 41654
SWIDTH 1000 0
DWIDTH 14 0
BBX 14 14 0 -2
BITMAP
0000
0000
0000
0000
0000
0000
0000
0000
0000
0000
0000
0000
0000
0000
ENDCHAR

STARTCHAR Ca2b7
ENCODING 41655
SWIDTH 1000 0
DWIDTH 14 0
BBX 14 14 0 -2
BITMAP
0000
0000
0000
0000
0000
0000
0000
0000
0000
0000
0000
0000
0000
0000
ENDCHAR

STARTCHAR Ca2b8
ENCODING 41656
SWIDTH 1000 0
DWIDTH 14 0
BBX 14 14 0 -2
BITMAP
0000
0000
0000
0000
0000
0000
0000
0000
0000
0000
0000
0000
0000
0000
ENDCHAR

STARTCHAR Ca2b9
ENCODING 41657
SWIDTH 1000 0
DWIDTH 14 0
BBX 14 14 0 -2
BITMAP
0000
0000
0000
0000
0000
0000
0000
0000
0000
0000
0000
0000
0000
0000
ENDCHAR

STARTCHAR Ca2ba
ENCODING 41658
SWIDTH 1000 0
DWIDTH 14 0
BBX 14 14 0 -2
BITMAP
0000
0000
0000
07F0
1800
2000
3FF0
2000
2000
1800
07F0
0000
0000
0000
ENDCHAR

STARTCHAR Ca2bb
ENCODING 41659
SWIDTH 1000 0
DWIDTH 14 0
BBX 14 14 0 -2
BITMAP
0000
0000
0000
1FC0
0030
0008
1FF8
0008
0008
0030
1FC0
0000
0000
0000
ENDCHAR

STARTCHAR Ca2bc
ENCODING 41660
SWIDTH 1000 0
DWIDTH 14 0
BBX 14 14 0 -2
BITMAP
0000
0000
0000
0FF0
1000
2000
2000
1000
0FF0
0000
0000
3FF0
0000
0000
ENDCHAR

STARTCHAR Ca2bd
ENCODING 41661
SWIDTH 1000 0
DWIDTH 14 0
BBX 14 14 0 -2
BITMAP
0000
0000
0000
3FC0
0020
0010
0010
0020
3FC0
0000
0000
3FF0
0000
0000
ENDCHAR

STARTCHAR Ca2be
ENCODING 41662
SWIDTH 1000 0
DWIDTH 14 0
BBX 14 14 0 -2
BITMAP
0000
0000
0000
0FF0
1000
2000
2000
2000
2000
1000
0FF0
0000
0000
0000
ENDCHAR

STARTCHAR Ca2bf
ENCODING 41663
SWIDTH 1000 0
DWIDTH 14 0
BBX 14 14 0 -2
BITMAP
0000
0000
0000
3FC0
0020
0010
0010
0010
0010
0020
3FC0
0000
0000
0000
ENDCHAR

STARTCHAR Ca2c0
ENCODING 41664
SWIDTH 1000 0
DWIDTH 14 0
BBX 14 14 0 -2
BITMAP
0000
0000
1020
1020
1020
1020
1020
1020
1020
1020
0840
0780
0000
0000
ENDCHAR

STARTCHAR Ca2c1
ENCODING 41665
SWIDTH 1000 0
DWIDTH 14 0
BBX 14 14 0 -2
BITMAP
0000
0000
0780
0840
1020
1020
1020
1020
1020
1020
1020
1020
0000
0000
ENDCHAR

STARTCHAR Ca2c2
ENCODING 41666
SWIDTH 1000 0
DWIDTH 14 0
BBX 14 14 0 -2
BITMAP
0000
0000
0000
0000
0000
0000
0000
0000
0000
0000
0000
0000
0000
0000
ENDCHAR

STARTCHAR Ca2c3
ENCODING 41667
SWIDTH 1000 0
DWIDTH 14 0
BBX 14 14 0 -2
BITMAP
0000
0000
0000
0000
0000
0000
0000
0000
0000
0000
0000
0000
0000
0000
ENDCHAR

STARTCHAR Ca2c4
ENCODING 41668
SWIDTH 1000 0
DWIDTH 14 0
BBX 14 14 0 -2
BITMAP
0000
0000
0000
0000
0000
0000
0000
0000
0000
0000
0000
0000
0000
0000
ENDCHAR

STARTCHAR Ca2c5
ENCODING 41669
SWIDTH 1000 0
DWIDTH 14 0
BBX 14 14 0 -2
BITMAP
0000
0000
0000
0000
0000
0000
0000
0000
0000
0000
0000
0000
0000
0000
ENDCHAR

STARTCHAR Ca2c6
ENCODING 41670
SWIDTH 1000 0
DWIDTH 14 0
BBX 14 14 0 -2
BITMAP
0000
0000
0000
0000
0000
0000
0000
0000
0000
0000
0000
0000
0000
0000
ENDCHAR

STARTCHAR Ca2c7
ENCODING 41671
SWIDTH 1000 0
DWIDTH 14 0
BBX 14 14 0 -2
BITMAP
0000
0000
0000
0000
0000
0000
0000
0000
0000
0000
0000
0000
0000
0000
ENDCHAR

STARTCHAR Ca2c8
ENCODING 41672
SWIDTH 1000 0
DWIDTH 14 0
BBX 14 14 0 -2
BITMAP
0000
0000
0000
0000
0000
0000
0000
0000
0000
0000
0000
0000
0000
0000
ENDCHAR

STARTCHAR Ca2c9
ENCODING 41673
SWIDTH 1000 0
DWIDTH 14 0
BBX 14 14 0 -2
BITMAP
0000
0000
0000
0000
0000
0000
0000
0000
0000
0000
0000
0000
0000
0000
ENDCHAR

STARTCHAR Ca2ca
ENCODING 41674
SWIDTH 1000 0
DWIDTH 14 0
BBX 14 14 0 -2
BITMAP
0000
0000
0200
0200
0500
0500
0880
0880
1040
1040
2020
2020
0000
0000
ENDCHAR

STARTCHAR Ca2cb
ENCODING 41675
SWIDTH 1000 0
DWIDTH 14 0
BBX 14 14 0 -2
BITMAP
0000
0000
2020
2020
1040
1040
0880
0880
0500
0500
0200
0200
0000
0000
ENDCHAR

STARTCHAR Ca2cc
ENCODING 41676
SWIDTH 1000 0
DWIDTH 14 0
BBX 14 14 0 -2
BITMAP
0000
0000
0000
0000
0000
0000
3FF0
0010
0010
0010
0000
0000
0000
0000
ENDCHAR

STARTCHAR Ca2cd
ENCODING 41677
SWIDTH 1000 0
DWIDTH 14 0
BBX 14 14 0 -2
BITMAP
0000
0000
0000
0080
0040
3FE0
0010
0008
0010
3FE0
0040
0080
0000
0000
ENDCHAR

STARTCHAR Ca2ce
ENCODING 41678
SWIDTH 1000 0
DWIDTH 14 0
BBX 14 14 0 -2
BITMAP
0000
0000
0000
0480
0840
1FE0
2010
4008
2010
1FE0
0840
0480
0000
0000
ENDCHAR

STARTCHAR Ca2cf
ENCODING 41679
SWIDTH 1000 0
DWIDTH 14 0
BBX 14 14 0 -2
BITMAP
0000
0000
2020
2020
1040
1FC0
0880
0880
0500
0500
0200
0200
0000
0000
ENDCHAR

STARTCHAR Ca2d0
ENCODING 41680
SWIDTH 1000 0
DWIDTH 14 0
BBX 14 14 0 -2
BITMAP
0000
0000
0000
3FE0
0020
0020
0020
3FE0
0020
0020
0020
3FE0
0000
0000
ENDCHAR

STARTCHAR Ca2d1
ENCODING 41681
SWIDTH 1000 0
DWIDTH 14 0
BBX 14 14 0 -2
BITMAP
0000
0000
0000
0000
0000
0000
0000
0000
0000
0000
0000
0000
0000
0000
ENDCHAR

STARTCHAR Ca2d2
ENCODING 41682
SWIDTH 1000 0
DWIDTH 14 0
BBX 14 14 0 -2
BITMAP
0000
0000
0000
0000
0000
0000
0000
0000
0000
0000
0000
0000
0000
0000
ENDCHAR

STARTCHAR Ca2d3
ENCODING 41683
SWIDTH 1000 0
DWIDTH 14 0
BBX 14 14 0 -2
BITMAP
0000
0000
0000
0000
0000
0000
0000
0000
0000
0000
0000
0000
0000
0000
ENDCHAR

STARTCHAR Ca2d4
ENCODING 41684
SWIDTH 1000 0
DWIDTH 14 0
BBX 14 14 0 -2
BITMAP
0000
0000
0000
0000
0000
0000
0000
0000
0000
0000
0000
0000
0000
0000
ENDCHAR

STARTCHAR Ca2d5
ENCODING 41685
SWIDTH 1000 0
DWIDTH 14 0
BBX 14 14 0 -2
BITMAP
0000
0000
0000
0000
0000
0000
0000
0000
0000
0000
0000
0000
0000
0000
ENDCHAR

STARTCHAR Ca2d6
ENCODING 41686
SWIDTH 1000 0
DWIDTH 14 0
BBX 14 14 0 -2
BITMAP
0000
0000
0000
0000
0000
0000
0000
0000
0000
0000
0000
0000
0000
0000
ENDCHAR

STARTCHAR Ca2d7
ENCODING 41687
SWIDTH 1000 0
DWIDTH 14 0
BBX 14 14 0 -2
BITMAP
0000
0000
0000
0000
0000
0000
0000
0000
0000
0000
0000
0000
0000
0000
ENDCHAR

STARTCHAR Ca2d8
ENCODING 41688
SWIDTH 1000 0
DWIDTH 14 0
BBX 14 14 0 -2
BITMAP
0000
0000
0000
0000
0000
0000
0000
0000
0000
0000
0000
0000
0000
0000
ENDCHAR

STARTCHAR Ca2d9
ENCODING 41689
SWIDTH 1000 0
DWIDTH 14 0
BBX 14 14 0 -2
BITMAP
0000
0000
0000
0000
0000
0000
0000
0000
0000
0000
0000
0000
0000
0000
ENDCHAR

STARTCHAR Ca2da
ENCODING 41690
SWIDTH 1000 0
DWIDTH 14 0
BBX 14 14 0 -2
BITMAP
0000
0000
0000
0000
0000
0000
0000
0000
0000
0000
0000
0000
0000
0000
ENDCHAR

STARTCHAR Ca2db
ENCODING 41691
SWIDTH 1000 0
DWIDTH 14 0
BBX 14 14 0 -2
BITMAP
0000
0000
0000
0000
0000
0000
0000
0000
0000
0000
0000
0000
0000
0000
ENDCHAR

STARTCHAR Ca2dc
ENCODING 41692
SWIDTH 1000 0
DWIDTH 14 0
BBX 14 14 0 -2
BITMAP
0000
0000
0020
0040
0080
0100
0200
0400
0800
1000
2000
7FE0
0000
0000
ENDCHAR

STARTCHAR Ca2dd
ENCODING 41693
SWIDTH 1000 0
DWIDTH 14 0
BBX 14 14 0 -2
BITMAP
0000
0000
0200
0200
0200
0200
0200
0200
0200
0200
0200
7FF0
0000
0000
ENDCHAR

STARTCHAR Ca2de
ENCODING 41694
SWIDTH 1000 0
DWIDTH 14 0
BBX 14 14 0 -2
BITMAP
0000
0000
0FC0
3030
4008
0000
0000
0000
0000
0000
0000
0000
0000
0000
ENDCHAR

STARTCHAR Ca2df
ENCODING 41695
SWIDTH 1000 0
DWIDTH 14 0
BBX 14 14 0 -2
BITMAP
0000
0000
0380
0440
0040
0040
0740
0880
1080
1080
1100
0E00
0000
0000
ENDCHAR

STARTCHAR Ca2e0
ENCODING 41696
SWIDTH 1000 0
DWIDTH 14 0
BBX 14 14 0 -2
BITMAP
0000
0000
7FF0
2020
2020
1040
1040
0880
0880
0500
0500
0200
0200
0000
ENDCHAR

STARTCHAR Ca2e1
ENCODING 41697
SWIDTH 1000 0
DWIDTH 14 0
BBX 14 14 0 -2
BITMAP
0000
0000
0000
0000
1FE0
0000
0000
1FE0
0000
0000
1FE0
0000
0000
0000
ENDCHAR

STARTCHAR Ca2e2
ENCODING 41698
SWIDTH 1000 0
DWIDTH 14 0
BBX 14 14 0 -2
BITMAP
0000
0000
0000
0C00
0000
1FE0
0000
0000
1FE0
0000
00C0
0000
0000
0000
ENDCHAR

STARTCHAR Ca2e3
ENCODING 41699
SWIDTH 1000 0
DWIDTH 14 0
BBX 14 14 0 -2
BITMAP
0000
0088
0110
0660
0880
3300
4400
4400
3300
0880
0660
0110
0088
0000
ENDCHAR

STARTCHAR Ca2e4
ENCODING 41700
SWIDTH 1000 0
DWIDTH 14 0
BBX 14 14 0 -2
BITMAP
0000
4400
2200
1980
0440
0330
0088
0088
0330
0440
1980
2200
4400
0000
ENDCHAR

STARTCHAR Ca2e5
ENCODING 41701
SWIDTH 1000 0
DWIDTH 14 0
BBX 14 14 0 -2
BITMAP
0000
0078
0040
0080
0080
0080
0100
2100
5200
1200
0A00
0400
0400
0000
ENDCHAR

STARTCHAR Ca2e6
ENCODING 41702
SWIDTH 1000 0
DWIDTH 14 0
BBX 14 14 0 -2
BITMAP
0000
0000
0000
0000
0000
30E0
4110
4210
4410
3860
0000
0000
0000
0000
ENDCHAR

STARTCHAR Ca2e7
ENCODING 41703
SWIDTH 1000 0
DWIDTH 14 0
BBX 14 14 0 -2
BITMAP
0000
0000
0000
0000
0000
38E0
4510
4200
4510
38E0
0000
0000
0000
0000
ENDCHAR

STARTCHAR Ca2e8
ENCODING 41704
SWIDTH 1000 0
DWIDTH 14 0
BBX 14 14 0 -2
BITMAP
0000
0000
0000
0000
1860
1860
0000
0000
0000
0300
0300
0000
0000
0000
ENDCHAR

STARTCHAR Ca2e9
ENCODING 41705
SWIDTH 1000 0
DWIDTH 14 0
BBX 14 14 0 -2
BITMAP
0000
0180
0240
0240
0200
0200
0200
0200
0200
0200
1200
1200
0C00
0000
ENDCHAR

STARTCHAR Ca2ea
ENCODING 41706
SWIDTH 1000 0
DWIDTH 14 0
BBX 14 14 0 -2
BITMAP
0000
0630
0948
0948
0840
0840
0840
0840
0840
0840
4A40
4A40
3180
0000
ENDCHAR

STARTCHAR Ca2eb
ENCODING 41707
SWIDTH 1000 0
DWIDTH 14 0
BBX 14 14 0 -2
BITMAP
0000
0000
0000
0000
0000
0000
0000
0000
0000
0000
0000
0000
0000
0000
ENDCHAR

STARTCHAR Ca2ec
ENCODING 41708
SWIDTH 1000 0
DWIDTH 14 0
BBX 14 14 0 -2
BITMAP
0000
0000
0000
0000
0000
0000
0000
0000
0000
0000
0000
0000
0000
0000
ENDCHAR

STARTCHAR Ca2ed
ENCODING 41709
SWIDTH 1000 0
DWIDTH 14 0
BBX 14 14 0 -2
BITMAP
0000
0000
0000
0000
0000
0000
0000
0000
0000
0000
0000
0000
0000
0000
ENDCHAR

STARTCHAR Ca2ee
ENCODING 41710
SWIDTH 1000 0
DWIDTH 14 0
BBX 14 14 0 -2
BITMAP
0000
0000
0000
0000
0000
0000
0000
0000
0000
0000
0000
0000
0000
0000
ENDCHAR

STARTCHAR Ca2ef
ENCODING 41711
SWIDTH 1000 0
DWIDTH 14 0
BBX 14 14 0 -2
BITMAP
0000
0000
0000
0000
0000
0000
0000
0000
0000
0000
0000
0000
0000
0000
ENDCHAR

STARTCHAR Ca2f0
ENCODING 41712
SWIDTH 1000 0
DWIDTH 14 0
BBX 14 14 0 -2
BITMAP
0000
0000
0000
0000
0000
0000
0000
0000
0000
0000
0000
0000
0000
0000
ENDCHAR

STARTCHAR Ca2f1
ENCODING 41713
SWIDTH 1000 0
DWIDTH 14 0
BBX 14 14 0 -2
BITMAP
0000
0000
0000
0000
0000
0000
0000
0000
0000
0000
0000
0000
0000
0000
ENDCHAR

STARTCHAR Ca2f2
ENCODING 41714
SWIDTH 1000 0
DWIDTH 14 0
BBX 14 14 0 -2
BITMAP
0000
0200
0500
0200
0500
0500
0880
0880
1FC0
1040
2020
2020
0000
0000
ENDCHAR

STARTCHAR Ca2f3
ENCODING 41715
SWIDTH 1000 0
DWIDTH 14 0
BBX 14 14 0 -2
BITMAP
0000
0100
2100
5200
5200
5400
2400
0910
0AA8
12A8
12A8
2110
2000
0000
ENDCHAR

STARTCHAR Ca2f4
ENCODING 41716
SWIDTH 1000 0
DWIDTH 14 0
BBX 14 14 0 -2
BITMAP
0000
0000
0480
0480
04E0
0780
1C80
04E0
0780
1C80
0480
0480
0000
0000
ENDCHAR

STARTCHAR Ca2f5
ENCODING 41717
SWIDTH 1000 0
DWIDTH 14 0
BBX 14 14 0 -2
BITMAP
0000
0800
0800
0800
0800
0B80
0C40
0840
0880
0880
0900
0E00
0000
0000
ENDCHAR

STARTCHAR Ca2f6
ENCODING 41718
SWIDTH 1000 0
DWIDTH 14 0
BBX 14 14 0 -2
BITMAP
0000
0200
0380
0240
0220
0220
0220
0240
0200
0E00
1E00
1C00
0800
0000
ENDCHAR

STARTCHAR Ca2f7
ENCODING 41719
SWIDTH 1000 0
DWIDTH 14 0
BBX 14 14 0 -2
BITMAP
0000
0200
0700
0200
0A80
1FC0
0A80
0200
0700
0200
0200
0200
0200
0000
ENDCHAR

STARTCHAR Ca2f8
ENCODING 41720
SWIDTH 1000 0
DWIDTH 14 0
BBX 14 14 0 -2
BITMAP
0000
0700
1240
3FE0
1240
0700
0200
0200
0700
1240
3FE0
1240
0700
0000
ENDCHAR

STARTCHAR Ca2f9
ENCODING 41721
SWIDTH 1000 0
DWIDTH 14 0
BBX 14 14 0 -2
BITMAP
0000
0000
0F80
1C80
1C80
0C80
0480
0480
0480
0480
0480
0480
0000
0000
ENDCHAR

STARTCHAR Ca2fa
ENCODING 41722
SWIDTH 1000 0
DWIDTH 14 0
BBX 14 14 0 -2
BITMAP
0000
0000
0000
0000
0000
0000
0000
0000
0000
0000
0000
0000
0000
0000
ENDCHAR

STARTCHAR Ca2fb
ENCODING 41723
SWIDTH 1000 0
DWIDTH 14 0
BBX 14 14 0 -2
BITMAP
0000
0000
0000
0000
0000
0000
0000
0000
0000
0000
0000
0000
0000
0000
ENDCHAR

STARTCHAR Ca2fc
ENCODING 41724
SWIDTH 1000 0
DWIDTH 14 0
BBX 14 14 0 -2
BITMAP
0000
0000
0000
0000
0000
0000
0000
0000
0000
0000
0000
0000
0000
0000
ENDCHAR

STARTCHAR Ca2fd
ENCODING 41725
SWIDTH 1000 0
DWIDTH 14 0
BBX 14 14 0 -2
BITMAP
0000
0000
0000
0000
0000
0000
0000
0000
0000
0000
0000
0000
0000
0000
ENDCHAR

STARTCHAR Ca2fe
ENCODING 41726
SWIDTH 1000 0
DWIDTH 14 0
BBX 14 14 0 -2
BITMAP
0000
0780
1860
2010
2010
4008
4008
4008
4008
2010
2010
1860
0780
0000
ENDCHAR

STARTCHAR Ca3a2
ENCODING 41890
SWIDTH 1000 0
DWIDTH 14 0
BBX 14 14 0 -2
BITMAP
0000
0000
0000
0000
0000
0000
0000
0000
0000
0000
0000
0000
0000
0000
ENDCHAR

STARTCHAR Ca3a3
ENCODING 41891
SWIDTH 1000 0
DWIDTH 14 0
BBX 14 14 0 -2
BITMAP
0000
0000
0000
0000
0000
0000
0000
0000
0000
0000
0000
0000
0000
0000
ENDCHAR

STARTCHAR Ca3a4
ENCODING 41892
SWIDTH 1000 0
DWIDTH 14 0
BBX 14 14 0 -2
BITMAP
0000
0000
0000
0000
0000
0000
0000
0000
0000
0000
0000
0000
0000
0000
ENDCHAR

STARTCHAR Ca3a5
ENCODING 41893
SWIDTH 1000 0
DWIDTH 14 0
BBX 14 14 0 -2
BITMAP
0000
0000
0000
0000
0000
0000
0000
0000
0000
0000
0000
0000
0000
0000
ENDCHAR

STARTCHAR Ca3a6
ENCODING 41894
SWIDTH 1000 0
DWIDTH 14 0
BBX 14 14 0 -2
BITMAP
0000
0000
0000
0000
0000
0000
0000
0000
0000
0000
0000
0000
0000
0000
ENDCHAR

STARTCHAR Ca3a7
ENCODING 41895
SWIDTH 1000 0
DWIDTH 14 0
BBX 14 14 0 -2
BITMAP
0000
0000
0000
0000
0000
0000
0000
0000
0000
0000
0000
0000
0000
0000
ENDCHAR

STARTCHAR Ca3a8
ENCODING 41896
SWIDTH 1000 0
DWIDTH 14 0
BBX 14 14 0 -2
BITMAP
0000
0000
0000
0000
0000
0000
0000
0000
0000
0000
0000
0000
0000
0000
ENDCHAR

STARTCHAR Ca3a9
ENCODING 41897
SWIDTH 1000 0
DWIDTH 14 0
BBX 14 14 0 -2
BITMAP
0000
0000
0000
0000
0000
0000
0000
0000
0000
0000
0000
0000
0000
0000
ENDCHAR

STARTCHAR Ca3aa
ENCODING 41898
SWIDTH 1000 0
DWIDTH 14 0
BBX 14 14 0 -2
BITMAP
0000
0000
0000
0000
0000
0000
0000
0000
0000
0000
0000
0000
0000
0000
ENDCHAR

STARTCHAR Ca3ab
ENCODING 41899
SWIDTH 1000 0
DWIDTH 14 0
BBX 14 14 0 -2
BITMAP
0000
0000
0000
0000
0000
0000
0000
0000
0000
0000
0000
0000
0000
0000
ENDCHAR

STARTCHAR Ca3ac
ENCODING 41900
SWIDTH 1000 0
DWIDTH 14 0
BBX 14 14 0 -2
BITMAP
0000
0000
0000
0000
0000
0000
0000
0000
0000
0000
0000
0000
0000
0000
ENDCHAR

STARTCHAR Ca3ad
ENCODING 41901
SWIDTH 1000 0
DWIDTH 14 0
BBX 14 14 0 -2
BITMAP
0000
0000
0000
0000
0000
0000
0000
0000
0000
0000
0000
0000
0000
0000
ENDCHAR

STARTCHAR Ca3ae
ENCODING 41902
SWIDTH 1000 0
DWIDTH 14 0
BBX 14 14 0 -2
BITMAP
0000
0000
0000
0000
0000
0000
0000
0000
0000
0000
0000
0000
0000
0000
ENDCHAR

STARTCHAR Ca3af
ENCODING 41903
SWIDTH 1000 0
DWIDTH 14 0
BBX 14 14 0 -2
BITMAP
0000
0000
0000
0000
0000
0000
0000
0000
0000
0000
0000
0000
0000
0000
ENDCHAR

STARTCHAR Ca3b0
ENCODING 41904
SWIDTH 1000 0
DWIDTH 14 0
BBX 14 14 0 -2
BITMAP
0000
0000
0700
0880
0880
1040
1040
1040
1040
0880
0880
0700
0000
0000
ENDCHAR

STARTCHAR Ca3b1
ENCODING 41905
SWIDTH 1000 0
DWIDTH 14 0
BBX 14 14 0 -2
BITMAP
0000
0000
0100
0300
0500
0100
0100
0100
0100
0100
0100
0100
0000
0000
ENDCHAR

STARTCHAR Ca3b2
ENCODING 41906
SWIDTH 1000 0
DWIDTH 14 0
BBX 14 14 0 -2
BITMAP
0000
0000
0F80
1040
1040
0040
0080
0300
0400
0800
1000
1FC0
0000
0000
ENDCHAR

STARTCHAR Ca3b3
ENCODING 41907
SWIDTH 1000 0
DWIDTH 14 0
BBX 14 14 0 -2
BITMAP
0000
0000
0780
0840
0840
0040
0380
0040
0020
1020
0840
0780
0000
0000
ENDCHAR

STARTCHAR Ca3b4
ENCODING 41908
SWIDTH 1000 0
DWIDTH 14 0
BBX 14 14 0 -2
BITMAP
0000
0000
0080
0180
0280
0480
0880
1080
1FE0
0080
0080
0080
0000
0000
ENDCHAR

STARTCHAR Ca3b5
ENCODING 41909
SWIDTH 1000 0
DWIDTH 14 0
BBX 14 14 0 -2
BITMAP
0000
0000
0FC0
0800
0800
0B80
0C40
0020
0020
1020
0840
0780
0000
0000
ENDCHAR

STARTCHAR Ca3b6
ENCODING 41910
SWIDTH 1000 0
DWIDTH 14 0
BBX 14 14 0 -2
BITMAP
0000
0000
0780
0840
1020
1000
1780
1840
1020
1020
0840
0780
0000
0000
ENDCHAR

STARTCHAR Ca3b7
ENCODING 41911
SWIDTH 1000 0
DWIDTH 14 0
BBX 14 14 0 -2
BITMAP
0000
0000
1FE0
0020
0040
0040
0080
0080
0080
0100
0100
0100
0000
0000
ENDCHAR

STARTCHAR Ca3b8
ENCODING 41912
SWIDTH 1000 0
DWIDTH 14 0
BBX 14 14 0 -2
BITMAP
0000
0000
0780
0840
0840
0840
0780
0840
1020
1020
0840
0780
0000
0000
ENDCHAR

STARTCHAR Ca3b9
ENCODING 41913
SWIDTH 1000 0
DWIDTH 14 0
BBX 14 14 0 -2
BITMAP
0000
0000
0780
0840
1020
1020
0860
07A0
0020
1020
0840
0780
0000
0000
ENDCHAR

STARTCHAR Ca3ba
ENCODING 41914
SWIDTH 1000 0
DWIDTH 14 0
BBX 14 14 0 -2
BITMAP
0000
0000
0000
0000
0000
0000
0000
0000
0000
0000
0000
0000
0000
0000
ENDCHAR

STARTCHAR Ca3bb
ENCODING 41915
SWIDTH 1000 0
DWIDTH 14 0
BBX 14 14 0 -2
BITMAP
0000
0000
0000
0000
0000
0000
0000
0000
0000
0000
0000
0000
0000
0000
ENDCHAR

STARTCHAR Ca3bc
ENCODING 41916
SWIDTH 1000 0
DWIDTH 14 0
BBX 14 14 0 -2
BITMAP
0000
0000
0000
0000
0000
0000
0000
0000
0000
0000
0000
0000
0000
0000
ENDCHAR

STARTCHAR Ca3bd
ENCODING 41917
SWIDTH 1000 0
DWIDTH 14 0
BBX 14 14 0 -2
BITMAP
0000
0000
0000
0000
0000
0000
0000
0000
0000
0000
0000
0000
0000
0000
ENDCHAR

STARTCHAR Ca3be
ENCODING 41918
SWIDTH 1000 0
DWIDTH 14 0
BBX 14 14 0 -2
BITMAP
0000
0000
0000
0000
0000
0000
0000
0000
0000
0000
0000
0000
0000
0000
ENDCHAR

STARTCHAR Ca3bf
ENCODING 41919
SWIDTH 1000 0
DWIDTH 14 0
BBX 14 14 0 -2
BITMAP
0000
0000
0000
0000
0000
0000
0000
0000
0000
0000
0000
0000
0000
0000
ENDCHAR

STARTCHAR Ca3c0
ENCODING 41920
SWIDTH 1000 0
DWIDTH 14 0
BBX 14 14 0 -2
BITMAP
0000
0000
0000
0000
0000
0000
0000
0000
0000
0000
0000
0000
0000
0000
ENDCHAR

STARTCHAR Ca3c1
ENCODING 41921
SWIDTH 1000 0
DWIDTH 14 0
BBX 14 14 0 -2
BITMAP
0000
0000
0200
0200
0500
0500
0880
0880
1FC0
1040
2020
2020
0000
0000
ENDCHAR

STARTCHAR Ca3c2
ENCODING 41922
SWIDTH 1000 0
DWIDTH 14 0
BBX 14 14 0 -2
BITMAP
0000
0000
1F80
1040
1040
1040
1F80
1040
1020
1020
1020
1FC0
0000
0000
ENDCHAR

STARTCHAR Ca3c3
ENCODING 41923
SWIDTH 1000 0
DWIDTH 14 0
BBX 14 14 0 -2
BITMAP
0000
0000
0F80
1040
2020
2000
2000
2000
2000
2020
1040
0F80
0000
0000
ENDCHAR

STARTCHAR Ca3c4
ENCODING 41924
SWIDTH 1000 0
DWIDTH 14 0
BBX 14 14 0 -2
BITMAP
0000
0000
1F00
10C0
1020
1020
1020
1020
1020
1020
10C0
1F00
0000
0000
ENDCHAR

STARTCHAR Ca3c5
ENCODING 41925
SWIDTH 1000 0
DWIDTH 14 0
BBX 14 14 0 -2
BITMAP
0000
0000
1FE0
1000
1000
1000
1FC0
1000
1000
1000
1000
1FE0
0000
0000
ENDCHAR

STARTCHAR Ca3c6
ENCODING 41926
SWIDTH 1000 0
DWIDTH 14 0
BBX 14 14 0 -2
BITMAP
0000
0000
1FE0
1000
1000
1000
1FC0
1000
1000
1000
1000
1000
0000
0000
ENDCHAR

STARTCHAR Ca3c7
ENCODING 41927
SWIDTH 1000 0
DWIDTH 14 0
BBX 14 14 0 -2
BITMAP
0000
0000
0780
0840
1020
1000
1000
10E0
1020
1020
0860
07A0
0000
0000
ENDCHAR

STARTCHAR Ca3c8
ENCODING 41928
SWIDTH 1000 0
DWIDTH 14 0
BBX 14 14 0 -2
BITMAP
0000
0000
1020
1020
1020
1020
1FE0
1020
1020
1020
1020
1020
0000
0000
ENDCHAR

STARTCHAR Ca3c9
ENCODING 41929
SWIDTH 1000 0
DWIDTH 14 0
BBX 14 14 0 -2
BITMAP
0000
0000
0200
0200
0200
0200
0200
0200
0200
0200
0200
0200
0000
0000
ENDCHAR

STARTCHAR Ca3ca
ENCODING 41930
SWIDTH 1000 0
DWIDTH 14 0
BBX 14 14 0 -2
BITMAP
0000
0000
0040
0040
0040
0040
0040
0040
1040
1040
0880
0700
0000
0000
ENDCHAR

STARTCHAR Ca3cb
ENCODING 41931
SWIDTH 1000 0
DWIDTH 14 0
BBX 14 14 0 -2
BITMAP
0000
0000
1040
1080
1100
1200
1400
1A00
1100
1080
1040
1020
0000
0000
ENDCHAR

STARTCHAR Ca3cc
ENCODING 41932
SWIDTH 1000 0
DWIDTH 14 0
BBX 14 14 0 -2
BITMAP
0000
0000
0800
0800
0800
0800
0800
0800
0800
0800
0800
0FE0
0000
0000
ENDCHAR

STARTCHAR Ca3cd
ENCODING 41933
SWIDTH 1000 0
DWIDTH 14 0
BBX 14 14 0 -2
BITMAP
0000
0000
3060
28A0
28A0
28A0
2520
2520
2520
2220
2220
2020
0000
0000
ENDCHAR

STARTCHAR Ca3ce
ENCODING 41934
SWIDTH 1000 0
DWIDTH 14 0
BBX 14 14 0 -2
BITMAP
0000
0000
1820
1420
1420
1220
1120
1120
10A0
10A0
1060
1020
0000
0000
ENDCHAR

STARTCHAR Ca3cf
ENCODING 41935
SWIDTH 1000 0
DWIDTH 14 0
BBX 14 14 0 -2
BITMAP
0000
0000
0780
0840
1020
2010
2010
2010
2010
1020
0840
0780
0000
0000
ENDCHAR

STARTCHAR Ca3d0
ENCODING 41936
SWIDTH 1000 0
DWIDTH 14 0
BBX 14 14 0 -2
BITMAP
0000
0000
0F80
0840
0820
0820
0840
0F80
0800
0800
0800
0800
0000
0000
ENDCHAR

STARTCHAR Ca3d1
ENCODING 41937
SWIDTH 1000 0
DWIDTH 14 0
BBX 14 14 0 -2
BITMAP
0000
0000
0780
0840
1020
2010
2010
2010
2110
10A0
0C40
03A0
0010
0000
ENDCHAR

STARTCHAR Ca3d2
ENCODING 41938
SWIDTH 1000 0
DWIDTH 14 0
BBX 14 14 0 -2
BITMAP
0000
0000
1F00
1080
1040
1040
1080
1F00
1100
1080
1040
1020
0000
0000
ENDCHAR

STARTCHAR Ca3d3
ENCODING 41939
SWIDTH 1000 0
DWIDTH 14 0
BBX 14 14 0 -2
BITMAP
0000
0000
0FC0
1020
1020
1000
0E00
01C0
0020
1020
1020
0FC0
0000
0000
ENDCHAR

STARTCHAR Ca3d4
ENCODING 41940
SWIDTH 1000 0
DWIDTH 14 0
BBX 14 14 0 -2
BITMAP
0000
0000
3FE0
0200
0200
0200
0200
0200
0200
0200
0200
0200
0000
0000
ENDCHAR

STARTCHAR Ca3d5
ENCODING 41941
SWIDTH 1000 0
DWIDTH 14 0
BBX 14 14 0 -2
BITMAP
0000
0000
1020
1020
1020
1020
1020
1020
1020
1020
0840
0780
0000
0000
ENDCHAR

STARTCHAR Ca3d6
ENCODING 41942
SWIDTH 1000 0
DWIDTH 14 0
BBX 14 14 0 -2
BITMAP
0000
0000
2020
2020
1040
1040
0880
0880
0500
0500
0200
0200
0000
0000
ENDCHAR

STARTCHAR Ca3d7
ENCODING 41943
SWIDTH 1000 0
DWIDTH 14 0
BBX 14 14 0 -2
BITMAP
0000
0000
2220
2220
2220
2220
1540
1540
1540
1540
0880
0880
0000
0000
ENDCHAR

STARTCHAR Ca3d8
ENCODING 41944
SWIDTH 1000 0
DWIDTH 14 0
BBX 14 14 0 -2
BITMAP
0000
0000
2020
1040
0880
0500
0200
0200
0500
0880
1040
2020
0000
0000
ENDCHAR

STARTCHAR Ca3d9
ENCODING 41945
SWIDTH 1000 0
DWIDTH 14 0
BBX 14 14 0 -2
BITMAP
0000
0000
2020
1040
1040
0880
0500
0500
0200
0200
0200
0200
0000
0000
ENDCHAR

STARTCHAR Ca3da
ENCODING 41946
SWIDTH 1000 0
DWIDTH 14 0
BBX 14 14 0 -2
BITMAP
0000
0000
1FE0
0040
0080
0100
0200
0200
0400
0800
1000
3FE0
0000
0000
ENDCHAR

STARTCHAR Ca3db
ENCODING 41947
SWIDTH 1000 0
DWIDTH 14 0
BBX 14 14 0 -2
BITMAP
0000
0000
0000
0000
0000
0000
0000
0000
0000
0000
0000
0000
0000
0000
ENDCHAR

STARTCHAR Ca3dc
ENCODING 41948
SWIDTH 1000 0
DWIDTH 14 0
BBX 14 14 0 -2
BITMAP
0000
0000
0000
0000
0000
0000
0000
0000
0000
0000
0000
0000
0000
0000
ENDCHAR

STARTCHAR Ca3dd
ENCODING 41949
SWIDTH 1000 0
DWIDTH 14 0
BBX 14 14 0 -2
BITMAP
0000
0000
0000
0000
0000
0000
0000
0000
0000
0000
0000
0000
0000
0000
ENDCHAR

STARTCHAR Ca3de
ENCODING 41950
SWIDTH 1000 0
DWIDTH 14 0
BBX 14 14 0 -2
BITMAP
0000
0000
0000
0000
0000
0000
0000
0000
0000
0000
0000
0000
0000
0000
ENDCHAR

STARTCHAR Ca3df
ENCODING 41951
SWIDTH 1000 0
DWIDTH 14 0
BBX 14 14 0 -2
BITMAP
0000
0000
0000
0000
0000
0000
0000
0000
0000
0000
0000
0000
0000
0000
ENDCHAR

STARTCHAR Ca3e0
ENCODING 41952
SWIDTH 1000 0
DWIDTH 14 0
BBX 14 14 0 -2
BITMAP
0000
0000
0000
0000
0000
0000
0000
0000
0000
0000
0000
0000
0000
0000
ENDCHAR

STARTCHAR Ca3e1
ENCODING 41953
SWIDTH 1000 0
DWIDTH 14 0
BBX 14 14 0 -2
BITMAP
0000
0000
0000
0000
0000
0F00
1080
0080
0F80
1080
1180
0EC0
0000
0000
ENDCHAR

STARTCHAR Ca3e2
ENCODING 41954
SWIDTH 1000 0
DWIDTH 14 0
BBX 14 14 0 -2
BITMAP
0000
0000
0800
0800
0800
0B80
0C40
0820
0820
0820
0C40
0B80
0000
0000
ENDCHAR

STARTCHAR Ca3e3
ENCODING 41955
SWIDTH 1000 0
DWIDTH 14 0
BBX 14 14 0 -2
BITMAP
0000
0000
0000
0000
0000
0780
0840
1000
1000
1000
0840
0780
0000
0000
ENDCHAR

STARTCHAR Ca3e4
ENCODING 41956
SWIDTH 1000 0
DWIDTH 14 0
BBX 14 14 0 -2
BITMAP
0000
0000
0040
0040
0040
0740
08C0
1040
1040
1040
08C0
0740
0000
0000
ENDCHAR

STARTCHAR Ca3e5
ENCODING 41957
SWIDTH 1000 0
DWIDTH 14 0
BBX 14 14 0 -2
BITMAP
0000
0000
0000
0000
0000
0700
0880
1040
1FC0
1000
0840
0780
0000
0000
ENDCHAR

STARTCHAR Ca3e6
ENCODING 41958
SWIDTH 1000 0
DWIDTH 14 0
BBX 14 14 0 -2
BITMAP
0000
0000
01C0
0200
0200
0FC0
0200
0200
0200
0200
0200
0200
0000
0000
ENDCHAR

STARTCHAR Ca3e7
ENCODING 41959
SWIDTH 1000 0
DWIDTH 14 0
BBX 14 14 0 -2
BITMAP
0000
0000
0000
0000
0000
0740
08C0
0840
0840
07C0
0040
0840
0780
0000
ENDCHAR

STARTCHAR Ca3e8
ENCODING 41960
SWIDTH 1000 0
DWIDTH 14 0
BBX 14 14 0 -2
BITMAP
0000
0000
0800
0800
0800
0B80
0C40
0840
0840
0840
0840
0840
0000
0000
ENDCHAR

STARTCHAR Ca3e9
ENCODING 41961
SWIDTH 1000 0
DWIDTH 14 0
BBX 14 14 0 -2
BITMAP
0000
0000
0200
0000
0000
0200
0200
0200
0200
0200
0200
0200
0000
0000
ENDCHAR

STARTCHAR Ca3ea
ENCODING 41962
SWIDTH 1000 0
DWIDTH 14 0
BBX 14 14 0 -2
BITMAP
0000
0000
0080
0000
0000
0080
0080
0080
0080
0080
1080
1080
0F00
0000
ENDCHAR

STARTCHAR Ca3eb
ENCODING 41963
SWIDTH 1000 0
DWIDTH 14 0
BBX 14 14 0 -2
BITMAP
0000
0000
0800
0800
0800
0840
0880
0900
0B00
0C80
0840
0820
0000
0000
ENDCHAR

STARTCHAR Ca3ec
ENCODING 41964
SWIDTH 1000 0
DWIDTH 14 0
BBX 14 14 0 -2
BITMAP
0000
0000
0200
0200
0200
0200
0200
0200
0200
0200
0200
0200
0000
0000
ENDCHAR

STARTCHAR Ca3ed
ENCODING 41965
SWIDTH 1000 0
DWIDTH 14 0
BBX 14 14 0 -2
BITMAP
0000
0000
0000
0000
0000
2DC0
3220
2220
2220
2220
2220
2220
0000
0000
ENDCHAR

STARTCHAR Ca3ee
ENCODING 41966
SWIDTH 1000 0
DWIDTH 14 0
BBX 14 14 0 -2
BITMAP
0000
0000
0000
0000
0000
0B80
0C40
0840
0840
0840
0840
0840
0000
0000
ENDCHAR

STARTCHAR Ca3ef
ENCODING 41967
SWIDTH 1000 0
DWIDTH 14 0
BBX 14 14 0 -2
BITMAP
0000
0000
0000
0000
0000
0700
0880
1040
1040
1040
0880
0700
0000
0000
ENDCHAR

STARTCHAR Ca3f0
ENCODING 41968
SWIDTH 1000 0
DWIDTH 14 0
BBX 14 14 0 -2
BITMAP
0000
0000
0000
0000
0000
0B80
0C40
0820
0820
0C40
0B80
0800
0800
0000
ENDCHAR

STARTCHAR Ca3f1
ENCODING 41969
SWIDTH 1000 0
DWIDTH 14 0
BBX 14 14 0 -2
BITMAP
0000
0000
0000
0000
0000
0740
08C0
1040
1040
08C0
0740
0040
0040
0000
ENDCHAR

STARTCHAR Ca3f2
ENCODING 41970
SWIDTH 1000 0
DWIDTH 14 0
BBX 14 14 0 -2
BITMAP
0000
0000
0000
0000
0000
05C0
0600
0400
0400
0400
0400
0400
0000
0000
ENDCHAR

STARTCHAR Ca3f3
ENCODING 41971
SWIDTH 1000 0
DWIDTH 14 0
BBX 14 14 0 -2
BITMAP
0000
0000
0000
0000
0000
0780
0840
0800
0780
0040
0840
0780
0000
0000
ENDCHAR

STARTCHAR Ca3f4
ENCODING 41972
SWIDTH 1000 0
DWIDTH 14 0
BBX 14 14 0 -2
BITMAP
0000
0000
0400
0400
0400
1F80
0400
0400
0400
0400
0400
0380
0000
0000
ENDCHAR

STARTCHAR Ca3f5
ENCODING 41973
SWIDTH 1000 0
DWIDTH 14 0
BBX 14 14 0 -2
BITMAP
0000
0000
0000
0000
0000
0840
0840
0840
0840
0840
08C0
0740
0000
0000
ENDCHAR

STARTCHAR Ca3f6
ENCODING 41974
SWIDTH 1000 0
DWIDTH 14 0
BBX 14 14 0 -2
BITMAP
0000
0000
0000
0000
0000
1040
1040
0880
0880
0500
0500
0200
0000
0000
ENDCHAR

STARTCHAR Ca3f7
ENCODING 41975
SWIDTH 1000 0
DWIDTH 14 0
BBX 14 14 0 -2
BITMAP
0000
0000
0000
0000
0000
2220
2220
1240
1540
1540
0880
0880
0000
0000
ENDCHAR

STARTCHAR Ca3f8
ENCODING 41976
SWIDTH 1000 0
DWIDTH 14 0
BBX 14 14 0 -2
BITMAP
0000
0000
0000
0000
0000
1040
0880
0500
0200
0500
0880
1040
0000
0000
ENDCHAR

STARTCHAR Ca3f9
ENCODING 41977
SWIDTH 1000 0
DWIDTH 14 0
BBX 14 14 0 -2
BITMAP
0000
0000
0000
0000
0000
0840
0840
0440
0480
0280
0100
0100
0600
0000
ENDCHAR

STARTCHAR Ca3fa
ENCODING 41978
SWIDTH 1000 0
DWIDTH 14 0
BBX 14 14 0 -2
BITMAP
0000
0000
0000
0000
0000
0FC0
0080
0100
0200
0400
0800
1FC0
0000
0000
ENDCHAR

STARTCHAR Ca4a1
ENCODING 42145
SWIDTH 1000 0
DWIDTH 14 0
BBX 14 14 0 -2
BITMAP
0000
0000
0000
0400
0780
3C00
0400
07C0
0D20
1510
2610
1C20
01C0
0000
ENDCHAR

STARTCHAR Ca4a2
ENCODING 42146
SWIDTH 1000 0
DWIDTH 14 0
BBX 14 14 0 -2
BITMAP
0000
0400
0400
07C0
3C00
0400
07E0
0C90
1488
2508
2208
1C10
00E0
0000
ENDCHAR

STARTCHAR Ca4a3
ENCODING 42147
SWIDTH 1000 0
DWIDTH 14 0
BBX 14 14 0 -2
BITMAP
0000
0000
0000
0000
0000
1080
1040
1040
1020
1420
0800
0800
0000
0000
ENDCHAR

STARTCHAR Ca4a4
ENCODING 42148
SWIDTH 1000 0
DWIDTH 14 0
BBX 14 14 0 -2
BITMAP
0000
0000
0000
0000
1040
1020
1020
1010
1210
1410
0800
0800
0000
0000
ENDCHAR

STARTCHAR Ca4a5
ENCODING 42149
SWIDTH 1000 0
DWIDTH 14 0
BBX 14 14 0 -2
BITMAP
0000
0000
0000
0400
0300
0000
0780
1840
0040
0040
0040
0080
0700
0000
ENDCHAR

STARTCHAR Ca4a6
ENCODING 42150
SWIDTH 1000 0
DWIDTH 14 0
BBX 14 14 0 -2
BITMAP
0000
0600
0180
0000
0380
1C40
0020
0020
0020
0020
0040
0180
0600
0000
ENDCHAR

STARTCHAR Ca4a7
ENCODING 42151
SWIDTH 1000 0
DWIDTH 14 0
BBX 14 14 0 -2
BITMAP
0000
0000
0000
0000
0400
0300
0000
0F80
0100
0200
0500
0900
10E0
0000
ENDCHAR

STARTCHAR Ca4a8
ENCODING 42152
SWIDTH 1000 0
DWIDTH 14 0
BBX 14 14 0 -2
BITMAP
0000
0600
0180
0000
0000
03C0
1C80
0100
0200
0600
0900
1100
20F0
0000
ENDCHAR

STARTCHAR Ca4a9
ENCODING 42153
SWIDTH 1000 0
DWIDTH 14 0
BBX 14 14 0 -2
BITMAP
0000
0000
0000
0000
0400
0700
1C20
0410
0F90
1440
2440
2440
1980
0000
ENDCHAR

STARTCHAR Ca4aa
ENCODING 42154
SWIDTH 1000 0
DWIDTH 14 0
BBX 14 14 0 -2
BITMAP
0000
0000
0400
0420
0790
3C08
0400
07C0
0C20
1410
2410
2420
1CC0
0000
ENDCHAR

STARTCHAR Ca4ab
ENCODING 42155
SWIDTH 1000 0
DWIDTH 14 0
BBX 14 14 0 -2
BITMAP
0000
0000
0400
0400
0420
0710
3890
0888
0888
1088
1080
2500
2300
0000
ENDCHAR

STARTCHAR Ca4ac
ENCODING 42156
SWIDTH 1000 0
DWIDTH 14 0
BBX 14 14 0 -2
BITMAP
0000
0010
0448
0420
0400
0720
3890
0888
0888
1088
1080
2500
2300
0000
ENDCHAR

STARTCHAR Ca4ad
ENCODING 42157
SWIDTH 1000 0
DWIDTH 14 0
BBX 14 14 0 -2
BITMAP
0000
0200
0200
01E0
1F00
00F0
1F80
0040
0FE0
1020
1000
0C00
03E0
0000
ENDCHAR

STARTCHAR Ca4ae
ENCODING 42158
SWIDTH 1000 0
DWIDTH 14 0
BBX 14 14 0 -2
BITMAP
0000
0250
0228
01E0
1F00
00F0
1F80
0040
0FE0
1020
1000
0C00
03E0
0000
ENDCHAR

STARTCHAR Ca4af
ENCODING 42159
SWIDTH 1000 0
DWIDTH 14 0
BBX 14 14 0 -2
BITMAP
0000
0080
0080
0100
0200
0400
0800
0800
0400
0200
0100
0080
0040
0000
ENDCHAR

STARTCHAR Ca4b0
ENCODING 42160
SWIDTH 1000 0
DWIDTH 14 0
BBX 14 14 0 -2
BITMAP
0000
0080
0080
0110
0248
0420
0800
0800
0400
0200
0100
0080
0040
0000
ENDCHAR

STARTCHAR Ca4b1
ENCODING 42161
SWIDTH 1000 0
DWIDTH 14 0
BBX 14 14 0 -2
BITMAP
0000
0040
1040
1040
1078
27C0
2040
2040
2040
2840
2880
1080
1100
0000
ENDCHAR

STARTCHAR Ca4b2
ENCODING 42162
SWIDTH 1000 0
DWIDTH 14 0
BBX 14 14 0 -2
BITMAP
0000
0050
1048
1050
1048
27F8
2040
2040
2040
2840
2880
1080
1100
0000
ENDCHAR

STARTCHAR Ca4b3
ENCODING 42163
SWIDTH 1000 0
DWIDTH 14 0
BBX 14 14 0 -2
BITMAP
0000
0000
0000
0FC0
0080
0100
0000
0000
0000
1000
1000
0FE0
0000
0000
ENDCHAR

STARTCHAR Ca4b4
ENCODING 42164
SWIDTH 1000 0
DWIDTH 14 0
BBX 14 14 0 -2
BITMAP
0000
0010
0048
0FA0
0100
0200
0000
0000
0000
1000
1000
0FE0
0000
0000
ENDCHAR

STARTCHAR Ca4b5
ENCODING 42165
SWIDTH 1000 0
DWIDTH 14 0
BBX 14 14 0 -2
BITMAP
0000
0000
0100
0100
01F0
1E80
0080
0040
0FE0
1020
1000
0C00
03E0
0000
ENDCHAR

STARTCHAR Ca4b6
ENCODING 42166
SWIDTH 1000 0
DWIDTH 14 0
BBX 14 14 0 -2
BITMAP
0000
0010
0148
0120
01F0
1E80
0080
0040
0FE0
1020
1000
0C00
03E0
0000
ENDCHAR

STARTCHAR Ca4b7
ENCODING 42167
SWIDTH 1000 0
DWIDTH 14 0
BBX 14 14 0 -2
BITMAP
0000
0000
1000
1000
1000
1000
1000
1000
1020
1020
1040
0880
0700
0000
ENDCHAR

STARTCHAR Ca4b8
ENCODING 42168
SWIDTH 1000 0
DWIDTH 14 0
BBX 14 14 0 -2
BITMAP
0000
0000
1040
1120
1080
1000
1000
1000
1020
1020
1040
0880
0700
0000
ENDCHAR

STARTCHAR Ca4b9
ENCODING 42169
SWIDTH 1000 0
DWIDTH 14 0
BBX 14 14 0 -2
BITMAP
0000
0100
0100
01F0
3F00
0100
0700
0980
0980
0680
0080
0100
0600
0000
ENDCHAR

STARTCHAR Ca4ba
ENCODING 42170
SWIDTH 1000 0
DWIDTH 14 0
BBX 14 14 0 -2
BITMAP
0000
0150
0128
01F0
3F00
0100
0700
0980
0980
0680
0080
0100
0600
0000
ENDCHAR

STARTCHAR Ca4bb
ENCODING 42171
SWIDTH 1000 0
DWIDTH 14 0
BBX 14 14 0 -2
BITMAP
0000
0000
0040
0840
0840
0FF8
7840
0840
08C0
0800
0800
07E0
0000
0000
ENDCHAR

STARTCHAR Ca4bc
ENCODING 42172
SWIDTH 1000 0
DWIDTH 14 0
BBX 14 14 0 -2
BITMAP
0000
0010
0048
0850
0848
0FF8
7840
0840
08C0
0800
0800
07E0
0000
0000
ENDCHAR

STARTCHAR Ca4bd
ENCODING 42173
SWIDTH 1000 0
DWIDTH 14 0
BBX 14 14 0 -2
BITMAP
0000
0000
0FC0
0080
0100
0200
07F0
3900
0200
0400
0400
0200
01C0
0000
ENDCHAR

STARTCHAR Ca4be
ENCODING 42174
SWIDTH 1000 0
DWIDTH 14 0
BBX 14 14 0 -2
BITMAP
0000
0010
0FC8
0090
0108
0200
07F0
3900
0200
0400
0400
0200
01C0
0000
ENDCHAR

STARTCHAR Ca4bf
ENCODING 42175
SWIDTH 1000 0
DWIDTH 14 0
BBX 14 14 0 -2
BITMAP
0000
0000
0400
0400
07C0
3C00
0400
09E0
0800
1000
1000
2200
21F0
0000
ENDCHAR

STARTCHAR Ca4c0
ENCODING 42176
SWIDTH 1000 0
DWIDTH 14 0
BBX 14 14 0 -2
BITMAP
0000
0010
0408
0420
0790
3C00
0400
09E0
0800
1000
1000
2200
21F0
0000
ENDCHAR

STARTCHAR Ca4c1
ENCODING 42177
SWIDTH 1000 0
DWIDTH 14 0
BBX 14 14 0 -2
BITMAP
0000
0400
0400
04C0
3F00
0800
0800
0BC0
0C20
0810
0010
0060
0380
0000
ENDCHAR

STARTCHAR Ca4c2
ENCODING 42178
SWIDTH 1000 0
DWIDTH 14 0
BBX 14 14 0 -2
BITMAP
0000
0410
0408
05A0
3E10
0800
0800
0BC0
0C20
0810
0010
0060
0380
0000
ENDCHAR

STARTCHAR Ca4c3
ENCODING 42179
SWIDTH 1000 0
DWIDTH 14 0
BBX 14 14 0 -2
BITMAP
0000
0000
0000
0000
0000
0000
03C0
1C20
0020
0020
00C0
0700
0000
0000
ENDCHAR

STARTCHAR Ca4c4
ENCODING 42180
SWIDTH 1000 0
DWIDTH 14 0
BBX 14 14 0 -2
BITMAP
0000
0000
0000
0000
03C0
3C20
0010
0010
0010
0020
00C0
0700
0000
0000
ENDCHAR

STARTCHAR Ca4c5
ENCODING 42181
SWIDTH 1000 0
DWIDTH 14 0
BBX 14 14 0 -2
BITMAP
0000
0050
0028
0000
03C0
3C20
0010
0010
0010
0020
00C0
0700
0000
0000
ENDCHAR

STARTCHAR Ca4c6
ENCODING 42182
SWIDTH 1000 0
DWIDTH 14 0
BBX 14 14 0 -2
BITMAP
0000
0000
0000
03F0
3C80
0100
0200
0200
0400
0400
0400
0200
01E0
0000
ENDCHAR

STARTCHAR Ca4c7
ENCODING 42183
SWIDTH 1000 0
DWIDTH 14 0
BBX 14 14 0 -2
BITMAP
0000
0000
0000
03F0
3C80
0110
0248
0220
0400
0400
0400
0200
01E0
0000
ENDCHAR

STARTCHAR Ca4c8
ENCODING 42184
SWIDTH 1000 0
DWIDTH 14 0
BBX 14 14 0 -2
BITMAP
0000
0000
0800
0800
0420
04C0
0300
0400
0800
1000
1000
0FE0
0000
0000
ENDCHAR

STARTCHAR Ca4c9
ENCODING 42185
SWIDTH 1000 0
DWIDTH 14 0
BBX 14 14 0 -2
BITMAP
0000
0050
0828
0800
0420
04C0
0300
0400
0800
1000
1000
0FE0
0000
0000
ENDCHAR

STARTCHAR Ca4ca
ENCODING 42186
SWIDTH 1000 0
DWIDTH 14 0
BBX 14 14 0 -2
BITMAP
0000
0400
0400
07A0
3C10
0808
0840
1040
1040
23C0
0470
0248
0180
0000
ENDCHAR

STARTCHAR Ca4cb
ENCODING 42187
SWIDTH 1000 0
DWIDTH 14 0
BBX 14 14 0 -2
BITMAP
0000
0000
0800
0800
09F0
1000
1000
1000
1000
1000
1200
09F8
0800
0000
ENDCHAR

STARTCHAR Ca4cc
ENCODING 42188
SWIDTH 1000 0
DWIDTH 14 0
BBX 14 14 0 -2
BITMAP
0000
0000
0080
1080
13E0
0C90
0888
1508
2508
2268
2490
1868
0000
0000
ENDCHAR

STARTCHAR Ca4cd
ENCODING 42189
SWIDTH 1000 0
DWIDTH 14 0
BBX 14 14 0 -2
BITMAP
0000
0000
0400
0400
0660
1D90
0608
0408
0C08
14E8
2510
04E8
0400
0000
ENDCHAR

STARTCHAR Ca4ce
ENCODING 42190
SWIDTH 1000 0
DWIDTH 14 0
BBX 14 14 0 -2
BITMAP
0000
0000
0000
03E0
0D10
1108
1108
2108
2208
2208
2408
1830
00C0
0000
ENDCHAR

STARTCHAR Ca4cf
ENCODING 42191
SWIDTH 1000 0
DWIDTH 14 0
BBX 14 14 0 -2
BITMAP
0000
0000
1040
1040
1078
27C0
2040
2040
2040
23C0
2470
1248
1180
0000
ENDCHAR

STARTCHAR Ca4d0
ENCODING 42192
SWIDTH 1000 0
DWIDTH 14 0
BBX 14 14 0 -2
BITMAP
0000
0010
1048
1050
1048
27F0
2040
2040
2040
23C0
2470
1248
1180
0000
ENDCHAR

STARTCHAR Ca4d1
ENCODING 42193
SWIDTH 1000 0
DWIDTH 14 0
BBX 14 14 0 -2
BITMAP
0000
0010
1068
1050
1040
27F8
2040
2040
2040
23C0
2470
1248
1180
0000
ENDCHAR

STARTCHAR Ca4d2
ENCODING 42194
SWIDTH 1000 0
DWIDTH 14 0
BBX 14 14 0 -2
BITMAP
0000
0000
0040
0C40
7440
0820
1020
1050
2048
2040
2040
1080
0F00
0000
ENDCHAR

STARTCHAR Ca4d3
ENCODING 42195
SWIDTH 1000 0
DWIDTH 14 0
BBX 14 14 0 -2
BITMAP
0000
0050
0028
0C40
7440
0820
1020
1050
2048
2040
2040
1080
0F00
0000
ENDCHAR

STARTCHAR Ca4d4
ENCODING 42196
SWIDTH 1000 0
DWIDTH 14 0
BBX 14 14 0 -2
BITMAP
0000
0010
0028
0C50
7440
0820
1020
1050
2048
2040
2040
1080
0F00
0000
ENDCHAR

STARTCHAR Ca4d5
ENCODING 42197
SWIDTH 1000 0
DWIDTH 14 0
BBX 14 14 0 -2
BITMAP
0000
0000
0600
0100
0280
0400
0400
0220
1110
1088
2088
4880
0700
0000
ENDCHAR

STARTCHAR Ca4d6
ENCODING 42198
SWIDTH 1000 0
DWIDTH 14 0
BBX 14 14 0 -2
BITMAP
0000
0010
0608
0120
0290
0400
0400
0220
1110
1088
2088
4880
0700
0000
ENDCHAR

STARTCHAR Ca4d7
ENCODING 42199
SWIDTH 1000 0
DWIDTH 14 0
BBX 14 14 0 -2
BITMAP
0000
0010
0628
0110
0280
0400
0400
0220
1110
1088
2088
4880
0700
0000
ENDCHAR

STARTCHAR Ca4d8
ENCODING 42200
SWIDTH 1000 0
DWIDTH 14 0
BBX 14 14 0 -2
BITMAP
0000
0000
0000
0000
0600
0900
1080
6040
0020
0010
0008
0000
0000
0000
ENDCHAR

STARTCHAR Ca4d9
ENCODING 42201
SWIDTH 1000 0
DWIDTH 14 0
BBX 14 14 0 -2
BITMAP
0000
0020
0010
0040
0620
0900
1080
6040
0020
0010
0008
0000
0000
0000
ENDCHAR

STARTCHAR Ca4da
ENCODING 42202
SWIDTH 1000 0
DWIDTH 14 0
BBX 14 14 0 -2
BITMAP
0000
0000
0020
0050
0620
0900
1080
6040
0020
0010
0008
0000
0000
0000
ENDCHAR

STARTCHAR Ca4db
ENCODING 42203
SWIDTH 1000 0
DWIDTH 14 0
BBX 14 14 0 -2
BITMAP
0000
0000
1000
13F0
1040
2040
27F0
2040
2040
23C0
2470
1248
1180
0000
ENDCHAR

STARTCHAR Ca4dc
ENCODING 42204
SWIDTH 1000 0
DWIDTH 14 0
BBX 14 14 0 -2
BITMAP
0000
0050
1028
13F0
1040
2040
27F0
2040
2040
23C0
2470
1248
1180
0000
ENDCHAR

STARTCHAR Ca4dd
ENCODING 42205
SWIDTH 1000 0
DWIDTH 14 0
BBX 14 14 0 -2
BITMAP
0000
0010
1028
13F0
1040
2040
27F0
2040
2040
23C0
2470
1248
1180
0000
ENDCHAR

STARTCHAR Ca4de
ENCODING 42206
SWIDTH 1000 0
DWIDTH 14 0
BBX 14 14 0 -2
BITMAP
0000
0000
0100
0100
1FF0
0100
0100
0FE0
0100
0100
0F80
1160
0E10
0000
ENDCHAR

STARTCHAR Ca4df
ENCODING 42207
SWIDTH 1000 0
DWIDTH 14 0
BBX 14 14 0 -2
BITMAP
0000
0000
0000
1F00
0100
0120
0220
0FA0
1260
2450
2848
1080
0100
0000
ENDCHAR

STARTCHAR Ca4e0
ENCODING 42208
SWIDTH 1000 0
DWIDTH 14 0
BBX 14 14 0 -2
BITMAP
0000
0000
0400
0420
0710
3C08
0408
1C00
2420
2420
1820
1020
0FC0
0000
ENDCHAR

STARTCHAR Ca4e1
ENCODING 42209
SWIDTH 1000 0
DWIDTH 14 0
BBX 14 14 0 -2
BITMAP
0000
0000
0100
1100
17C0
1920
1110
2A10
4A10
4410
4810
3060
0380
0000
ENDCHAR

STARTCHAR Ca4e2
ENCODING 42210
SWIDTH 1000 0
DWIDTH 14 0
BBX 14 14 0 -2
BITMAP
0000
0200
0200
0200
3F80
0400
0400
1F90
0410
0410
0410
0220
01C0
0000
ENDCHAR

STARTCHAR Ca4e3
ENCODING 42211
SWIDTH 1000 0
DWIDTH 14 0
BBX 14 14 0 -2
BITMAP
0000
0000
0000
0000
0100
0880
0BE0
0C10
3410
02E0
0200
0100
0100
0000
ENDCHAR

STARTCHAR Ca4e4
ENCODING 42212
SWIDTH 1000 0
DWIDTH 14 0
BBX 14 14 0 -2
BITMAP
0000
0000
0100
1080
13E0
0C10
7408
0408
02F0
0200
0200
0100
0100
0000
ENDCHAR

STARTCHAR Ca4e5
ENCODING 42213
SWIDTH 1000 0
DWIDTH 14 0
BBX 14 14 0 -2
BITMAP
0000
0000
0000
0000
0100
1100
13C0
1520
1920
1120
13C0
0100
0200
0000
ENDCHAR

STARTCHAR Ca4e6
ENCODING 42214
SWIDTH 1000 0
DWIDTH 14 0
BBX 14 14 0 -2
BITMAP
0000
0000
0080
1080
11E0
2290
2488
2888
2888
1290
11E0
0080
0300
0000
ENDCHAR

STARTCHAR Ca4e7
ENCODING 42215
SWIDTH 1000 0
DWIDTH 14 0
BBX 14 14 0 -2
BITMAP
0000
0000
0000
0000
0100
0100
01E0
0100
0100
0100
0F00
11C0
0E20
0000
ENDCHAR

STARTCHAR Ca4e8
ENCODING 42216
SWIDTH 1000 0
DWIDTH 14 0
BBX 14 14 0 -2
BITMAP
0000
0000
0100
0100
0100
01F0
0100
0100
0100
1F00
2180
1160
0E10
0000
ENDCHAR

STARTCHAR Ca4e9
ENCODING 42217
SWIDTH 1000 0
DWIDTH 14 0
BBX 14 14 0 -2
BITMAP
0000
0000
0600
0180
0000
0800
0800
11C0
1620
1810
1010
0060
0780
0000
ENDCHAR

STARTCHAR Ca4ea
ENCODING 42218
SWIDTH 1000 0
DWIDTH 14 0
BBX 14 14 0 -2
BITMAP
0000
0000
0040
0840
0840
1040
1040
1440
0840
0880
0080
0100
0600
0000
ENDCHAR

STARTCHAR Ca4eb
ENCODING 42219
SWIDTH 1000 0
DWIDTH 14 0
BBX 14 14 0 -2
BITMAP
0000
0000
03C0
1C80
0100
0200
05C0
0E20
1010
2010
0610
0960
0780
0000
ENDCHAR

STARTCHAR Ca4ec
ENCODING 42220
SWIDTH 1000 0
DWIDTH 14 0
BBX 14 14 0 -2
BITMAP
0000
0000
0800
0800
0CC0
3920
0A20
0C20
0820
1828
2828
0810
0800
0000
ENDCHAR

STARTCHAR Ca4ed
ENCODING 42221
SWIDTH 1000 0
DWIDTH 14 0
BBX 14 14 0 -2
BITMAP
0000
0000
03C0
1C80
0100
0200
05C0
0E20
1010
2010
0010
0060
0780
0000
ENDCHAR

STARTCHAR Ca4ee
ENCODING 42222
SWIDTH 1000 0
DWIDTH 14 0
BBX 14 14 0 -2
BITMAP
0000
0000
0000
0000
0400
0400
1DC0
0620
0410
0C10
1410
0420
04C0
0000
ENDCHAR

STARTCHAR Ca4ef
ENCODING 42223
SWIDTH 1000 0
DWIDTH 14 0
BBX 14 14 0 -2
BITMAP
0000
0000
0800
0800
0C00
39C0
0E20
0810
1810
2810
4820
09C0
0800
0000
ENDCHAR

STARTCHAR Ca4f0
ENCODING 42224
SWIDTH 1000 0
DWIDTH 14 0
BBX 14 14 0 -2
BITMAP
0000
0000
1E00
0200
0200
03C0
0E20
1210
2410
4410
49D0
3220
01C0
0000
ENDCHAR

STARTCHAR Ca4f1
ENCODING 42225
SWIDTH 1000 0
DWIDTH 14 0
BBX 14 14 0 -2
BITMAP
0000
1F00
0200
0400
0F80
1040
2640
0940
0780
0800
18C0
2520
4210
0000
ENDCHAR

STARTCHAR Ca4f2
ENCODING 42226
SWIDTH 1000 0
DWIDTH 14 0
BBX 14 14 0 -2
BITMAP
0000
0400
0400
0780
3800
0800
0E60
1180
2300
0500
0800
0800
07E0
0000
ENDCHAR

STARTCHAR Ca4f3
ENCODING 42227
SWIDTH 1000 0
DWIDTH 14 0
BBX 14 14 0 -2
BITMAP
0000
0000
0200
0200
0400
0400
0800
0B00
1480
1088
2088
2090
4060
0000
ENDCHAR

STARTCHAR Ca5a1
ENCODING 42401
SWIDTH 1000 0
DWIDTH 14 0
BBX 14 14 0 -2
BITMAP
0000
0000
0000
0000
0000
1FC0
0040
0280
0300
0200
0200
0400
0800
0000
ENDCHAR

STARTCHAR Ca5a2
ENCODING 42402
SWIDTH 1000 0
DWIDTH 14 0
BBX 14 14 0 -2
BITMAP
0000
0000
0000
3FF0
0010
0020
0240
0280
0200
0200
0400
0400
0800
0000
ENDCHAR

STARTCHAR Ca5a3
ENCODING 42403
SWIDTH 1000 0
DWIDTH 14 0
BBX 14 14 0 -2
BITMAP
0000
0000
0000
0000
0040
0040
0080
0100
0700
1900
0100
0100
0100
0000
ENDCHAR

STARTCHAR Ca5a4
ENCODING 42404
SWIDTH 1000 0
DWIDTH 14 0
BBX 14 14 0 -2
BITMAP
0000
0000
0020
0020
0040
0080
0300
0D00
3100
0100
0100
0100
0100
0000
ENDCHAR

STARTCHAR Ca5a5
ENCODING 42405
SWIDTH 1000 0
DWIDTH 14 0
BBX 14 14 0 -2
BITMAP
0000
0000
0000
0000
0200
0200
1FC0
1040
1040
1040
0080
0100
0600
0000
ENDCHAR

STARTCHAR Ca5a6
ENCODING 42406
SWIDTH 1000 0
DWIDTH 14 0
BBX 14 14 0 -2
BITMAP
0000
0000
0100
0100
1FF0
1010
1010
1010
1020
0020
0040
0180
0600
0000
ENDCHAR

STARTCHAR Ca5a7
ENCODING 42407
SWIDTH 1000 0
DWIDTH 14 0
BBX 14 14 0 -2
BITMAP
0000
0000
0000
0000
0000
0000
1FC0
0200
0200
0200
0200
3FE0
0000
0000
ENDCHAR

STARTCHAR Ca5a8
ENCODING 42408
SWIDTH 1000 0
DWIDTH 14 0
BBX 14 14 0 -2
BITMAP
0000
0000
0000
0000
1FE0
0200
0200
0200
0200
0200
0200
3FF0
0000
0000
ENDCHAR

STARTCHAR Ca5a9
ENCODING 42409
SWIDTH 1000 0
DWIDTH 14 0
BBX 14 14 0 -2
BITMAP
0000
0000
0000
0000
0080
0080
1FE0
0280
0280
0480
0880
1080
0380
0000
ENDCHAR

STARTCHAR Ca5aa
ENCODING 42410
SWIDTH 1000 0
DWIDTH 14 0
BBX 14 14 0 -2
BITMAP
0000
0000
0080
0080
0080
3FF0
0280
0480
0480
0880
1080
2080
0380
0000
ENDCHAR

STARTCHAR Ca5ab
ENCODING 42411
SWIDTH 1000 0
DWIDTH 14 0
BBX 14 14 0 -2
BITMAP
0000
0000
0200
0200
0200
3FE0
0220
0420
0420
0820
0840
1140
2080
0000
ENDCHAR

STARTCHAR Ca5ac
ENCODING 42412
SWIDTH 1000 0
DWIDTH 14 0
BBX 14 14 0 -2
BITMAP
0000
0000
0210
0248
0220
3FE0
0220
0420
0420
0820
0840
1140
2080
0000
ENDCHAR

STARTCHAR Ca5ad
ENCODING 42413
SWIDTH 1000 0
DWIDTH 14 0
BBX 14 14 0 -2
BITMAP
0000
0000
0200
0200
03E0
1E00
0100
0100
01F0
3F00
0080
0080
0080
0000
ENDCHAR

STARTCHAR Ca5ae
ENCODING 42414
SWIDTH 1000 0
DWIDTH 14 0
BBX 14 14 0 -2
BITMAP
0000
0010
0248
0220
03E0
1E00
0100
0100
01F0
3F00
0080
0080
0080
0000
ENDCHAR

STARTCHAR Ca5af
ENCODING 42415
SWIDTH 1000 0
DWIDTH 14 0
BBX 14 14 0 -2
BITMAP
0000
0000
0200
0200
07E0
0420
0820
1040
0040
0080
0100
0600
1800
0000
ENDCHAR

STARTCHAR Ca5b0
ENCODING 42416
SWIDTH 1000 0
DWIDTH 14 0
BBX 14 14 0 -2
BITMAP
0000
0010
0248
0220
07E0
0420
0820
1040
0040
0080
0100
0600
1800
0000
ENDCHAR

STARTCHAR Ca5b1
ENCODING 42417
SWIDTH 1000 0
DWIDTH 14 0
BBX 14 14 0 -2
BITMAP
0000
0000
0800
0800
0800
1FF0
1080
2080
4080
0100
0100
0200
0C00
0000
ENDCHAR

STARTCHAR Ca5b2
ENCODING 42418
SWIDTH 1000 0
DWIDTH 14 0
BBX 14 14 0 -2
BITMAP
0000
0010
0848
0820
0800
1FF0
1080
2080
4080
0100
0100
0200
0C00
0000
ENDCHAR

STARTCHAR Ca5b3
ENCODING 42419
SWIDTH 1000 0
DWIDTH 14 0
BBX 14 14 0 -2
BITMAP
0000
0000
0000
0000
3FE0
0020
0020
0020
0020
0020
0020
3FE0
0000
0000
ENDCHAR

STARTCHAR Ca5b4
ENCODING 42420
SWIDTH 1000 0
DWIDTH 14 0
BBX 14 14 0 -2
BITMAP
0000
0010
0048
0020
3FE0
0020
0020
0020
0020
0020
0020
3FE0
0000
0000
ENDCHAR

STARTCHAR Ca5b5
ENCODING 42421
SWIDTH 1000 0
DWIDTH 14 0
BBX 14 14 0 -2
BITMAP
0000
0000
0040
0840
0840
7FF8
0840
0840
0840
0080
0080
0100
0600
0000
ENDCHAR

STARTCHAR Ca5b6
ENCODING 42422
SWIDTH 1000 0
DWIDTH 14 0
BBX 14 14 0 -2
BITMAP
0000
0010
0048
0850
0848
7FF8
0840
0840
0840
0080
0080
0100
0600
0000
ENDCHAR

STARTCHAR Ca5b7
ENCODING 42423
SWIDTH 1000 0
DWIDTH 14 0
BBX 14 14 0 -2
BITMAP
0000
0000
0000
0800
0410
2210
1020
0820
0040
0080
0100
0600
1800
0000
ENDCHAR

STARTCHAR Ca5b8
ENCODING 42424
SWIDTH 1000 0
DWIDTH 14 0
BBX 14 14 0 -2
BITMAP
0000
0010
0048
0820
0400
2210
1010
0820
0040
0080
0100
0600
1800
0000
ENDCHAR

STARTCHAR Ca5b9
ENCODING 42425
SWIDTH 1000 0
DWIDTH 14 0
BBX 14 14 0 -2
BITMAP
0000
0000
0000
1FC0
0040
0040
0080
0080
0100
0280
0440
0820
3010
0000
ENDCHAR

STARTCHAR Ca5ba
ENCODING 42426
SWIDTH 1000 0
DWIDTH 14 0
BBX 14 14 0 -2
BITMAP
0000
0050
0028
1FC0
0040
0040
0080
0080
0100
0280
0440
0820
3010
0000
ENDCHAR

STARTCHAR Ca5bb
ENCODING 42427
SWIDTH 1000 0
DWIDTH 14 0
BBX 14 14 0 -2
BITMAP
0000
0000
0800
0800
0800
7FE0
0820
0840
0880
0800
0800
0800
07E0
0000
ENDCHAR

STARTCHAR Ca5bc
ENCODING 42428
SWIDTH 1000 0
DWIDTH 14 0
BBX 14 14 0 -2
BITMAP
0000
0010
0848
0820
0800
7FE0
0820
0840
0880
0800
0800
0800
07E0
0000
ENDCHAR

STARTCHAR Ca5bd
ENCODING 42429
SWIDTH 1000 0
DWIDTH 14 0
BBX 14 14 0 -2
BITMAP
0000
0000
0000
2020
1020
0820
0820
0040
0040
0080
0100
0600
1800
0000
ENDCHAR

STARTCHAR Ca5be
ENCODING 42430
SWIDTH 1000 0
DWIDTH 14 0
BBX 14 14 0 -2
BITMAP
0000
0090
0048
2000
1020
0820
0820
0040
0040
0080
0100
0600
1800
0000
ENDCHAR

STARTCHAR Ca5bf
ENCODING 42431
SWIDTH 1000 0
DWIDTH 14 0
BBX 14 14 0 -2
BITMAP
0000
0000
0200
0200
07E0
0420
0820
1640
0140
0080
0100
0600
1800
0000
ENDCHAR

STARTCHAR Ca5c0
ENCODING 42432
SWIDTH 1000 0
DWIDTH 14 0
BBX 14 14 0 -2
BITMAP
0000
0010
0248
0220
07E0
0420
0820
1640
0140
0080
0100
0600
1800
0000
ENDCHAR

STARTCHAR Ca5c1
ENCODING 42433
SWIDTH 1000 0
DWIDTH 14 0
BBX 14 14 0 -2
BITMAP
0000
0000
0060
0180
1F00
0100
0100
3FF8
0100
0100
0100
0200
0C00
0000
ENDCHAR

STARTCHAR Ca5c2
ENCODING 42434
SWIDTH 1000 0
DWIDTH 14 0
BBX 14 14 0 -2
BITMAP
0000
0010
0048
01A0
1F00
0100
0100
3FF8
0100
0100
0100
0200
0C00
0000
ENDCHAR

STARTCHAR Ca5c3
ENCODING 42435
SWIDTH 1000 0
DWIDTH 14 0
BBX 14 14 0 -2
BITMAP
0000
0000
0000
0000
0000
0420
1220
0A20
0840
0040
0080
0300
0C00
0000
ENDCHAR

STARTCHAR Ca5c4
ENCODING 42436
SWIDTH 1000 0
DWIDTH 14 0
BBX 14 14 0 -2
BITMAP
0000
0000
0000
0420
2220
1220
1020
0040
0040
0080
0100
0600
1800
0000
ENDCHAR

STARTCHAR Ca5c5
ENCODING 42437
SWIDTH 1000 0
DWIDTH 14 0
BBX 14 14 0 -2
BITMAP
0000
0090
0048
0400
2220
1220
1020
0040
0040
0080
0100
0600
1800
0000
ENDCHAR

STARTCHAR Ca5c6
ENCODING 42438
SWIDTH 1000 0
DWIDTH 14 0
BBX 14 14 0 -2
BITMAP
0000
0000
0FC0
0000
0000
0000
3FF0
0100
0100
0100
0200
0400
1800
0000
ENDCHAR

STARTCHAR Ca5c7
ENCODING 42439
SWIDTH 1000 0
DWIDTH 14 0
BBX 14 14 0 -2
BITMAP
0000
0010
0F88
0020
0010
0000
3FF0
0100
0100
0100
0200
0400
1800
0000
ENDCHAR

STARTCHAR Ca5c8
ENCODING 42440
SWIDTH 1000 0
DWIDTH 14 0
BBX 14 14 0 -2
BITMAP
0000
0000
0400
0400
0400
0400
0700
04C0
0420
0400
0400
0400
0400
0000
ENDCHAR

STARTCHAR Ca5c9
ENCODING 42441
SWIDTH 1000 0
DWIDTH 14 0
BBX 14 14 0 -2
BITMAP
0000
0020
0410
0440
0420
0400
0700
04C0
0420
0400
0400
0400
0400
0000
ENDCHAR

STARTCHAR Ca5ca
ENCODING 42442
SWIDTH 1000 0
DWIDTH 14 0
BBX 14 14 0 -2
BITMAP
0000
0000
0100
0100
0100
3FF0
0100
0100
0100
0200
0200
0400
1800
0000
ENDCHAR

STARTCHAR Ca5cb
ENCODING 42443
SWIDTH 1000 0
DWIDTH 14 0
BBX 14 14 0 -2
BITMAP
0000
0000
0000
0000
0FE0
0000
0000
0000
0000
0000
3FF8
0000
0000
0000
ENDCHAR

STARTCHAR Ca5cc
ENCODING 42444
SWIDTH 1000 0
DWIDTH 14 0
BBX 14 14 0 -2
BITMAP
0000
0000
0000
1FE0
0020
0020
0C40
0340
0080
0140
0220
0C00
3000
0000
ENDCHAR

STARTCHAR Ca5cd
ENCODING 42445
SWIDTH 1000 0
DWIDTH 14 0
BBX 14 14 0 -2
BITMAP
0000
0300
0080
0000
1FE0
0040
0080
0100
0360
0D10
3108
0100
0100
0000
ENDCHAR

STARTCHAR Ca5ce
ENCODING 42446
SWIDTH 1000 0
DWIDTH 14 0
BBX 14 14 0 -2
BITMAP
0000
0000
0040
0040
0040
0040
0080
0080
0100
0200
0400
1800
0000
0000
ENDCHAR

STARTCHAR Ca5cf
ENCODING 42447
SWIDTH 1000 0
DWIDTH 14 0
BBX 14 14 0 -2
BITMAP
0000
0000
0000
0000
0040
0820
0820
0810
1010
1008
2008
4008
0000
0000
ENDCHAR

STARTCHAR Ca5d0
ENCODING 42448
SWIDTH 1000 0
DWIDTH 14 0
BBX 14 14 0 -2
BITMAP
0000
0010
0048
0020
0040
0820
0820
0810
1010
1008
2008
4008
0000
0000
ENDCHAR

STARTCHAR Ca5d1
ENCODING 42449
SWIDTH 1000 0
DWIDTH 14 0
BBX 14 14 0 -2
BITMAP
0000
0010
0028
0010
0040
0820
0820
0810
1010
1008
2008
4008
0000
0000
ENDCHAR

STARTCHAR Ca5d2
ENCODING 42450
SWIDTH 1000 0
DWIDTH 14 0
BBX 14 14 0 -2
BITMAP
0000
0000
1000
1000
1000
11C0
1E00
1000
1000
1000
1000
1000
0FE0
0000
ENDCHAR

STARTCHAR Ca5d3
ENCODING 42451
SWIDTH 1000 0
DWIDTH 14 0
BBX 14 14 0 -2
BITMAP
0000
0010
1048
1020
1000
11C0
1E00
1000
1000
1000
1000
1000
0FE0
0000
ENDCHAR

STARTCHAR Ca5d4
ENCODING 42452
SWIDTH 1000 0
DWIDTH 14 0
BBX 14 14 0 -2
BITMAP
0000
0020
1050
1020
1000
11C0
1E00
1000
1000
1000
1000
1000
0FE0
0000
ENDCHAR

STARTCHAR Ca5d5
ENCODING 42453
SWIDTH 1000 0
DWIDTH 14 0
BBX 14 14 0 -2
BITMAP
0000
0000
0000
3FE0
0020
0020
0040
0040
0080
0080
0100
0600
1800
0000
ENDCHAR

STARTCHAR Ca5d6
ENCODING 42454
SWIDTH 1000 0
DWIDTH 14 0
BBX 14 14 0 -2
BITMAP
0000
0050
0028
3FE0
0020
0020
0040
0040
0080
0080
0100
0600
1800
0000
ENDCHAR

STARTCHAR Ca5d7
ENCODING 42455
SWIDTH 1000 0
DWIDTH 14 0
BBX 14 14 0 -2
BITMAP
0000
0010
0028
3FF0
0020
0020
0040
0040
0080
0080
0100
0600
1800
0000
ENDCHAR

STARTCHAR Ca5d8
ENCODING 42456
SWIDTH 1000 0
DWIDTH 14 0
BBX 14 14 0 -2
BITMAP
0000
0000
0000
0000
0200
0500
0880
1040
2020
0010
0008
0000
0000
0000
ENDCHAR

STARTCHAR Ca5d9
ENCODING 42457
SWIDTH 1000 0
DWIDTH 14 0
BBX 14 14 0 -2
BITMAP
0000
0000
0020
0090
0240
0500
0880
1040
2020
0010
0008
0000
0000
0000
ENDCHAR

STARTCHAR Ca5da
ENCODING 42458
SWIDTH 1000 0
DWIDTH 14 0
BBX 14 14 0 -2
BITMAP
0000
0000
0020
0050
0220
0500
0880
1040
2020
0010
0008
0000
0000
0000
ENDCHAR

STARTCHAR Ca5db
ENCODING 42459
SWIDTH 1000 0
DWIDTH 14 0
BBX 14 14 0 -2
BITMAP
0000
0000
0100
0100
3FF8
0100
0100
0920
0910
1110
1108
2108
0100
0000
ENDCHAR

STARTCHAR Ca5dc
ENCODING 42460
SWIDTH 1000 0
DWIDTH 14 0
BBX 14 14 0 -2
BITMAP
0000
0010
0148
0120
3FF8
0100
0100
0920
0910
1110
1108
2108
0100
0000
ENDCHAR

STARTCHAR Ca5dd
ENCODING 42461
SWIDTH 1000 0
DWIDTH 14 0
BBX 14 14 0 -2
BITMAP
0000
0010
0128
0110
3FF8
0100
0100
0920
0910
1110
1108
2108
0100
0000
ENDCHAR

STARTCHAR Ca5de
ENCODING 42462
SWIDTH 1000 0
DWIDTH 14 0
BBX 14 14 0 -2
BITMAP
0000
0000
0000
3FF0
0010
0020
0040
0C80
0300
0100
0080
0040
0000
0000
ENDCHAR

STARTCHAR Ca5df
ENCODING 42463
SWIDTH 1000 0
DWIDTH 14 0
BBX 14 14 0 -2
BITMAP
0000
0000
0600
0180
0040
0000
0600
0180
0040
0000
0E00
0180
0060
0000
ENDCHAR

STARTCHAR Ca5e0
ENCODING 42464
SWIDTH 1000 0
DWIDTH 14 0
BBX 14 14 0 -2
BITMAP
0000
0000
0100
0100
0200
0200
0200
0440
0420
0810
08F0
3F08
0008
0000
ENDCHAR

STARTCHAR Ca5e1
ENCODING 42465
SWIDTH 1000 0
DWIDTH 14 0
BBX 14 14 0 -2
BITMAP
0000
0000
0020
0020
0020
0C40
0240
0140
0080
0140
0220
0C10
3000
0000
ENDCHAR

STARTCHAR Ca5e2
ENCODING 42466
SWIDTH 1000 0
DWIDTH 14 0
BBX 14 14 0 -2
BITMAP
0000
0000
0000
1FC0
0200
0200
0200
3FF0
0200
0200
0200
0200
01F0
0000
ENDCHAR

STARTCHAR Ca5e3
ENCODING 42467
SWIDTH 1000 0
DWIDTH 14 0
BBX 14 14 0 -2
BITMAP
0000
0000
0000
0000
0400
0400
03E0
1E20
0240
0200
0100
0100
0100
0000
ENDCHAR

STARTCHAR Ca5e4
ENCODING 42468
SWIDTH 1000 0
DWIDTH 14 0
BBX 14 14 0 -2
BITMAP
0000
0000
0400
0400
07F0
7C10
0220
0240
0280
0200
0100
0100
0100
0000
ENDCHAR

STARTCHAR Ca5e5
ENCODING 42469
SWIDTH 1000 0
DWIDTH 14 0
BBX 14 14 0 -2
BITMAP
0000
0000
0000
0000
0000
0000
0F80
0080
0080
0080
0080
1FE0
0000
0000
ENDCHAR

STARTCHAR Ca5e6
ENCODING 42470
SWIDTH 1000 0
DWIDTH 14 0
BBX 14 14 0 -2
BITMAP
0000
0000
0000
0000
1FC0
0040
0040
0040
0040
0040
0040
3FF8
0000
0000
ENDCHAR

STARTCHAR Ca5e7
ENCODING 42471
SWIDTH 1000 0
DWIDTH 14 0
BBX 14 14 0 -2
BITMAP
0000
0000
0000
0000
0000
0FC0
0040
0040
0FC0
0040
0040
0FC0
0000
0000
ENDCHAR

STARTCHAR Ca5e8
ENCODING 42472
SWIDTH 1000 0
DWIDTH 14 0
BBX 14 14 0 -2
BITMAP
0000
0000
0000
1FE0
0020
0020
0020
0FE0
0020
0020
0020
1FE0
0000
0000
ENDCHAR

STARTCHAR Ca5e9
ENCODING 42473
SWIDTH 1000 0
DWIDTH 14 0
BBX 14 14 0 -2
BITMAP
0000
0000
1FC0
0000
0000
3FE0
0020
0020
0040
0040
0080
0300
0C00
0000
ENDCHAR

STARTCHAR Ca5ea
ENCODING 42474
SWIDTH 1000 0
DWIDTH 14 0
BBX 14 14 0 -2
BITMAP
0000
0000
0040
0840
0840
0840
0840
0840
0840
0080
0080
0100
0600
0000
ENDCHAR

STARTCHAR Ca5eb
ENCODING 42475
SWIDTH 1000 0
DWIDTH 14 0
BBX 14 14 0 -2
BITMAP
0000
0000
0100
0900
0900
0900
0900
0908
0908
1110
1120
21C0
4100
0000
ENDCHAR

STARTCHAR Ca5ec
ENCODING 42476
SWIDTH 1000 0
DWIDTH 14 0
BBX 14 14 0 -2
BITMAP
0000
0000
0000
1000
1000
1000
1020
1020
1040
1080
1100
1600
1800
0000
ENDCHAR

STARTCHAR Ca5ed
ENCODING 42477
SWIDTH 1000 0
DWIDTH 14 0
BBX 14 14 0 -2
BITMAP
0000
0000
0000
0000
3FE0
2020
2020
2020
2020
2020
2020
3FE0
0000
0000
ENDCHAR

STARTCHAR Ca5ee
ENCODING 42478
SWIDTH 1000 0
DWIDTH 14 0
BBX 14 14 0 -2
BITMAP
0000
0000
0000
0000
0000
1FC0
1040
1040
1040
0080
0080
0100
0600
0000
ENDCHAR

STARTCHAR Ca5ef
ENCODING 42479
SWIDTH 1000 0
DWIDTH 14 0
BBX 14 14 0 -2
BITMAP
0000
0000
0000
3FE0
2020
2020
2020
2020
0040
0040
0080
0300
0C00
0000
ENDCHAR

STARTCHAR Ca5f0
ENCODING 42480
SWIDTH 1000 0
DWIDTH 14 0
BBX 14 14 0 -2
BITMAP
0000
0000
0100
0100
0100
3FE0
0900
0900
0900
7FF0
0100
0100
0100
0000
ENDCHAR

STARTCHAR Ca5f1
ENCODING 42481
SWIDTH 1000 0
DWIDTH 14 0
BBX 14 14 0 -2
BITMAP
0000
0000
0000
0000
3FC0
0040
0080
0500
0600
0400
0400
7FF0
0000
0000
ENDCHAR

STARTCHAR Ca5f2
ENCODING 42482
SWIDTH 1000 0
DWIDTH 14 0
BBX 14 14 0 -2
BITMAP
0000
0000
0000
3FE0
0020
0020
1FE0
0020
0040
0040
0080
0300
0C00
0000
ENDCHAR

STARTCHAR Ca5f3
ENCODING 42483
SWIDTH 1000 0
DWIDTH 14 0
BBX 14 14 0 -2
BITMAP
0000
0000
0000
2000
1000
0810
0010
0020
0040
0080
0100
0600
3800
0000
ENDCHAR

STARTCHAR Ca5f4
ENCODING 42484
SWIDTH 1000 0
DWIDTH 14 0
BBX 14 14 0 -2
BITMAP
0000
0010
0248
0220
3FE0
2020
2020
2020
2040
0040
0080
0300
0C00
0000
ENDCHAR

STARTCHAR Ca5f5
ENCODING 42485
SWIDTH 1000 0
DWIDTH 14 0
BBX 14 14 0 -2
BITMAP
0000
0000
0000
0000
0200
0200
1FC0
0440
0440
0840
0880
1280
2100
0000
ENDCHAR

STARTCHAR Ca5f6
ENCODING 42486
SWIDTH 1000 0
DWIDTH 14 0
BBX 14 14 0 -2
BITMAP
0000
0000
0000
0000
0800
0800
0FE0
1100
2100
0100
0100
0200
0C00
0000
ENDCHAR

STARTCHAR Ca6a1
ENCODING 42657
SWIDTH 1000 0
DWIDTH 14 0
BBX 14 14 0 -2
BITMAP
0000
0000
0200
0200
0500
0500
0880
0880
1FC0
1040
2020
2020
0000
0000
ENDCHAR

STARTCHAR Ca6a2
ENCODING 42658
SWIDTH 1000 0
DWIDTH 14 0
BBX 14 14 0 -2
BITMAP
0000
0000
1F80
1040
1040
1040
1F80
1040
1020
1020
1020
1FC0
0000
0000
ENDCHAR

STARTCHAR Ca6a3
ENCODING 42659
SWIDTH 1000 0
DWIDTH 14 0
BBX 14 14 0 -2
BITMAP
0000
0000
1FE0
1000
1000
1000
1000
1000
1000
1000
1000
1000
0000
0000
ENDCHAR

STARTCHAR Ca6a4
ENCODING 42660
SWIDTH 1000 0
DWIDTH 14 0
BBX 14 14 0 -2
BITMAP
0000
0000
0200
0200
0500
0500
0880
0880
1040
1040
2020
3FE0
0000
0000
ENDCHAR

STARTCHAR Ca6a5
ENCODING 42661
SWIDTH 1000 0
DWIDTH 14 0
BBX 14 14 0 -2
BITMAP
0000
0000
1FE0
1000
1000
1000
1FC0
1000
1000
1000
1000
1FE0
0000
0000
ENDCHAR

STARTCHAR Ca6a6
ENCODING 42662
SWIDTH 1000 0
DWIDTH 14 0
BBX 14 14 0 -2
BITMAP
0000
0000
1FE0
0040
0080
0100
0200
0200
0400
0800
1000
3FE0
0000
0000
ENDCHAR

STARTCHAR Ca6a7
ENCODING 42663
SWIDTH 1000 0
DWIDTH 14 0
BBX 14 14 0 -2
BITMAP
0000
0000
1020
1020
1020
1020
1FE0
1020
1020
1020
1020
1020
0000
0000
ENDCHAR

STARTCHAR Ca6a8
ENCODING 42664
SWIDTH 1000 0
DWIDTH 14 0
BBX 14 14 0 -2
BITMAP
0000
0000
0780
0840
1020
2010
2790
2010
2010
1020
0840
0780
0000
0000
ENDCHAR

STARTCHAR Ca6a9
ENCODING 42665
SWIDTH 1000 0
DWIDTH 14 0
BBX 14 14 0 -2
BITMAP
0000
0000
0200
0200
0200
0200
0200
0200
0200
0200
0200
0200
0000
0000
ENDCHAR

STARTCHAR Ca6aa
ENCODING 42666
SWIDTH 1000 0
DWIDTH 14 0
BBX 14 14 0 -2
BITMAP
0000
0000
1040
1080
1100
1200
1400
1A00
1100
1080
1040
1020
0000
0000
ENDCHAR

STARTCHAR Ca6ab
ENCODING 42667
SWIDTH 1000 0
DWIDTH 14 0
BBX 14 14 0 -2
BITMAP
0000
0000
0200
0200
0500
0500
0880
0880
1040
1040
2020
2020
0000
0000
ENDCHAR

STARTCHAR Ca6ac
ENCODING 42668
SWIDTH 1000 0
DWIDTH 14 0
BBX 14 14 0 -2
BITMAP
0000
0000
3060
28A0
28A0
28A0
2520
2520
2520
2220
2220
2020
0000
0000
ENDCHAR

STARTCHAR Ca6ad
ENCODING 42669
SWIDTH 1000 0
DWIDTH 14 0
BBX 14 14 0 -2
BITMAP
0000
0000
1820
1420
1420
1220
1120
1120
10A0
10A0
1060
1020
0000
0000
ENDCHAR

STARTCHAR Ca6ae
ENCODING 42670
SWIDTH 1000 0
DWIDTH 14 0
BBX 14 14 0 -2
BITMAP
0000
0000
1FE0
0000
0000
0000
0FC0
0000
0000
0000
0000
1FE0
0000
0000
ENDCHAR

STARTCHAR Ca6af
ENCODING 42671
SWIDTH 1000 0
DWIDTH 14 0
BBX 14 14 0 -2
BITMAP
0000
0000
0780
0840
1020
2010
2010
2010
2010
1020
0840
0780
0000
0000
ENDCHAR

STARTCHAR Ca6b0
ENCODING 42672
SWIDTH 1000 0
DWIDTH 14 0
BBX 14 14 0 -2
BITMAP
0000
0000
1FE0
1020
1020
1020
1020
1020
1020
1020
1020
1020
0000
0000
ENDCHAR

STARTCHAR Ca6b1
ENCODING 42673
SWIDTH 1000 0
DWIDTH 14 0
BBX 14 14 0 -2
BITMAP
0000
0000
0F80
0840
0820
0820
0840
0F80
0800
0800
0800
0800
0000
0000
ENDCHAR

STARTCHAR Ca6b2
ENCODING 42674
SWIDTH 1000 0
DWIDTH 14 0
BBX 14 14 0 -2
BITMAP
0000
0000
3FE0
1000
0800
0400
0200
0400
0800
1000
2000
3FE0
0000
0000
ENDCHAR

STARTCHAR Ca6b3
ENCODING 42675
SWIDTH 1000 0
DWIDTH 14 0
BBX 14 14 0 -2
BITMAP
0000
0000
3FE0
0200
0200
0200
0200
0200
0200
0200
0200
0200
0000
0000
ENDCHAR

STARTCHAR Ca6b4
ENCODING 42676
SWIDTH 1000 0
DWIDTH 14 0
BBX 14 14 0 -2
BITMAP
0000
0000
2020
1040
1040
0880
0500
0500
0200
0200
0200
0200
0000
0000
ENDCHAR

STARTCHAR Ca6b5
ENCODING 42677
SWIDTH 1000 0
DWIDTH 14 0
BBX 14 14 0 -2
BITMAP
0000
0000
0200
0200
0F80
1240
2220
2220
1240
0F80
0200
0200
0000
0000
ENDCHAR

STARTCHAR Ca6b6
ENCODING 42678
SWIDTH 1000 0
DWIDTH 14 0
BBX 14 14 0 -2
BITMAP
0000
0000
2020
1040
0880
0500
0200
0200
0500
0880
1040
2020
0000
0000
ENDCHAR

STARTCHAR Ca6b7
ENCODING 42679
SWIDTH 1000 0
DWIDTH 14 0
BBX 14 14 0 -2
BITMAP
0000
0000
1240
1240
1240
1240
1240
1240
0A80
0700
0200
0200
0000
0000
ENDCHAR

STARTCHAR Ca6b8
ENCODING 42680
SWIDTH 1000 0
DWIDTH 14 0
BBX 14 14 0 -2
BITMAP
0000
0000
0F80
1040
2020
2020
2020
2020
1040
0D80
0500
3DE0
0000
0000
ENDCHAR

STARTCHAR Ca6b9
ENCODING 42681
SWIDTH 1000 0
DWIDTH 14 0
BBX 14 14 0 -2
BITMAP
0000
0000
0000
0000
0000
0000
0000
0000
0000
0000
0000
0000
0000
0000
ENDCHAR

STARTCHAR Ca6ba
ENCODING 42682
SWIDTH 1000 0
DWIDTH 14 0
BBX 14 14 0 -2
BITMAP
0000
0000
0000
0000
0000
0000
0000
0000
0000
0000
0000
0000
0000
0000
ENDCHAR

STARTCHAR Ca6bb
ENCODING 42683
SWIDTH 1000 0
DWIDTH 14 0
BBX 14 14 0 -2
BITMAP
0000
0000
0000
0000
0000
0000
0000
0000
0000
0000
0000
0000
0000
0000
ENDCHAR

STARTCHAR Ca6bc
ENCODING 42684
SWIDTH 1000 0
DWIDTH 14 0
BBX 14 14 0 -2
BITMAP
0000
0000
0000
0000
0000
0000
0000
0000
0000
0000
0000
0000
0000
0000
ENDCHAR

STARTCHAR Ca6bd
ENCODING 42685
SWIDTH 1000 0
DWIDTH 14 0
BBX 14 14 0 -2
BITMAP
0000
0000
0000
0000
0000
0000
0000
0000
0000
0000
0000
0000
0000
0000
ENDCHAR

STARTCHAR Ca6be
ENCODING 42686
SWIDTH 1000 0
DWIDTH 14 0
BBX 14 14 0 -2
BITMAP
0000
0000
0000
0000
0000
0000
0000
0000
0000
0000
0000
0000
0000
0000
ENDCHAR

STARTCHAR Ca6bf
ENCODING 42687
SWIDTH 1000 0
DWIDTH 14 0
BBX 14 14 0 -2
BITMAP
0000
0000
0000
0000
0000
0000
0000
0000
0000
0000
0000
0000
0000
0000
ENDCHAR

STARTCHAR Ca6c0
ENCODING 42688
SWIDTH 1000 0
DWIDTH 14 0
BBX 14 14 0 -2
BITMAP
0000
0000
0000
0000
0000
0000
0000
0000
0000
0000
0000
0000
0000
0000
ENDCHAR

STARTCHAR Ca6c1
ENCODING 42689
SWIDTH 1000 0
DWIDTH 14 0
BBX 14 14 0 -2
BITMAP
0000
0000
0000
0000
0000
0640
0940
0980
1100
1100
1340
0C80
0000
0000
ENDCHAR

STARTCHAR Ca6c2
ENCODING 42690
SWIDTH 1000 0
DWIDTH 14 0
BBX 14 14 0 -2
BITMAP
0000
0000
01C0
0220
0220
0440
0580
0440
0840
0840
0C80
1300
1000
0000
ENDCHAR

STARTCHAR Ca6c3
ENCODING 42691
SWIDTH 1000 0
DWIDTH 14 0
BBX 14 14 0 -2
BITMAP
0000
0000
0000
0000
0000
0C20
1240
0280
0280
0100
0100
0200
0200
0000
ENDCHAR

STARTCHAR Ca6c4
ENCODING 42692
SWIDTH 1000 0
DWIDTH 14 0
BBX 14 14 0 -2
BITMAP
0000
0000
0380
0440
0200
0100
0300
0480
0880
0880
0900
0600
0000
0000
ENDCHAR

STARTCHAR Ca6c5
ENCODING 42693
SWIDTH 1000 0
DWIDTH 14 0
BBX 14 14 0 -2
BITMAP
0000
0000
0000
0000
0000
0380
0440
0400
0700
0800
0840
0780
0000
0000
ENDCHAR

STARTCHAR Ca6c6
ENCODING 42694
SWIDTH 1000 0
DWIDTH 14 0
BBX 14 14 0 -2
BITMAP
0000
0000
0440
0580
0200
0400
0400
0800
0800
0700
0080
0880
0700
0000
ENDCHAR

STARTCHAR Ca6c7
ENCODING 42695
SWIDTH 1000 0
DWIDTH 14 0
BBX 14 14 0 -2
BITMAP
0000
0000
0000
0000
0000
0D80
1240
0240
0440
0480
0880
0900
0100
0000
ENDCHAR

STARTCHAR Ca6c8
ENCODING 42696
SWIDTH 1000 0
DWIDTH 14 0
BBX 14 14 0 -2
BITMAP
0000
0000
0180
0240
0440
0440
0FC0
0840
0880
0880
0900
0600
0000
0000
ENDCHAR

STARTCHAR Ca6c9
ENCODING 42697
SWIDTH 1000 0
DWIDTH 14 0
BBX 14 14 0 -2
BITMAP
0000
0000
0000
0000
0000
0200
0200
0400
0400
0800
0880
0700
0000
0000
ENDCHAR

STARTCHAR Ca6ca
ENCODING 42698
SWIDTH 1000 0
DWIDTH 14 0
BBX 14 14 0 -2
BITMAP
0000
0000
0000
0000
0000
0460
0480
0900
0E00
0900
1140
1080
0000
0000
ENDCHAR

STARTCHAR Ca6cb
ENCODING 42699
SWIDTH 1000 0
DWIDTH 14 0
BBX 14 14 0 -2
BITMAP
0000
0000
0600
0900
0100
0100
0100
0280
0280
0440
0840
1020
0000
0000
ENDCHAR

STARTCHAR Ca6cc
ENCODING 42700
SWIDTH 1000 0
DWIDTH 14 0
BBX 14 14 0 -2
BITMAP
0000
0000
0000
0000
0000
0440
0440
0440
0880
0880
09A0
1640
1000
0000
ENDCHAR

STARTCHAR Ca6cd
ENCODING 42701
SWIDTH 1000 0
DWIDTH 14 0
BBX 14 14 0 -2
BITMAP
0000
0000
0000
0000
0000
0820
1420
0420
0440
0440
0580
0600
0000
0000
ENDCHAR

STARTCHAR Ca6ce
ENCODING 42702
SWIDTH 1000 0
DWIDTH 14 0
BBX 14 14 0 -2
BITMAP
0000
0200
0200
01C0
0200
0400
0380
0400
0800
0700
0080
0880
0700
0000
ENDCHAR

STARTCHAR Ca6cf
ENCODING 42703
SWIDTH 1000 0
DWIDTH 14 0
BBX 14 14 0 -2
BITMAP
0000
0000
0000
0000
0000
0380
0440
0440
0840
0880
0880
0700
0000
0000
ENDCHAR

STARTCHAR Ca6d0
ENCODING 42704
SWIDTH 1000 0
DWIDTH 14 0
BBX 14 14 0 -2
BITMAP
0000
0000
0000
0000
0020
0FC0
1480
0480
0900
0900
1120
10C0
0000
0000
ENDCHAR

STARTCHAR Ca6d1
ENCODING 42705
SWIDTH 1000 0
DWIDTH 14 0
BBX 14 14 0 -2
BITMAP
0000
0000
0000
0000
0000
0380
0440
0440
0840
0880
1700
1000
1000
0000
ENDCHAR

STARTCHAR Ca6d2
ENCODING 42706
SWIDTH 1000 0
DWIDTH 14 0
BBX 14 14 0 -2
BITMAP
0000
0000
0000
0000
0000
07C0
0900
0880
1080
1100
1100
0E00
0000
0000
ENDCHAR

STARTCHAR Ca6d3
ENCODING 42707
SWIDTH 1000 0
DWIDTH 14 0
BBX 14 14 0 -2
BITMAP
0000
0000
0000
0000
0000
0FE0
1200
0200
0400
0400
0480
0300
0000
0000
ENDCHAR

STARTCHAR Ca6d4
ENCODING 42708
SWIDTH 1000 0
DWIDTH 14 0
BBX 14 14 0 -2
BITMAP
0000
0000
0000
0000
0000
0880
1440
0440
0840
0840
0880
0700
0000
0000
ENDCHAR

STARTCHAR Ca6d5
ENCODING 42709
SWIDTH 1000 0
DWIDTH 14 0
BBX 14 14 0 -2
BITMAP
0000
0000
0080
0080
0380
0540
0920
1120
1240
0A80
0700
0400
0400
0000
ENDCHAR

STARTCHAR Ca6d6
ENCODING 42710
SWIDTH 1000 0
DWIDTH 14 0
BBX 14 14 0 -2
BITMAP
0000
0000
0000
0000
0000
0C20
1240
0280
0100
0300
0500
0920
10C0
0000
ENDCHAR

STARTCHAR Ca6d7
ENCODING 42711
SWIDTH 1000 0
DWIDTH 14 0
BBX 14 14 0 -2
BITMAP
0000
0000
0080
0080
0100
0540
0920
1120
1220
0A40
0780
0400
0400
0000
ENDCHAR

STARTCHAR Ca6d8
ENCODING 42712
SWIDTH 1000 0
DWIDTH 14 0
BBX 14 14 0 -2
BITMAP
0000
0000
0000
0000
0000
0440
0820
1120
1120
1220
1240
0D80
0000
0000
ENDCHAR

STARTCHAR Ca7a1
ENCODING 42913
SWIDTH 1000 0
DWIDTH 14 0
BBX 14 14 0 -2
BITMAP
0000
0000
0200
0200
0500
0500
0880
0880
1FC0
1040
2020
2020
0000
0000
ENDCHAR

STARTCHAR Ca7a2
ENCODING 42914
SWIDTH 1000 0
DWIDTH 14 0
BBX 14 14 0 -2
BITMAP
0000
0000
0FC0
0800
0800
0800
0F80
0840
0820
0820
0840
0F80
0000
0000
ENDCHAR

STARTCHAR Ca7a3
ENCODING 42915
SWIDTH 1000 0
DWIDTH 14 0
BBX 14 14 0 -2
BITMAP
0000
0000
1F80
1040
1040
1040
1F80
1040
1020
1020
1020
1FC0
0000
0000
ENDCHAR

STARTCHAR Ca7a4
ENCODING 42916
SWIDTH 1000 0
DWIDTH 14 0
BBX 14 14 0 -2
BITMAP
0000
0000
1FE0
1000
1000
1000
1000
1000
1000
1000
1000
1000
0000
0000
ENDCHAR

STARTCHAR Ca7a5
ENCODING 42917
SWIDTH 1000 0
DWIDTH 14 0
BBX 14 14 0 -2
BITMAP
0000
0000
07E0
0420
0420
0420
0420
0820
0820
0820
1020
3FF0
2010
0000
ENDCHAR

STARTCHAR Ca7a6
ENCODING 42918
SWIDTH 1000 0
DWIDTH 14 0
BBX 14 14 0 -2
BITMAP
0000
0000
1FE0
1000
1000
1000
1FC0
1000
1000
1000
1000
1FE0
0000
0000
ENDCHAR

STARTCHAR Ca7a7
ENCODING 42919
SWIDTH 1000 0
DWIDTH 14 0
BBX 14 14 0 -2
BITMAP
0000
0880
1FE0
1000
1000
1000
1FC0
1000
1000
1000
1000
1FE0
0000
0000
ENDCHAR

STARTCHAR Ca7a8
ENCODING 42920
SWIDTH 1000 0
DWIDTH 14 0
BBX 14 14 0 -2
BITMAP
0000
0000
1240
1240
1240
0A80
0700
0A80
1240
1240
2220
2220
0000
0000
ENDCHAR

STARTCHAR Ca7a9
ENCODING 42921
SWIDTH 1000 0
DWIDTH 14 0
BBX 14 14 0 -2
BITMAP
0000
0000
0780
0840
1040
0040
0780
0040
0020
1020
0840
0780
0000
0000
ENDCHAR

STARTCHAR Ca7aa
ENCODING 42922
SWIDTH 1000 0
DWIDTH 14 0
BBX 14 14 0 -2
BITMAP
0000
0000
1020
1020
1060
10A0
1120
1220
1420
1820
1020
1020
0000
0000
ENDCHAR

STARTCHAR Ca7ab
ENCODING 42923
SWIDTH 1000 0
DWIDTH 14 0
BBX 14 14 0 -2
BITMAP
0000
0480
1320
1020
1060
10A0
1120
1220
1420
1820
1020
1020
0000
0000
ENDCHAR

STARTCHAR Ca7ac
ENCODING 42924
SWIDTH 1000 0
DWIDTH 14 0
BBX 14 14 0 -2
BITMAP
0000
0000
1040
1040
1080
1100
1E00
1100
1080
1080
1040
1020
0000
0000
ENDCHAR

STARTCHAR Ca7ad
ENCODING 42925
SWIDTH 1000 0
DWIDTH 14 0
BBX 14 14 0 -2
BITMAP
0000
0000
07C0
0440
0440
0440
0440
0440
0440
0840
0840
3040
0000
0000
ENDCHAR

STARTCHAR Ca7ae
ENCODING 42926
SWIDTH 1000 0
DWIDTH 14 0
BBX 14 14 0 -2
BITMAP
0000
0000
3060
28A0
28A0
28A0
2520
2520
2520
2220
2220
2020
0000
0000
ENDCHAR

STARTCHAR Ca7af
ENCODING 42927
SWIDTH 1000 0
DWIDTH 14 0
BBX 14 14 0 -2
BITMAP
0000
0000
1020
1020
1020
1020
1FE0
1020
1020
1020
1020
1020
0000
0000
ENDCHAR

STARTCHAR Ca7b0
ENCODING 42928
SWIDTH 1000 0
DWIDTH 14 0
BBX 14 14 0 -2
BITMAP
0000
0000
0780
0840
1020
2010
2010
2010
2010
1020
0840
0780
0000
0000
ENDCHAR

STARTCHAR Ca7b1
ENCODING 42929
SWIDTH 1000 0
DWIDTH 14 0
BBX 14 14 0 -2
BITMAP
0000
0000
1FE0
1020
1020
1020
1020
1020
1020
1020
1020
1020
0000
0000
ENDCHAR

STARTCHAR Ca7b2
ENCODING 42930
SWIDTH 1000 0
DWIDTH 14 0
BBX 14 14 0 -2
BITMAP
0000
0000
0F80
0840
0820
0820
0840
0F80
0800
0800
0800
0800
0000
0000
ENDCHAR

STARTCHAR Ca7b3
ENCODING 42931
SWIDTH 1000 0
DWIDTH 14 0
BBX 14 14 0 -2
BITMAP
0000
0000
0F80
1040
2020
2000
2000
2000
2000
2020
1040
0F80
0000
0000
ENDCHAR

STARTCHAR Ca7b4
ENCODING 42932
SWIDTH 1000 0
DWIDTH 14 0
BBX 14 14 0 -2
BITMAP
0000
0000
3FE0
0200
0200
0200
0200
0200
0200
0200
0200
0200
0000
0000
ENDCHAR

STARTCHAR Ca7b5
ENCODING 42933
SWIDTH 1000 0
DWIDTH 14 0
BBX 14 14 0 -2
BITMAP
0000
0000
0820
0820
0440
0440
0280
0280
0100
0100
0200
0C00
0000
0000
ENDCHAR

STARTCHAR Ca7b6
ENCODING 42934
SWIDTH 1000 0
DWIDTH 14 0
BBX 14 14 0 -2
BITMAP
0000
0000
0200
0200
0F80
1240
2220
2220
1240
0F80
0200
0200
0000
0000
ENDCHAR

STARTCHAR Ca7b7
ENCODING 42935
SWIDTH 1000 0
DWIDTH 14 0
BBX 14 14 0 -2
BITMAP
0000
0000
2020
1040
0880
0500
0200
0200
0500
0880
1040
2020
0000
0000
ENDCHAR

STARTCHAR Ca7b8
ENCODING 42936
SWIDTH 1000 0
DWIDTH 14 0
BBX 14 14 0 -2
BITMAP
0000
0000
1040
1040
1040
1040
1040
1040
1040
1040
1040
1FE0
0020
0000
ENDCHAR

STARTCHAR Ca7b9
ENCODING 42937
SWIDTH 1000 0
DWIDTH 14 0
BBX 14 14 0 -2
BITMAP
0000
0000
1040
1040
1040
1040
1040
08C0
0740
0040
0040
0040
0000
0000
ENDCHAR

STARTCHAR Ca7ba
ENCODING 42938
SWIDTH 1000 0
DWIDTH 14 0
BBX 14 14 0 -2
BITMAP
0000
0000
2220
2220
2220
2220
2220
2220
2220
2220
2220
3FE0
0000
0000
ENDCHAR

STARTCHAR Ca7bb
ENCODING 42939
SWIDTH 1000 0
DWIDTH 14 0
BBX 14 14 0 -2
BITMAP
0000
0000
2220
2220
2220
2220
2220
2220
2220
2220
2220
3FF0
0010
0000
ENDCHAR

STARTCHAR Ca7bc
ENCODING 42940
SWIDTH 1000 0
DWIDTH 14 0
BBX 14 14 0 -2
BITMAP
0000
0000
3800
0800
0800
0800
0F80
0840
0820
0820
0840
0F80
0000
0000
ENDCHAR

STARTCHAR Ca7bd
ENCODING 42941
SWIDTH 1000 0
DWIDTH 14 0
BBX 14 14 0 -2
BITMAP
0000
0000
2020
2020
2020
2020
3E20
2120
20A0
20A0
2120
3E20
0000
0000
ENDCHAR

STARTCHAR Ca7be
ENCODING 42942
SWIDTH 1000 0
DWIDTH 14 0
BBX 14 14 0 -2
BITMAP
0000
0000
0800
0800
0800
0800
0F80
0840
0820
0820
0840
0F80
0000
0000
ENDCHAR

STARTCHAR Ca7bf
ENCODING 42943
SWIDTH 1000 0
DWIDTH 14 0
BBX 14 14 0 -2
BITMAP
0000
0000
0F00
1080
2040
0020
0E60
11A0
0020
2040
1080
0F00
0000
0000
ENDCHAR

STARTCHAR Ca7c0
ENCODING 42944
SWIDTH 1000 0
DWIDTH 14 0
BBX 14 14 0 -2
BITMAP
0000
0000
21C0
2220
2220
2410
3C10
2410
2410
2220
2220
21C0
0000
0000
ENDCHAR

STARTCHAR Ca7c1
ENCODING 42945
SWIDTH 1000 0
DWIDTH 14 0
BBX 14 14 0 -2
BITMAP
0000
0000
07C0
0840
1040
1040
0840
07C0
0440
0840
1040
2040
0000
0000
ENDCHAR

STARTCHAR Ca7c2
ENCODING 42946
SWIDTH 1000 0
DWIDTH 14 0
BBX 14 14 0 -2
BITMAP
0000
0000
0000
0000
0000
0000
0000
0000
0000
0000
0000
0000
0000
0000
ENDCHAR

STARTCHAR Ca7c3
ENCODING 42947
SWIDTH 1000 0
DWIDTH 14 0
BBX 14 14 0 -2
BITMAP
0000
0000
0000
0000
0000
0000
0000
0000
0000
0000
0000
0000
0000
0000
ENDCHAR

STARTCHAR Ca7c4
ENCODING 42948
SWIDTH 1000 0
DWIDTH 14 0
BBX 14 14 0 -2
BITMAP
0000
0000
0000
0000
0000
0000
0000
0000
0000
0000
0000
0000
0000
0000
ENDCHAR

STARTCHAR Ca7c5
ENCODING 42949
SWIDTH 1000 0
DWIDTH 14 0
BBX 14 14 0 -2
BITMAP
0000
0000
0000
0000
0000
0000
0000
0000
0000
0000
0000
0000
0000
0000
ENDCHAR

STARTCHAR Ca7c6
ENCODING 42950
SWIDTH 1000 0
DWIDTH 14 0
BBX 14 14 0 -2
BITMAP
0000
0000
0000
0000
0000
0000
0000
0000
0000
0000
0000
0000
0000
0000
ENDCHAR

STARTCHAR Ca7c7
ENCODING 42951
SWIDTH 1000 0
DWIDTH 14 0
BBX 14 14 0 -2
BITMAP
0000
0000
0000
0000
0000
0000
0000
0000
0000
0000
0000
0000
0000
0000
ENDCHAR

STARTCHAR Ca7c8
ENCODING 42952
SWIDTH 1000 0
DWIDTH 14 0
BBX 14 14 0 -2
BITMAP
0000
0000
0000
0000
0000
0000
0000
0000
0000
0000
0000
0000
0000
0000
ENDCHAR

STARTCHAR Ca7c9
ENCODING 42953
SWIDTH 1000 0
DWIDTH 14 0
BBX 14 14 0 -2
BITMAP
0000
0000
0000
0000
0000
0000
0000
0000
0000
0000
0000
0000
0000
0000
ENDCHAR

STARTCHAR Ca7ca
ENCODING 42954
SWIDTH 1000 0
DWIDTH 14 0
BBX 14 14 0 -2
BITMAP
0000
0000
0000
0000
0000
0000
0000
0000
0000
0000
0000
0000
0000
0000
ENDCHAR

STARTCHAR Ca7cb
ENCODING 42955
SWIDTH 1000 0
DWIDTH 14 0
BBX 14 14 0 -2
BITMAP
0000
0000
0000
0000
0000
0000
0000
0000
0000
0000
0000
0000
0000
0000
ENDCHAR

STARTCHAR Ca7cc
ENCODING 42956
SWIDTH 1000 0
DWIDTH 14 0
BBX 14 14 0 -2
BITMAP
0000
0000
0000
0000
0000
0000
0000
0000
0000
0000
0000
0000
0000
0000
ENDCHAR

STARTCHAR Ca7cd
ENCODING 42957
SWIDTH 1000 0
DWIDTH 14 0
BBX 14 14 0 -2
BITMAP
0000
0000
0000
0000
0000
0000
0000
0000
0000
0000
0000
0000
0000
0000
ENDCHAR

STARTCHAR Ca7ce
ENCODING 42958
SWIDTH 1000 0
DWIDTH 14 0
BBX 14 14 0 -2
BITMAP
0000
0000
0000
0000
0000
0000
0000
0000
0000
0000
0000
0000
0000
0000
ENDCHAR

STARTCHAR Ca7cf
ENCODING 42959
SWIDTH 1000 0
DWIDTH 14 0
BBX 14 14 0 -2
BITMAP
0000
0000
0000
0000
0000
0000
0000
0000
0000
0000
0000
0000
0000
0000
ENDCHAR

STARTCHAR Ca7d0
ENCODING 42960
SWIDTH 1000 0
DWIDTH 14 0
BBX 14 14 0 -2
BITMAP
0000
0000
0000
0000
0000
0000
0000
0000
0000
0000
0000
0000
0000
0000
ENDCHAR

STARTCHAR Ca7d1
ENCODING 42961
SWIDTH 1000 0
DWIDTH 14 0
BBX 14 14 0 -2
BITMAP
0000
0000
0000
0000
0000
0F00
1080
0080
0F80
1080
1180
0EC0
0000
0000
ENDCHAR

STARTCHAR Ca7d2
ENCODING 42962
SWIDTH 1000 0
DWIDTH 14 0
BBX 14 14 0 -2
BITMAP
0000
0000
00C0
0700
0800
1700
1880
1040
1040
1040
0880
0700
0000
0000
ENDCHAR

STARTCHAR Ca7d3
ENCODING 42963
SWIDTH 1000 0
DWIDTH 14 0
BBX 14 14 0 -2
BITMAP
0000
0000
0000
0000
0000
0F80
0840
0840
0F80
0840
0840
0F80
0000
0000
ENDCHAR

STARTCHAR Ca7d4
ENCODING 42964
SWIDTH 1000 0
DWIDTH 14 0
BBX 14 14 0 -2
BITMAP
0000
0000
0000
0000
0000
0FC0
0800
0800
0800
0800
0800
0800
0000
0000
ENDCHAR

STARTCHAR Ca7d5
ENCODING 42965
SWIDTH 1000 0
DWIDTH 14 0
BBX 14 14 0 -2
BITMAP
0000
0000
0000
0000
0000
03C0
0240
0240
0440
0440
0840
1FE0
1020
0000
ENDCHAR

STARTCHAR Ca7d6
ENCODING 42966
SWIDTH 1000 0
DWIDTH 14 0
BBX 14 14 0 -2
BITMAP
0000
0000
0000
0000
0000
0700
0880
1040
1FC0
1000
0840
0780
0000
0000
ENDCHAR

STARTCHAR Ca7d7
ENCODING 42967
SWIDTH 1000 0
DWIDTH 14 0
BBX 14 14 0 -2
BITMAP
0000
0000
0000
0480
0000
0700
0880
1040
1FC0
1000
0840
0780
0000
0000
ENDCHAR

STARTCHAR Ca7d8
ENCODING 42968
SWIDTH 1000 0
DWIDTH 14 0
BBX 14 14 0 -2
BITMAP
0000
0000
0000
0000
0000
1240
1240
0A80
0700
0A80
1240
2220
0000
0000
ENDCHAR

STARTCHAR Ca7d9
ENCODING 42969
SWIDTH 1000 0
DWIDTH 14 0
BBX 14 14 0 -2
BITMAP
0000
0000
0000
0000
0000
0780
0840
0040
0380
0040
0840
0780
0000
0000
ENDCHAR

STARTCHAR Ca7da
ENCODING 42970
SWIDTH 1000 0
DWIDTH 14 0
BBX 14 14 0 -2
BITMAP
0000
0000
0000
0000
0000
0840
0840
08C0
0B40
0C40
0840
0840
0000
0000
ENDCHAR

STARTCHAR Ca7db
ENCODING 42971
SWIDTH 1000 0
DWIDTH 14 0
BBX 14 14 0 -2
BITMAP
0000
0000
0480
0300
0000
0840
0840
08C0
0B40
0C40
0840
0840
0000
0000
ENDCHAR

STARTCHAR Ca7dc
ENCODING 42972
SWIDTH 1000 0
DWIDTH 14 0
BBX 14 14 0 -2
BITMAP
0000
0000
0000
0000
0000
0880
0880
0900
0E00
0900
0880
0840
0000
0000
ENDCHAR

STARTCHAR Ca7dd
ENCODING 42973
SWIDTH 1000 0
DWIDTH 14 0
BBX 14 14 0 -2
BITMAP
0000
0000
0000
0000
0000
03C0
0240
0240
0240
0440
0440
1840
0000
0000
ENDCHAR

STARTCHAR Ca7de
ENCODING 42974
SWIDTH 1000 0
DWIDTH 14 0
BBX 14 14 0 -2
BITMAP
0000
0000
0000
0000
0000
1040
18C0
1540
1540
1240
1240
1040
0000
0000
ENDCHAR

STARTCHAR Ca7df
ENCODING 42975
SWIDTH 1000 0
DWIDTH 14 0
BBX 14 14 0 -2
BITMAP
0000
0000
0000
0000
0000
0840
0840
0840
0FC0
0840
0840
0840
0000
0000
ENDCHAR

STARTCHAR Ca7e0
ENCODING 42976
SWIDTH 1000 0
DWIDTH 14 0
BBX 14 14 0 -2
BITMAP
0000
0000
0000
0000
0000
0700
0880
1040
1040
1040
0880
0700
0000
0000
ENDCHAR

STARTCHAR Ca7e1
ENCODING 42977
SWIDTH 1000 0
DWIDTH 14 0
BBX 14 14 0 -2
BITMAP
0000
0000
0000
0000
0000
0FC0
0840
0840
0840
0840
0840
0840
0000
0000
ENDCHAR

STARTCHAR Ca7e2
ENCODING 42978
SWIDTH 1000 0
DWIDTH 14 0
BBX 14 14 0 -2
BITMAP
0000
0000
0000
0000
0000
0B80
0C40
0820
0820
0C40
0B80
0800
0800
0000
ENDCHAR

STARTCHAR Ca7e3
ENCODING 42979
SWIDTH 1000 0
DWIDTH 14 0
BBX 14 14 0 -2
BITMAP
0000
0000
0000
0000
0000
0780
0840
1000
1000
1000
0840
0780
0000
0000
ENDCHAR

STARTCHAR Ca7e4
ENCODING 42980
SWIDTH 1000 0
DWIDTH 14 0
BBX 14 14 0 -2
BITMAP
0000
0000
0000
0000
0000
1FC0
0200
0200
0200
0200
0200
0200
0000
0000
ENDCHAR

STARTCHAR Ca7e5
ENCODING 42981
SWIDTH 1000 0
DWIDTH 14 0
BBX 14 14 0 -2
BITMAP
0000
0000
0000
0000
0000
0840
0840
0440
0480
0280
0100
0100
0600
0000
ENDCHAR

STARTCHAR Ca7e6
ENCODING 42982
SWIDTH 1000 0
DWIDTH 14 0
BBX 14 14 0 -2
BITMAP
0000
0000
0200
0200
0200
1AC0
2720
2220
2220
2720
1AC0
0200
0200
0000
ENDCHAR

STARTCHAR Ca7e7
ENCODING 42983
SWIDTH 1000 0
DWIDTH 14 0
BBX 14 14 0 -2
BITMAP
0000
0000
0000
0000
0000
1040
0880
0500
0200
0500
0880
1040
0000
0000
ENDCHAR

STARTCHAR Ca7e8
ENCODING 42984
SWIDTH 1000 0
DWIDTH 14 0
BBX 14 14 0 -2
BITMAP
0000
0000
0000
0000
0000
0840
0840
0840
0840
0840
0840
0FE0
0020
0000
ENDCHAR

STARTCHAR Ca7e9
ENCODING 42985
SWIDTH 1000 0
DWIDTH 14 0
BBX 14 14 0 -2
BITMAP
0000
0000
0000
0000
0000
0840
0840
0840
0440
03C0
0040
0040
0000
0000
ENDCHAR

STARTCHAR Ca7ea
ENCODING 42986
SWIDTH 1000 0
DWIDTH 14 0
BBX 14 14 0 -2
BITMAP
0000
0000
0000
0000
0000
2220
2220
2220
2220
2220
2220
3FE0
0000
0000
ENDCHAR

STARTCHAR Ca7eb
ENCODING 42987
SWIDTH 1000 0
DWIDTH 14 0
BBX 14 14 0 -2
BITMAP
0000
0000
0000
0000
0000
2220
2220
2220
2220
2220
2220
3FF0
0010
0000
ENDCHAR

STARTCHAR Ca7ec
ENCODING 42988
SWIDTH 1000 0
DWIDTH 14 0
BBX 14 14 0 -2
BITMAP
0000
0000
0000
0000
0000
1C00
0400
07C0
0420
0420
0420
07C0
0000
0000
ENDCHAR

STARTCHAR Ca7ed
ENCODING 42989
SWIDTH 1000 0
DWIDTH 14 0
BBX 14 14 0 -2
BITMAP
0000
0000
0000
0000
0000
1020
1020
1E20
1120
1120
1120
1E20
0000
0000
ENDCHAR

STARTCHAR Ca7ee
ENCODING 42990
SWIDTH 1000 0
DWIDTH 14 0
BBX 14 14 0 -2
BITMAP
0000
0000
0000
0000
0000
0800
0800
0F80
0840
0840
0840
0F80
0000
0000
ENDCHAR

STARTCHAR Ca7ef
ENCODING 42991
SWIDTH 1000 0
DWIDTH 14 0
BBX 14 14 0 -2
BITMAP
0000
0000
0000
0000
0000
0F00
1080
0640
09C0
0040
1080
0F00
0000
0000
ENDCHAR

STARTCHAR Ca7f0
ENCODING 42992
SWIDTH 1000 0
DWIDTH 14 0
BBX 14 14 0 -2
BITMAP
0000
0000
0000
0000
0000
11C0
1220
1410
1C10
1410
1220
11C0
0000
0000
ENDCHAR

STARTCHAR Ca7f1
ENCODING 42993
SWIDTH 1000 0
DWIDTH 14 0
BBX 14 14 0 -2
BITMAP
0000
0000
0000
0000
0000
07C0
0840
0840
07C0
0240
0440
0840
0000
0000
ENDCHAR

STARTCHAR Ca8a1
ENCODING 43169
SWIDTH 1000 0
DWIDTH 14 0
BBX 14 14 0 -2
BITMAP
0000
0000
0000
0000
0000
0000
FFFC
0000
0000
0000
0000
0000
0000
0000
ENDCHAR

STARTCHAR Ca8a2
ENCODING 43170
SWIDTH 1000 0
DWIDTH 14 0
BBX 14 14 0 -2
BITMAP
0200
0200
0200
0200
0200
0200
0200
0200
0200
0200
0200
0200
0200
0200
ENDCHAR

STARTCHAR Ca8a3
ENCODING 43171
SWIDTH 1000 0
DWIDTH 14 0
BBX 14 14 0 -2
BITMAP
0000
0000
0000
0000
0000
0000
03FC
0200
0200
0200
0200
0200
0200
0200
ENDCHAR

STARTCHAR Ca8a4
ENCODING 43172
SWIDTH 1000 0
DWIDTH 14 0
BBX 14 14 0 -2
BITMAP
0000
0000
0000
0000
0000
0000
FE00
0200
0200
0200
0200
0200
0200
0200
ENDCHAR

STARTCHAR Ca8a5
ENCODING 43173
SWIDTH 1000 0
DWIDTH 14 0
BBX 14 14 0 -2
BITMAP
0200
0200
0200
0200
0200
0200
FE00
0000
0000
0000
0000
0000
0000
0000
ENDCHAR

STARTCHAR Ca8a6
ENCODING 43174
SWIDTH 1000 0
DWIDTH 14 0
BBX 14 14 0 -2
BITMAP
0200
0200
0200
0200
0200
0200
03FC
0000
0000
0000
0000
0000
0000
0000
ENDCHAR

STARTCHAR Ca8a7
ENCODING 43175
SWIDTH 1000 0
DWIDTH 14 0
BBX 14 14 0 -2
BITMAP
0200
0200
0200
0200
0200
0200
03FC
0200
0200
0200
0200
0200
0200
0200
ENDCHAR

STARTCHAR Ca8a8
ENCODING 43176
SWIDTH 1000 0
DWIDTH 14 0
BBX 14 14 0 -2
BITMAP
0000
0000
0000
0000
0000
0000
FFFC
0200
0200
0200
0200
0200
0200
0200
ENDCHAR

STARTCHAR Ca8a9
ENCODING 43177
SWIDTH 1000 0
DWIDTH 14 0
BBX 14 14 0 -2
BITMAP
0200
0200
0200
0200
0200
0200
FE00
0200
0200
0200
0200
0200
0200
0200
ENDCHAR

STARTCHAR Ca8aa
ENCODING 43178
SWIDTH 1000 0
DWIDTH 14 0
BBX 14 14 0 -2
BITMAP
0200
0200
0200
0200
0200
0200
FFFC
0000
0000
0000
0000
0000
0000
0000
ENDCHAR

STARTCHAR Ca8ab
ENCODING 43179
SWIDTH 1000 0
DWIDTH 14 0
BBX 14 14 0 -2
BITMAP
0200
0200
0200
0200
0200
0200
FFFC
0200
0200
0200
0200
0200
0200
0200
ENDCHAR

STARTCHAR Ca8ac
ENCODING 43180
SWIDTH 1000 0
DWIDTH 14 0
BBX 14 14 0 -2
BITMAP
0000
0000
0000
0000
0000
0000
FFFC
FFFC
0000
0000
0000
0000
0000
0000
ENDCHAR

STARTCHAR Ca8ad
ENCODING 43181
SWIDTH 1000 0
DWIDTH 14 0
BBX 14 14 0 -2
BITMAP
0300
0300
0300
0300
0300
0300
0300
0300
0300
0300
0300
0300
0300
0300
ENDCHAR

STARTCHAR Ca8ae
ENCODING 43182
SWIDTH 1000 0
DWIDTH 14 0
BBX 14 14 0 -2
BITMAP
0000
0000
0000
0000
0000
0000
03FC
03FC
0300
0300
0300
0300
0300
0300
ENDCHAR

STARTCHAR Ca8af
ENCODING 43183
SWIDTH 1000 0
DWIDTH 14 0
BBX 14 14 0 -2
BITMAP
0000
0000
0000
0000
0000
0000
FF00
FF00
0300
0300
0300
0300
0300
0300
ENDCHAR

STARTCHAR Ca8b0
ENCODING 43184
SWIDTH 1000 0
DWIDTH 14 0
BBX 14 14 0 -2
BITMAP
0300
0300
0300
0300
0300
0300
FF00
FF00
0000
0000
0000
0000
0000
0000
ENDCHAR

STARTCHAR Ca8b1
ENCODING 43185
SWIDTH 1000 0
DWIDTH 14 0
BBX 14 14 0 -2
BITMAP
0300
0300
0300
0300
0300
0300
03FC
03FC
0000
0000
0000
0000
0000
0000
ENDCHAR

STARTCHAR Ca8b2
ENCODING 43186
SWIDTH 1000 0
DWIDTH 14 0
BBX 14 14 0 -2
BITMAP
0300
0300
0300
0300
0300
0300
03FC
03FC
0300
0300
0300
0300
0300
0300
ENDCHAR

STARTCHAR Ca8b3
ENCODING 43187
SWIDTH 1000 0
DWIDTH 14 0
BBX 14 14 0 -2
BITMAP
0000
0000
0000
0000
0000
0000
FFFC
FFFC
0300
0300
0300
0300
0300
0300
ENDCHAR

STARTCHAR Ca8b4
ENCODING 43188
SWIDTH 1000 0
DWIDTH 14 0
BBX 14 14 0 -2
BITMAP
0300
0300
0300
0300
0300
0300
FF00
FF00
0300
0300
0300
0300
0300
0300
ENDCHAR

STARTCHAR Ca8b5
ENCODING 43189
SWIDTH 1000 0
DWIDTH 14 0
BBX 14 14 0 -2
BITMAP
0300
0300
0300
0300
0300
0300
FFFC
FFFC
0000
0000
0000
0000
0000
0000
ENDCHAR

STARTCHAR Ca8b6
ENCODING 43190
SWIDTH 1000 0
DWIDTH 14 0
BBX 14 14 0 -2
BITMAP
0300
0300
0300
0300
0300
0300
FFFC
FFFC
0300
0300
0300
0300
0300
0300
ENDCHAR

STARTCHAR Ca8b7
ENCODING 43191
SWIDTH 1000 0
DWIDTH 14 0
BBX 14 14 0 -2
BITMAP
0300
0300
0300
0300
0300
0300
03FC
0300
0300
0300
0300
0300
0300
0300
ENDCHAR

STARTCHAR Ca8b8
ENCODING 43192
SWIDTH 1000 0
DWIDTH 14 0
BBX 14 14 0 -2
BITMAP
0000
0000
0000
0000
0000
0000
FFFC
FFFC
0200
0200
0200
0200
0200
0200
ENDCHAR

STARTCHAR Ca8b9
ENCODING 43193
SWIDTH 1000 0
DWIDTH 14 0
BBX 14 14 0 -2
BITMAP
0300
0300
0300
0300
0300
0300
FF00
0300
0300
0300
0300
0300
0300
0300
ENDCHAR

STARTCHAR Ca8ba
ENCODING 43194
SWIDTH 1000 0
DWIDTH 14 0
BBX 14 14 0 -2
BITMAP
0200
0200
0200
0200
0200
0200
FFFC
FFFC
0000
0000
0000
0000
0000
0000
ENDCHAR

STARTCHAR Ca8bb
ENCODING 43195
SWIDTH 1000 0
DWIDTH 14 0
BBX 14 14 0 -2
BITMAP
0200
0200
0200
0200
0200
0200
FFFC
FFFC
0200
0200
0200
0200
0200
0200
ENDCHAR

STARTCHAR Ca8bc
ENCODING 43196
SWIDTH 1000 0
DWIDTH 14 0
BBX 14 14 0 -2
BITMAP
0200
0200
0200
0200
0200
0200
03FC
03FC
0200
0200
0200
0200
0200
0200
ENDCHAR

STARTCHAR Ca8bd
ENCODING 43197
SWIDTH 1000 0
DWIDTH 14 0
BBX 14 14 0 -2
BITMAP
0000
0000
0000
0000
0000
0000
FFFC
0300
0300
0300
0300
0300
0300
0300
ENDCHAR

STARTCHAR Ca8be
ENCODING 43198
SWIDTH 1000 0
DWIDTH 14 0
BBX 14 14 0 -2
BITMAP
0200
0200
0200
0200
0200
0200
FE00
FE00
0200
0200
0200
0200
0200
0200
ENDCHAR

STARTCHAR Ca8bf
ENCODING 43199
SWIDTH 1000 0
DWIDTH 14 0
BBX 14 14 0 -2
BITMAP
0300
0300
0300
0300
0300
0300
FFFC
0000
0000
0000
0000
0000
0000
0000
ENDCHAR

STARTCHAR Ca8c0
ENCODING 43200
SWIDTH 1000 0
DWIDTH 14 0
BBX 14 14 0 -2
BITMAP
0300
0300
0300
0300
0300
0300
FFFC
0300
0300
0300
0300
0300
0300
0300
ENDCHAR

STARTCHAR Cb0a1
ENCODING 45217
SWIDTH 1000 0
DWIDTH 14 0
BBX 14 14 0 -2
BITMAP
0000
0000
3FF0
0480
0480
3FF0
2490
2490
2490
3FF0
0480
0480
7FF8
0000
ENDCHAR

STARTCHAR Cb0a2
ENCODING 45218
SWIDTH 1000 0
DWIDTH 14 0
BBX 14 14 0 -2
BITMAP
0000
0000
07F0
7140
5140
57F0
5550
5550
5550
57F0
7140
0140
0FF8
0000
ENDCHAR

STARTCHAR Cb0a3
ENCODING 45219
SWIDTH 1000 0
DWIDTH 14 0
BBX 14 14 0 -2
BITMAP
0000
1040
1040
11F0
7C40
2440
27F8
4440
4840
29F0
1040
2840
47F8
0000
ENDCHAR

STARTCHAR Cb0a4
ENCODING 45220
SWIDTH 1000 0
DWIDTH 14 0
BBX 14 14 0 -2
BITMAP
0000
0000
7BF8
4810
5010
63D0
5250
4A50
4A50
4BD0
7010
4010
4070
0000
ENDCHAR

STARTCHAR Cb0a5
ENCODING 45221
SWIDTH 1000 0
DWIDTH 14 0
BBX 14 14 0 -2
BITMAP
0000
0200
7FF8
0000
1FE0
1020
1020
1FE0
0500
1910
68A0
0E40
3038
0000
ENDCHAR

STARTCHAR Cb0a6
ENCODING 45222
SWIDTH 1000 0
DWIDTH 14 0
BBX 14 14 0 -2
BITMAP
0000
00F0
3F20
0A40
7FF8
4508
1450
27C8
0400
0FE0
3440
0380
7C78
0000
ENDCHAR

STARTCHAR Cb0a7
ENCODING 45223
SWIDTH 1000 0
DWIDTH 14 0
BBX 14 14 0 -2
BITMAP
0000
1080
10A0
1110
7FE8
1100
11F0
1A40
7040
13F8
10A0
1110
3208
0000
ENDCHAR

STARTCHAR Cb0a8
ENCODING 45224
SWIDTH 1000 0
DWIDTH 14 0
BBX 14 14 0 -2
BITMAP
0000
1040
10A0
1110
7E08
25F0
2400
4400
49F0
2910
1110
2910
41F0
0000
ENDCHAR

STARTCHAR Cb0a9
ENCODING 45225
SWIDTH 1000 0
DWIDTH 14 0
BBX 14 14 0 -2
BITMAP
0000
2100
11E0
1220
0540
0080
7360
1C98
13E0
1080
17F0
2880
47F8
0000
ENDCHAR

STARTCHAR Cb0aa
ENCODING 45226
SWIDTH 1000 0
DWIDTH 14 0
BBX 14 14 0 -2
BITMAP
0000
0840
7FF8
0840
7F40
2490
1860
6FD8
0200
7FF8
0280
0C60
7018
0000
ENDCHAR

STARTCHAR Cb0ab
ENCODING 45227
SWIDTH 1000 0
DWIDTH 14 0
BBX 14 14 0 -2
BITMAP
0000
0840
7FF8
0840
0000
7FF8
0480
3FF0
2490
28F0
3010
2010
3FF0
0000
ENDCHAR

STARTCHAR Cb0ac
ENCODING 45228
SWIDTH 1000 0
DWIDTH 14 0
BBX 14 14 0 -2
BITMAP
0000
0DE0
7240
15F0
1150
7D50
13F8
3A48
57F8
5248
53F8
1040
1078
0000
ENDCHAR

STARTCHAR Cb0ad
ENCODING 45229
SWIDTH 1000 0
DWIDTH 14 0
BBX 14 14 0 -2
BITMAP
0000
7FF8
0480
3FF0
2490
2490
3FF0
0480
7FF8
0200
2910
2848
4FC8
0000
ENDCHAR

STARTCHAR Cb0ae
ENCODING 45230
SWIDTH 1000 0
DWIDTH 14 0
BBX 14 14 0 -2
BITMAP
0000
13F0
1210
13F0
7E00
13F8
1240
1E90
73E8
1240
15F0
1440
33F8
0000
ENDCHAR

STARTCHAR Cb0af
ENCODING 45231
SWIDTH 1000 0
DWIDTH 14 0
BBX 14 14 0 -2
BITMAP
0000
27F0
1410
07F0
4400
27F8
0480
1510
17E8
2480
2BF0
4880
47F8
0000
ENDCHAR

STARTCHAR Cb0b0
ENCODING 45232
SWIDTH 1000 0
DWIDTH 14 0
BBX 14 14 0 -2
BITMAP
0000
1000
11E0
1120
7D20
15E0
1520
1520
1520
25E0
2408
2408
43F8
0000
ENDCHAR

STARTCHAR Cb0b1
ENCODING 45233
SWIDTH 1000 0
DWIDTH 14 0
BBX 14 14 0 -2
BITMAP
0000
0840
7FF8
0A40
1FC0
0440
7FF8
1020
1FE0
0900
7FF8
0100
0100
0000
ENDCHAR

STARTCHAR Cb0b2
ENCODING 45234
SWIDTH 1000 0
DWIDTH 14 0
BBX 14 14 0 -2
BITMAP
0000
0840
7FF8
0840
0000
3FF0
0000
1FE0
1020
1FE0
2000
2000
4000
0000
ENDCHAR

STARTCHAR Cb0b3
ENCODING 45235
SWIDTH 1000 0
DWIDTH 14 0
BBX 14 14 0 -2
BITMAP
0000
2040
3890
49E8
1040
7FF8
54A0
7D50
56A8
7C40
0188
5430
55C0
0000
ENDCHAR

STARTCHAR Cb0b4
ENCODING 45236
SWIDTH 1000 0
DWIDTH 14 0
BBX 14 14 0 -2
BITMAP
0000
1040
1040
13F8
7D10
10A0
33F8
5840
5440
51F0
1040
1040
1040
0000
ENDCHAR

STARTCHAR Cb0b5
ENCODING 45237
SWIDTH 1000 0
DWIDTH 14 0
BBX 14 14 0 -2
BITMAP
0000
0000
1FF8
1000
1080
1080
17F0
1080
1080
2080
2080
2FF8
4000
0000
ENDCHAR

STARTCHAR Cb0b6
ENCODING 45238
SWIDTH 1000 0
DWIDTH 14 0
BBX 14 14 0 -2
BITMAP
0000
1040
7CA0
1110
7E28
44A0
7C60
4520
7CA0
1038
7DE0
1020
1020
0000
ENDCHAR

STARTCHAR Cb0b7
ENCODING 45239
SWIDTH 1000 0
DWIDTH 14 0
BBX 14 14 0 -2
BITMAP
0000
1000
13E0
1120
7D20
1140
1170
1D10
72A0
12A0
1240
14A0
3118
0000
ENDCHAR

STARTCHAR Cb0b8
ENCODING 45240
SWIDTH 1000 0
DWIDTH 14 0
BBX 14 14 0 -2
BITMAP
0000
0200
7FF8
4008
5008
1EF0
1290
2290
54B0
1480
0888
1088
60F8
0000
ENDCHAR

STARTCHAR Cb0b9
ENCODING 45241
SWIDTH 1000 0
DWIDTH 14 0
BBX 14 14 0 -2
BITMAP
0000
1000
11F0
1110
7D10
25F0
2510
4510
49F0
2910
1110
2910
47F8
0000
ENDCHAR

STARTCHAR Cb0ba
ENCODING 45242
SWIDTH 1000 0
DWIDTH 14 0
BBX 14 14 0 -2
BITMAP
0000
1020
1020
7CF8
5480
5480
5480
7C80
1080
1480
1480
1A80
6278
0000
ENDCHAR

STARTCHAR Cb0bb
ENCODING 45243
SWIDTH 1000 0
DWIDTH 14 0
BBX 14 14 0 -2
BITMAP
0000
1880
2480
5120
3D10
27E8
3C08
2400
3DF0
2110
2910
2510
7DF0
0000
ENDCHAR

STARTCHAR Cb0bc
ENCODING 45244
SWIDTH 1000 0
DWIDTH 14 0
BBX 14 14 0 -2
BITMAP
0000
1080
2080
45F8
2908
13E8
2528
7DE8
1128
55E8
5408
5008
1070
0000
ENDCHAR

STARTCHAR Cb0bd
ENCODING 45245
SWIDTH 1000 0
DWIDTH 14 0
BBX 14 14 0 -2
BITMAP
0000
1040
21F0
4840
2BF8
10A0
2538
7E80
10F0
5510
52A0
5040
13B8
0000
ENDCHAR

STARTCHAR Cb0be
ENCODING 45246
SWIDTH 1000 0
DWIDTH 14 0
BBX 14 14 0 -2
BITMAP
0000
2040
3840
4840
1078
7C40
5440
7C40
55F8
7D08
0108
5508
55F8
0000
ENDCHAR

STARTCHAR Cb0bf
ENCODING 45247
SWIDTH 1000 0
DWIDTH 14 0
BBX 14 14 0 -2
BITMAP
0000
0140
0120
7FF8
0100
3D10
2510
24A0
3CA0
0040
0E48
70A8
0318
0000
ENDCHAR

STARTCHAR Cb0c0
ENCODING 45248
SWIDTH 1000 0
DWIDTH 14 0
BBX 14 14 0 -2
BITMAP
0000
0000
7FF8
0480
3FF0
2490
3FF0
1220
0A40
7FF8
0A80
1260
6218
0000
ENDCHAR

STARTCHAR Cb0c1
ENCODING 45249
SWIDTH 1000 0
DWIDTH 14 0
BBX 14 14 0 -2
BITMAP
0000
1040
10A0
7D10
0608
09F0
1400
3800
55F0
1110
1110
1110
11F0
0000
ENDCHAR

STARTCHAR Cb0c2
ENCODING 45250
SWIDTH 1000 0
DWIDTH 14 0
BBX 14 14 0 -2
BITMAP
0000
0200
7FF8
4008
4408
0400
7FF8
0840
1040
2E80
0180
0660
7818
0000
ENDCHAR

STARTCHAR Cb0c3
ENCODING 45251
SWIDTH 1000 0
DWIDTH 14 0
BBX 14 14 0 -2
BITMAP
0000
0100
3FF8
2100
3FF8
2280
2FE0
3938
2FE0
2920
2FE8
4108
40F8
0000
ENDCHAR

STARTCHAR Cb0c4
ENCODING 45252
SWIDTH 1000 0
DWIDTH 14 0
BBX 14 14 0 -2
BITMAP
0000
1080
17F8
7C08
1488
1080
17F8
1920
7220
1140
10A0
1110
3608
0000
ENDCHAR

STARTCHAR Cb0c5
ENCODING 45253
SWIDTH 1000 0
DWIDTH 14 0
BBX 14 14 0 -2
BITMAP
0000
0040
7840
4BF8
4910
48A0
7BF8
4800
49F0
4910
79F0
0110
01F0
0000
ENDCHAR

STARTCHAR Cb0c6
ENCODING 45254
SWIDTH 1000 0
DWIDTH 14 0
BBX 14 14 0 -2
BITMAP
0000
0200
7FF8
4408
7FF8
0880
0700
7AF0
0200
7FF8
0A80
1260
6218
0000
ENDCHAR

STARTCHAR Cb0c7
ENCODING 45255
SWIDTH 1000 0
DWIDTH 14 0
BBX 14 14 0 -2
BITMAP
0000
7CF8
4488
7CF8
4208
5FC8
4888
4508
7FE8
4888
4F88
4888
4F98
0000
ENDCHAR

STARTCHAR Cb0c8
ENCODING 45256
SWIDTH 1000 0
DWIDTH 14 0
BBX 14 14 0 -2
BITMAP
0000
2840
7FF8
2A08
3A48
1040
7FF8
5490
7D10
10A0
7C60
1090
1308
0000
ENDCHAR

STARTCHAR Cb0c9
ENCODING 45257
SWIDTH 1000 0
DWIDTH 14 0
BBX 14 14 0 -2
BITMAP
0000
0200
0200
7FF8
0A80
1240
2220
4018
1FC0
1040
1040
1040
1FC0
0000
ENDCHAR

STARTCHAR Cb0ca
ENCODING 45258
SWIDTH 1000 0
DWIDTH 14 0
BBX 14 14 0 -2
BITMAP
0000
0420
1220
1120
1120
1020
1020
1020
1240
1440
18A0
6110
0608
0000
ENDCHAR

STARTCHAR Cb0cb
ENCODING 45259
SWIDTH 1000 0
DWIDTH 14 0
BBX 14 14 0 -2
BITMAP
0000
0800
0BF0
0890
1090
17F8
3090
5090
13F0
1080
1080
1100
1200
0000
ENDCHAR

STARTCHAR Cb0cc
ENCODING 45260
SWIDTH 1000 0
DWIDTH 14 0
BBX 14 14 0 -2
BITMAP
0000
0880
0880
0FF8
1000
1010
3210
5220
1120
1120
1140
1040
17F8
0000
ENDCHAR

STARTCHAR Cb0cd
ENCODING 45261
SWIDTH 1000 0
DWIDTH 14 0
BBX 14 14 0 -2
BITMAP
0000
0880
0880
0FF8
1140
1140
3248
5250
1620
1A20
1210
1390
1C08
0000
ENDCHAR

STARTCHAR Cb0ce
ENCODING 45262
SWIDTH 1000 0
DWIDTH 14 0
BBX 14 14 0 -2
BITMAP
0000
0880
0BE0
0920
17F8
1000
33F0
5210
17F8
1140
17F8
1040
1040
0000
ENDCHAR

STARTCHAR Cb0cf
ENCODING 45263
SWIDTH 1000 0
DWIDTH 14 0
BBX 14 14 0 -2
BITMAP
0000
0000
7FF8
4488
4488
5FE8
4488
4488
5FE8
4488
4888
5088
7FF8
0000
ENDCHAR

STARTCHAR Cb0d0
ENCODING 45264
SWIDTH 1000 0
DWIDTH 14 0
BBX 14 14 0 -2
BITMAP
0000
0200
7FF8
0200
3FE0
0220
3FE0
2200
3FF0
0510
0890
1060
6018
0000
ENDCHAR

STARTCHAR Cb0d1
ENCODING 45265
SWIDTH 1000 0
DWIDTH 14 0
BBX 14 14 0 -2
BITMAP
0000
01E0
3E00
0200
7FF8
0A80
7278
0400
7FF8
0840
1C80
0360
7C18
0000
ENDCHAR

STARTCHAR Cb0d2
ENCODING 45266
SWIDTH 1000 0
DWIDTH 14 0
BBX 14 14 0 -2
BITMAP
0000
00A0
0090
3FF8
2080
3E90
2890
3EA0
2AA0
2A40
2448
4AA8
5118
0000
ENDCHAR

STARTCHAR Cb0d3
ENCODING 45267
SWIDTH 1000 0
DWIDTH 14 0
BBX 14 14 0 -2
BITMAP
0000
0010
3F10
2110
3FF8
2010
2E10
2090
3F50
2450
5510
5510
0C70
0000
ENDCHAR

STARTCHAR Cb0d4
ENCODING 45268
SWIDTH 1000 0
DWIDTH 14 0
BBX 14 14 0 -2
BITMAP
0000
1120
1140
1BF8
5240
5640
5BF0
1240
1240
13F0
1240
1240
13F8
0000
ENDCHAR

STARTCHAR Cb0d5
ENCODING 45269
SWIDTH 1000 0
DWIDTH 14 0
BBX 14 14 0 -2
BITMAP
0000
0200
3FF0
0840
7FF8
1020
1FE0
1020
1FE0
0200
2910
2848
4FC8
0000
ENDCHAR

STARTCHAR Cb0d6
ENCODING 45270
SWIDTH 1000 0
DWIDTH 14 0
BBX 14 14 0 -2
BITMAP
0000
3F10
2110
3FF8
2010
3F50
4450
5510
1530
0200
2910
2848
4FC8
0000
ENDCHAR

STARTCHAR Cb0d7
ENCODING 45271
SWIDTH 1000 0
DWIDTH 14 0
BBX 14 14 0 -2
BITMAP
0000
1FE0
1020
1FE0
1020
1FE0
0400
0FF8
1248
6448
0888
3108
0670
0000
ENDCHAR

STARTCHAR Cb0d8
ENCODING 45272
SWIDTH 1000 0
DWIDTH 14 0
BBX 14 14 0 -2
BITMAP
0000
1040
13F8
1040
7CA0
1110
37F8
5810
55D0
5150
11D0
1010
1070
0000
ENDCHAR

STARTCHAR Cb0d9
ENCODING 45273
SWIDTH 1000 0
DWIDTH 14 0
BBX 14 14 0 -2
BITMAP
0000
1200
0A00
3FC0
0440
07E0
0820
0FF8
1048
2128
5488
1408
2030
0000
ENDCHAR

STARTCHAR Cb0da
ENCODING 45274
SWIDTH 1000 0
DWIDTH 14 0
BBX 14 14 0 -2
BITMAP
0000
0000
1FE0
1220
1FE0
1220
1FE0
0000
7FF8
1110
10A0
1E40
6038
0000
ENDCHAR

STARTCHAR Cb0db
ENCODING 45275
SWIDTH 1000 0
DWIDTH 14 0
BBX 14 14 0 -2
BITMAP
0000
0000
1FE0
1220
1FE0
1220
1FE0
0840
3FF0
0840
7FF8
0840
3030
0000
ENDCHAR

STARTCHAR Cb0dc
ENCODING 45276
SWIDTH 1000 0
DWIDTH 14 0
BBX 14 14 0 -2
BITMAP
0000
0C80
70F0
1110
12A0
7C40
10A0
3B78
5488
5150
5020
10C0
1300
0000
ENDCHAR

STARTCHAR Cb0dd
ENCODING 45277
SWIDTH 1000 0
DWIDTH 14 0
BBX 14 14 0 -2
BITMAP
0000
1090
20A0
49F8
2B20
1120
25F0
7D20
1120
55F0
5520
5120
11F8
0000
ENDCHAR

STARTCHAR Cb0de
ENCODING 45278
SWIDTH 1000 0
DWIDTH 14 0
BBX 14 14 0 -2
BITMAP
0000
1040
21F0
4890
2BF8
1000
24F0
7C90
13F8
5920
57F8
5020
1020
0000
ENDCHAR

STARTCHAR Cb0df
ENCODING 45279
SWIDTH 1000 0
DWIDTH 14 0
BBX 14 14 0 -2
BITMAP
0000
3FF0
2210
3FF0
2210
3FF0
1020
1FE0
1020
1FE0
1020
1020
10E0
0000
ENDCHAR

STARTCHAR Cb0e0
ENCODING 45280
SWIDTH 1000 0
DWIDTH 14 0
BBX 14 14 0 -2
BITMAP
0000
0840
7FF8
0840
1FE0
0200
7FF8
1240
6238
3FE0
0880
0760
7818
0000
ENDCHAR

STARTCHAR Cb0e1
ENCODING 45281
SWIDTH 1000 0
DWIDTH 14 0
BBX 14 14 0 -2
BITMAP
0000
0200
0200
7FF8
0200
0500
0910
10A0
7040
1040
1320
1C10
6008
0000
ENDCHAR

STARTCHAR Cb0e2
ENCODING 45282
SWIDTH 1000 0
DWIDTH 14 0
BBX 14 14 0 -2
BITMAP
0000
3BF8
0248
7FF8
0248
3BF8
0110
3DF0
0110
3DF0
2510
2510
3D30
0000
ENDCHAR

STARTCHAR Cb0e3
ENCODING 45283
SWIDTH 1000 0
DWIDTH 14 0
BBX 14 14 0 -2
BITMAP
0000
2080
13F0
1110
07F8
0000
73F0
1210
17F8
1120
17F8
2820
47F8
0000
ENDCHAR

STARTCHAR Cb0e4
ENCODING 45284
SWIDTH 1000 0
DWIDTH 14 0
BBX 14 14 0 -2
BITMAP
0000
2080
13F0
1290
07F8
0000
73F0
1210
13F0
1210
13F0
2920
47F8
0000
ENDCHAR

STARTCHAR Cb0e5
ENCODING 45285
SWIDTH 1000 0
DWIDTH 14 0
BBX 14 14 0 -2
BITMAP
0000
0000
3FF8
2400
27E0
2900
2100
2FF0
2100
22C0
2C20
2000
3FF8
0000
ENDCHAR

STARTCHAR Cb0e6
ENCODING 45286
SWIDTH 1000 0
DWIDTH 14 0
BBX 14 14 0 -2
BITMAP
0000
0840
0840
0840
3FF0
0840
0840
0840
7FF8
0840
0840
1040
2040
0000
ENDCHAR

STARTCHAR Cb0e7
ENCODING 45287
SWIDTH 1000 0
DWIDTH 14 0
BBX 14 14 0 -2
BITMAP
0000
0200
0200
7FF8
0200
1440
0880
0520
0640
1880
6140
0620
3810
0000
ENDCHAR

STARTCHAR Cb0e8
ENCODING 45288
SWIDTH 1000 0
DWIDTH 14 0
BBX 14 14 0 -2
BITMAP
0000
1040
1048
17F8
7840
1740
1550
1550
1720
1820
6348
0CA8
0118
0000
ENDCHAR

STARTCHAR Cb0e9
ENCODING 45289
SWIDTH 1000 0
DWIDTH 14 0
BBX 14 14 0 -2
BITMAP
0000
0200
7FF8
0480
0840
3FA0
0020
1FC0
1040
1FC0
1040
1040
11C0
0000
ENDCHAR

STARTCHAR Cb0ea
ENCODING 45290
SWIDTH 1000 0
DWIDTH 14 0
BBX 14 14 0 -2
BITMAP
0000
0800
08F8
7F88
1090
1E90
32A0
5E90
1288
1E88
1288
12B0
1680
0000
ENDCHAR

STARTCHAR Cb0eb
ENCODING 45291
SWIDTH 1000 0
DWIDTH 14 0
BBX 14 14 0 -2
BITMAP
0000
0290
7CA0
1290
14A0
27B8
3890
6FF8
2A40
2A50
3D20
0450
0888
0000
ENDCHAR

STARTCHAR Cb0ec
ENCODING 45292
SWIDTH 1000 0
DWIDTH 14 0
BBX 14 14 0 -2
BITMAP
0000
0000
0000
0000
0000
0000
0000
3FF0
0000
0000
0000
0000
0000
0000
ENDCHAR

STARTCHAR Cb0ed
ENCODING 45293
SWIDTH 1000 0
DWIDTH 14 0
BBX 14 14 0 -2
BITMAP
0000
0200
7FF8
0200
3FF0
0000
7FF8
4008
48C8
0F00
0810
0810
07F0
0000
ENDCHAR

STARTCHAR Cb0ee
ENCODING 45294
SWIDTH 1000 0
DWIDTH 14 0
BBX 14 14 0 -2
BITMAP
0000
2410
1220
0FF8
4140
2220
0410
0808
27F0
2550
2550
4550
4FF8
0000
ENDCHAR

STARTCHAR Cb0ef
ENCODING 45295
SWIDTH 1000 0
DWIDTH 14 0
BBX 14 14 0 -2
BITMAP
0000
2200
13C0
1480
0FF0
0490
7490
17F0
1140
1248
1478
2800
47F8
0000
ENDCHAR

STARTCHAR Cb0f0
ENCODING 45296
SWIDTH 1000 0
DWIDTH 14 0
BBX 14 14 0 -2
BITMAP
0000
0C38
73C0
1088
1248
7D10
10F8
3A88
5688
52F8
5288
1288
12F8
0000
ENDCHAR

STARTCHAR Cb0f1
ENCODING 45297
SWIDTH 1000 0
DWIDTH 14 0
BBX 14 14 0 -2
BITMAP
0000
0840
7FF8
0840
0200
4200
23F8
0488
1490
1140
2120
2210
4C08
0000
ENDCHAR

STARTCHAR Cb0f2
ENCODING 45298
SWIDTH 1000 0
DWIDTH 14 0
BBX 14 14 0 -2
BITMAP
0000
0840
7FF8
0840
0000
3FF0
0100
0100
7FF8
0100
0100
0100
0700
0000
ENDCHAR

STARTCHAR Cb0f3
ENCODING 45299
SWIDTH 1000 0
DWIDTH 14 0
BBX 14 14 0 -2
BITMAP
0000
2000
3BB8
4888
11B8
7D20
55B8
7C88
56A8
7D98
02A8
5488
5598
0000
ENDCHAR

STARTCHAR Cb0f4
ENCODING 45300
SWIDTH 1000 0
DWIDTH 14 0
BBX 14 14 0 -2
BITMAP
0000
0400
0440
0820
11D0
7E10
0000
0080
0880
0880
0888
1088
60F8
0000
ENDCHAR

STARTCHAR Cb0f5
ENCODING 45301
SWIDTH 1000 0
DWIDTH 14 0
BBX 14 14 0 -2
BITMAP
0000
0C00
71F0
4110
4110
7D10
4110
4110
4110
7D70
4100
0100
0100
0000
ENDCHAR

STARTCHAR Cb0f6
ENCODING 45302
SWIDTH 1000 0
DWIDTH 14 0
BBX 14 14 0 -2
BITMAP
0000
0000
03F8
7A48
4A48
4BF8
4A48
4A48
4AA8
4A98
7B08
0208
03F8
0000
ENDCHAR

STARTCHAR Cb0f7
ENCODING 45303
SWIDTH 1000 0
DWIDTH 14 0
BBX 14 14 0 -2
BITMAP
0000
1FE0
1020
1FE0
0000
3FF0
2010
3FF0
2010
2010
3FF0
0840
7038
0000
ENDCHAR

STARTCHAR Cb0f8
ENCODING 45304
SWIDTH 1000 0
DWIDTH 14 0
BBX 14 14 0 -2
BITMAP
0000
0000
7FF8
4208
4208
5FE8
4208
4508
4488
4848
5028
4008
7FF8
0000
ENDCHAR

STARTCHAR Cb0f9
ENCODING 45305
SWIDTH 1000 0
DWIDTH 14 0
BBX 14 14 0 -2
BITMAP
0000
2000
23F8
2248
7A48
2BF8
2A48
4A48
4AA8
2A98
1308
2A08
43F8
0000
ENDCHAR

STARTCHAR Cb0fa
ENCODING 45306
SWIDTH 1000 0
DWIDTH 14 0
BBX 14 14 0 -2
BITMAP
0000
0010
7E10
0210
0210
3E10
2010
2010
7F10
4110
0110
0110
1E10
0000
ENDCHAR

STARTCHAR Cb0fb
ENCODING 45307
SWIDTH 1000 0
DWIDTH 14 0
BBX 14 14 0 -2
BITMAP
0000
1880
2480
50F8
3D48
2550
3C50
2440
3CA0
20A0
2910
2510
7A08
0000
ENDCHAR

STARTCHAR Cb0fc
ENCODING 45308
SWIDTH 1000 0
DWIDTH 14 0
BBX 14 14 0 -2
BITMAP
0000
2070
1780
0220
4920
2520
0070
1780
1080
2FF8
2080
4080
47F0
0000
ENDCHAR

STARTCHAR Cb0fd
ENCODING 45309
SWIDTH 1000 0
DWIDTH 14 0
BBX 14 14 0 -2
BITMAP
0000
2420
28A0
2520
2220
3FE0
28A0
2FA0
28A0
2FA0
28A8
48A8
49B8
0000
ENDCHAR

STARTCHAR Cb0fe
ENCODING 45310
SWIDTH 1000 0
DWIDTH 14 0
BBX 14 14 0 -2
BITMAP
0000
0840
7FF8
0840
7080
5140
5220
65D8
5040
57F8
7120
4210
47E8
0000
ENDCHAR

STARTCHAR Cb1a1
ENCODING 45473
SWIDTH 1000 0
DWIDTH 14 0
BBX 14 14 0 -2
BITMAP
0000
0040
7840
4BF8
4A08
5000
51F0
4800
4BF8
48A0
70A0
4128
4638
0000
ENDCHAR

STARTCHAR Cb1a2
ENCODING 45474
SWIDTH 1000 0
DWIDTH 14 0
BBX 14 14 0 -2
BITMAP
0000
0080
7940
4A20
4DD8
5000
53E0
4820
4BF0
4800
77F8
4210
47E8
0000
ENDCHAR

STARTCHAR Cb1a3
ENCODING 45475
SWIDTH 1000 0
DWIDTH 14 0
BBX 14 14 0 -2
BITMAP
0000
0070
7F80
4A50
4950
53F0
5010
4BF0
4810
4BF0
7090
4528
49E8
0000
ENDCHAR

STARTCHAR Cb1a4
ENCODING 45476
SWIDTH 1000 0
DWIDTH 14 0
BBX 14 14 0 -2
BITMAP
0000
10F0
7E90
24F0
2400
7FF8
0108
3DF8
2508
3D08
25F8
3C90
0108
0000
ENDCHAR

STARTCHAR Cb1a5
ENCODING 45477
SWIDTH 1000 0
DWIDTH 14 0
BBX 14 14 0 -2
BITMAP
0000
0020
0020
7820
4BF8
4820
4820
4A20
4920
4920
4820
7820
00E0
0000
ENDCHAR

STARTCHAR Cb1a6
ENCODING 45478
SWIDTH 1000 0
DWIDTH 14 0
BBX 14 14 0 -2
BITMAP
0000
0200
0200
7FF8
0400
0400
0800
1FF0
2810
4810
0810
0810
0FF0
0000
ENDCHAR

STARTCHAR Cb1a7
ENCODING 45479
SWIDTH 1000 0
DWIDTH 14 0
BBX 14 14 0 -2
BITMAP
0000
0200
7FF8
4008
4008
1FE0
0200
0200
7FF8
0200
0200
0200
0E00
0000
ENDCHAR

STARTCHAR Cb1a8
ENCODING 45480
SWIDTH 1000 0
DWIDTH 14 0
BBX 14 14 0 -2
BITMAP
0000
0200
1FC0
1040
1FC0
1000
1FF8
1000
1FF8
0048
2928
2488
4430
0000
ENDCHAR

STARTCHAR Cb1a9
ENCODING 45481
SWIDTH 1000 0
DWIDTH 14 0
BBX 14 14 0 -2
BITMAP
0000
0000
7EF8
0208
2288
1248
0A28
0208
0618
1A68
6388
0208
0E38
0000
ENDCHAR

STARTCHAR Cb1aa
ENCODING 45482
SWIDTH 1000 0
DWIDTH 14 0
BBX 14 14 0 -2
BITMAP
0000
2000
17F0
1080
0080
0080
77F8
1080
1080
1080
1380
2800
47F8
0000
ENDCHAR

STARTCHAR Cb1ab
ENCODING 45483
SWIDTH 1000 0
DWIDTH 14 0
BBX 14 14 0 -2
BITMAP
0000
0000
7FF8
0200
0200
3FF0
2A90
2650
2210
2A90
2650
2210
2270
0000
ENDCHAR

STARTCHAR Cb1ac
ENCODING 45484
SWIDTH 1000 0
DWIDTH 14 0
BBX 14 14 0 -2
BITMAP
0000
0600
38F8
2288
2288
2288
2288
2288
2E88
7288
04B8
0880
3080
0000
ENDCHAR

STARTCHAR Cb1ad
ENCODING 45485
SWIDTH 1000 0
DWIDTH 14 0
BBX 14 14 0 -2
BITMAP
0000
4440
29F0
7D10
15F0
7D10
51F0
7D00
15F8
3500
5DF8
12A8
14B8
0000
ENDCHAR

STARTCHAR Cb1ae
ENCODING 45486
SWIDTH 1000 0
DWIDTH 14 0
BBX 14 14 0 -2
BITMAP
0000
0200
7FF8
4928
31E0
0000
11F0
7D10
11F0
7D10
11F0
28A0
4338
0000
ENDCHAR

STARTCHAR Cb1af
ENCODING 45487
SWIDTH 1000 0
DWIDTH 14 0
BBX 14 14 0 -2
BITMAP
0000
0000
1FC0
0440
0440
0440
0440
7FF8
0840
0840
0840
0840
7FF8
0000
ENDCHAR

STARTCHAR Cb1b0
ENCODING 45488
SWIDTH 1000 0
DWIDTH 14 0
BBX 14 14 0 -2
BITMAP
0000
0120
7D40
13F8
1240
2640
3BF0
6A40
2A40
2BF0
2A40
3A40
03F8
0000
ENDCHAR

STARTCHAR Cb1b1
ENCODING 45489
SWIDTH 1000 0
DWIDTH 14 0
BBX 14 14 0 -2
BITMAP
0000
0200
0C00
30F0
2010
2010
2010
3CF0
2010
2010
2010
2010
3FF0
0000
ENDCHAR

STARTCHAR Cb1b2
ENCODING 45490
SWIDTH 1000 0
DWIDTH 14 0
BBX 14 14 0 -2
BITMAP
0000
2000
13F0
0210
42F0
2290
07F8
1408
15E8
2528
25E8
4408
4438
0000
ENDCHAR

STARTCHAR Cb1b3
ENCODING 45491
SWIDTH 1000 0
DWIDTH 14 0
BBX 14 14 0 -2
BITMAP
0000
0080
70F0
5080
57F8
5488
57E0
5490
54F0
74A0
0AA8
08A0
13F8
0000
ENDCHAR

STARTCHAR Cb1b4
ENCODING 45492
SWIDTH 1000 0
DWIDTH 14 0
BBX 14 14 0 -2
BITMAP
0000
03F0
7A10
4A10
4BF0
4A10
4A10
4BF0
4A10
4A10
7BF0
0120
0618
0000
ENDCHAR

STARTCHAR Cb1b5
ENCODING 45493
SWIDTH 1000 0
DWIDTH 14 0
BBX 14 14 0 -2
BITMAP
0000
12A0
7D78
12A0
34B0
5FE8
14A0
3FE0
2410
3DF8
2090
2490
7A30
0000
ENDCHAR

STARTCHAR Cb1b6
ENCODING 45494
SWIDTH 1000 0
DWIDTH 14 0
BBX 14 14 0 -2
BITMAP
0000
0840
7FF8
0840
3F10
2110
3FF8
2010
3F90
2450
2E50
5510
4C70
0000
ENDCHAR

STARTCHAR Cb1b7
ENCODING 45495
SWIDTH 1000 0
DWIDTH 14 0
BBX 14 14 0 -2
BITMAP
0000
20F0
3890
48F0
1090
7DF8
5548
7DF8
5400
7DF8
0090
5460
5598
0000
ENDCHAR

STARTCHAR Cb1b8
ENCODING 45496
SWIDTH 1000 0
DWIDTH 14 0
BBX 14 14 0 -2
BITMAP
0000
1080
1088
13E8
7C90
24A0
27F8
4440
4890
29E0
1288
2C88
40F8
0000
ENDCHAR

STARTCHAR Cb1b9
ENCODING 45497
SWIDTH 1000 0
DWIDTH 14 0
BBX 14 14 0 -2
BITMAP
0000
3FF8
2000
2FF0
2AA0
2EA0
2AA0
2FF8
2840
2A60
29A0
4EA8
5938
0000
ENDCHAR

STARTCHAR Cb1ba
ENCODING 45498
SWIDTH 1000 0
DWIDTH 14 0
BBX 14 14 0 -2
BITMAP
0000
20A0
1090
0FF8
4080
27F0
0490
17F0
1490
27F0
2490
4490
44B0
0000
ENDCHAR

STARTCHAR Cb1bb
ENCODING 45499
SWIDTH 1000 0
DWIDTH 14 0
BBX 14 14 0 -2
BITMAP
0000
01E0
1E40
1240
1240
1240
1220
1220
12A0
2290
2350
2C48
4008
0000
ENDCHAR

STARTCHAR Cb1bc
ENCODING 45500
SWIDTH 1000 0
DWIDTH 14 0
BBX 14 14 0 -2
BITMAP
0000
7CF8
4488
7CF8
4488
7CF8
4008
4FC8
4208
4FC8
4208
5FE8
4018
0000
ENDCHAR

STARTCHAR Cb1bd
ENCODING 45501
SWIDTH 1000 0
DWIDTH 14 0
BBX 14 14 0 -2
BITMAP
0000
0220
77F8
5140
57F0
5550
57F0
5410
57F0
7020
0FF8
0220
0160
0000
ENDCHAR

STARTCHAR Cb1be
ENCODING 45502
SWIDTH 1000 0
DWIDTH 14 0
BBX 14 14 0 -2
BITMAP
0000
0000
1FE0
0000
0000
0000
7FF8
0400
0420
0810
09F0
7E08
2008
0000
ENDCHAR

STARTCHAR Cb1bf
ENCODING 45503
SWIDTH 1000 0
DWIDTH 14 0
BBX 14 14 0 -2
BITMAP
0000
4FF8
2888
27F0
0080
07F0
7490
17F0
1490
1FF8
1080
2880
47F8
0000
ENDCHAR

STARTCHAR Cb1c0
ENCODING 45504
SWIDTH 1000 0
DWIDTH 14 0
BBX 14 14 0 -2
BITMAP
0000
3FF0
0200
7FF8
4208
5AE8
0200
1FE0
0000
7FF8
0820
1010
7FE8
0000
ENDCHAR

STARTCHAR Cb1c1
ENCODING 45505
SWIDTH 1000 0
DWIDTH 14 0
BBX 14 14 0 -2
BITMAP
0000
0840
7FF8
0840
0038
0BC0
0840
1040
33F8
5040
1040
1040
13F8
0000
ENDCHAR

STARTCHAR Cb1c2
ENCODING 45506
SWIDTH 1000 0
DWIDTH 14 0
BBX 14 14 0 -2
BITMAP
0000
1800
25F8
5090
3CF0
2490
3C90
24F0
3C90
2090
29F8
2410
7A10
0000
ENDCHAR

STARTCHAR Cb1c3
ENCODING 45507
SWIDTH 1000 0
DWIDTH 14 0
BBX 14 14 0 -2
BITMAP
0000
1C00
11F8
7E88
4288
1888
2450
5A50
2420
6620
3C50
2490
3D08
0000
ENDCHAR

STARTCHAR Cb1c4
ENCODING 45508
SWIDTH 1000 0
DWIDTH 14 0
BBX 14 14 0 -2
BITMAP
0000
2420
1240
7FF8
4008
5FE8
1020
1FE0
0400
3FF0
2010
2010
3FF0
0000
ENDCHAR

STARTCHAR Cb1c5
ENCODING 45509
SWIDTH 1000 0
DWIDTH 14 0
BBX 14 14 0 -2
BITMAP
0000
3CF0
2490
3CF0
2490
3CF0
2850
4488
7FF8
0840
1C80
0360
7C18
0000
ENDCHAR

STARTCHAR Cb1c6
ENCODING 45510
SWIDTH 1000 0
DWIDTH 14 0
BBX 14 14 0 -2
BITMAP
0000
3E10
2220
3E40
2280
7F10
0020
3E40
2380
3E08
0810
2A60
5980
0000
ENDCHAR

STARTCHAR Cb1c7
ENCODING 45511
SWIDTH 1000 0
DWIDTH 14 0
BBX 14 14 0 -2
BITMAP
0000
0080
7880
4BF0
4A90
4A90
7A90
4FF8
4880
4940
7920
0210
0408
0000
ENDCHAR

STARTCHAR Cb1c8
ENCODING 45512
SWIDTH 1000 0
DWIDTH 14 0
BBX 14 14 0 -2
BITMAP
0000
0200
0200
3FE0
2220
3FE0
2220
2220
3FE0
0280
0108
06C8
7838
0000
ENDCHAR

STARTCHAR Cb1c9
ENCODING 45513
SWIDTH 1000 0
DWIDTH 14 0
BBX 14 14 0 -2
BITMAP
0000
2420
1240
7FF8
4008
4208
0200
3FF0
0A80
0A40
1220
6218
0200
0000
ENDCHAR

STARTCHAR Cb1ca
ENCODING 45514
SWIDTH 1000 0
DWIDTH 14 0
BBX 14 14 0 -2
BITMAP
0000
0600
0180
0000
0F00
0110
3DA0
0540
0940
0920
1110
6108
0700
0000
ENDCHAR

STARTCHAR Cb1cb
ENCODING 45515
SWIDTH 1000 0
DWIDTH 14 0
BBX 14 14 0 -2
BITMAP
0000
2180
1040
0000
4380
2088
0ED0
12A0
12A0
2490
2490
4888
4180
0000
ENDCHAR

STARTCHAR Cb1cc
ENCODING 45516
SWIDTH 1000 0
DWIDTH 14 0
BBX 14 14 0 -2
BITMAP
0000
2080
1080
07F0
4490
27F0
0490
1490
17F0
20A0
2040
41A8
4E18
0000
ENDCHAR

STARTCHAR Cb1cd
ENCODING 45517
SWIDTH 1000 0
DWIDTH 14 0
BBX 14 14 0 -2
BITMAP
0000
0120
7FF8
1120
1080
13F0
7E90
1290
1290
1FF8
6140
0220
0C18
0000
ENDCHAR

STARTCHAR Cb1ce
ENCODING 45518
SWIDTH 1000 0
DWIDTH 14 0
BBX 14 14 0 -2
BITMAP
0000
3FE0
0820
0840
1F78
1508
2208
4D70
0000
3FF0
2490
2490
7FF8
0000
ENDCHAR

STARTCHAR Cb1cf
ENCODING 45519
SWIDTH 1000 0
DWIDTH 14 0
BBX 14 14 0 -2
BITMAP
0000
4DF8
7040
45F0
7D10
01F0
7D10
11F0
7D10
1110
39F0
54A0
1318
0000
ENDCHAR

STARTCHAR Cb1d0
ENCODING 45520
SWIDTH 1000 0
DWIDTH 14 0
BBX 14 14 0 -2
BITMAP
0000
4DF8
7040
45F0
7D10
01F0
3910
01F0
7D10
1110
35F0
54A0
3318
0000
ENDCHAR

STARTCHAR Cb1d1
ENCODING 45521
SWIDTH 1000 0
DWIDTH 14 0
BBX 14 14 0 -2
BITMAP
0000
0840
7FF8
0840
0200
1FE0
1220
1220
1220
7FF8
0500
08C0
7038
0000
ENDCHAR

STARTCHAR Cb1d2
ENCODING 45522
SWIDTH 1000 0
DWIDTH 14 0
BBX 14 14 0 -2
BITMAP
0000
1200
27B8
4280
17C0
1038
2790
6490
2FD0
2510
2FD0
2110
2130
0000
ENDCHAR

STARTCHAR Cb1d3
ENCODING 45523
SWIDTH 1000 0
DWIDTH 14 0
BBX 14 14 0 -2
BITMAP
0000
3980
0040
7C00
01C0
3848
0368
3950
0150
3A50
2A48
2C48
38C0
0000
ENDCHAR

STARTCHAR Cb1d4
ENCODING 45524
SWIDTH 1000 0
DWIDTH 14 0
BBX 14 14 0 -2
BITMAP
0000
1110
28A0
45F0
0110
7D10
1110
7DF0
10A0
54A0
5128
1D28
6238
0000
ENDCHAR

STARTCHAR Cb1d5
ENCODING 45525
SWIDTH 1000 0
DWIDTH 14 0
BBX 14 14 0 -2
BITMAP
0000
2080
17F8
0120
4120
2278
0248
16A8
1A90
2350
2220
4250
4288
0000
ENDCHAR

STARTCHAR Cb1d6
ENCODING 45526
SWIDTH 1000 0
DWIDTH 14 0
BBX 14 14 0 -2
BITMAP
0000
0100
1FF8
5000
33C0
1248
1478
3800
57E0
1220
2140
2180
4E78
0000
ENDCHAR

STARTCHAR Cb1d7
ENCODING 45527
SWIDTH 1000 0
DWIDTH 14 0
BBX 14 14 0 -2
BITMAP
0000
1020
0840
7FF8
0480
0840
1020
6018
1FE0
1520
1520
1520
7FF8
0000
ENDCHAR

STARTCHAR Cb1d8
ENCODING 45528
SWIDTH 1000 0
DWIDTH 14 0
BBX 14 14 0 -2
BITMAP
0000
0000
7DF8
5108
7D08
5108
7DF8
5120
7D20
0520
5510
4510
1A08
0000
ENDCHAR

STARTCHAR Cb1d9
ENCODING 45529
SWIDTH 1000 0
DWIDTH 14 0
BBX 14 14 0 -2
BITMAP
0000
1110
10A0
11F0
1510
5510
5510
51F0
10A0
10A0
1128
1128
1238
0000
ENDCHAR

STARTCHAR Cb1da
ENCODING 45530
SWIDTH 1000 0
DWIDTH 14 0
BBX 14 14 0 -2
BITMAP
0000
39F0
0110
7DF0
0110
39F0
0080
39F8
0608
39C8
2908
29C8
3830
0000
ENDCHAR

STARTCHAR Cb1db
ENCODING 45531
SWIDTH 1000 0
DWIDTH 14 0
BBX 14 14 0 -2
BITMAP
0000
1040
1048
7FF8
1240
1240
7E50
1250
5A20
5750
7088
5800
47F8
0000
ENDCHAR

STARTCHAR Cb1dc
ENCODING 45532
SWIDTH 1000 0
DWIDTH 14 0
BBX 14 14 0 -2
BITMAP
0000
7CF8
4488
7CF8
4488
7CF8
4488
4FC8
4848
4FC8
4508
4528
59F8
0000
ENDCHAR

STARTCHAR Cb1dd
ENCODING 45533
SWIDTH 1000 0
DWIDTH 14 0
BBX 14 14 0 -2
BITMAP
0000
17F8
1080
13F0
7E10
13F0
3210
5BF0
5500
53E0
1520
10C0
1738
0000
ENDCHAR

STARTCHAR Cb1de
ENCODING 45534
SWIDTH 1000 0
DWIDTH 14 0
BBX 14 14 0 -2
BITMAP
0000
3FF8
2000
2F20
2920
2F28
20F8
2F20
2920
2F50
2950
4F50
4988
0000
ENDCHAR

STARTCHAR Cb1df
ENCODING 45535
SWIDTH 1000 0
DWIDTH 14 0
BBX 14 14 0 -2
BITMAP
0000
0000
3FF0
2210
2210
2210
2210
3FF0
2010
2010
2010
2010
2030
0000
ENDCHAR

STARTCHAR Cb1e0
ENCODING 45536
SWIDTH 1000 0
DWIDTH 14 0
BBX 14 14 0 -2
BITMAP
0000
7FF8
4208
4FC8
4208
5FE8
4848
4FC8
4208
47A8
5A48
4228
7FF8
0000
ENDCHAR

STARTCHAR Cb1e1
ENCODING 45537
SWIDTH 1000 0
DWIDTH 14 0
BBX 14 14 0 -2
BITMAP
0000
17F8
1510
15F0
7D10
15F0
1480
17F8
1520
1D40
64A0
0510
07F8
0000
ENDCHAR

STARTCHAR Cb1e2
ENCODING 45538
SWIDTH 1000 0
DWIDTH 14 0
BBX 14 14 0 -2
BITMAP
0000
0200
0200
7FF8
0840
1220
3FD0
5248
1FC0
1240
1FC8
0208
03F8
0000
ENDCHAR

STARTCHAR Cb1e3
ENCODING 45539
SWIDTH 1000 0
DWIDTH 14 0
BBX 14 14 0 -2
BITMAP
0000
0200
7FF8
5028
5FE8
1020
1FE0
0400
7FF8
0840
1C80
0360
7C18
0000
ENDCHAR

STARTCHAR Cb1e4
ENCODING 45540
SWIDTH 1000 0
DWIDTH 14 0
BBX 14 14 0 -2
BITMAP
0000
0030
73C0
1040
1140
2170
3940
0940
4940
2BF8
1000
2C00
43F8
0000
ENDCHAR

STARTCHAR Cb1e5
ENCODING 45541
SWIDTH 1000 0
DWIDTH 14 0
BBX 14 14 0 -2
BITMAP
0000
1000
1EF0
2290
54B0
1480
0888
10F8
6200
0900
2910
2848
4FC8
0000
ENDCHAR

STARTCHAR Cb1e6
ENCODING 45542
SWIDTH 1000 0
DWIDTH 14 0
BBX 14 14 0 -2
BITMAP
0000
1080
1080
7FF8
1120
1290
17E8
1AA0
73E0
12A0
13E8
1088
30F8
0000
ENDCHAR

STARTCHAR Cb1e7
ENCODING 45543
SWIDTH 1000 0
DWIDTH 14 0
BBX 14 14 0 -2
BITMAP
0000
1070
1780
7A50
1150
17F8
1080
1FF8
7100
13E0
1520
10C0
3738
0000
ENDCHAR

STARTCHAR Cb1e8
ENCODING 45544
SWIDTH 1000 0
DWIDTH 14 0
BBX 14 14 0 -2
BITMAP
0000
2140
1140
0220
4220
2410
0808
07F0
1410
1410
2410
2410
47F0
0000
ENDCHAR

STARTCHAR Cb1e9
ENCODING 45545
SWIDTH 1000 0
DWIDTH 14 0
BBX 14 14 0 -2
BITMAP
0000
2080
1FF8
0808
4BE8
2080
07F0
1490
17F0
2490
27F0
4220
4C18
0000
ENDCHAR

STARTCHAR Cb1ea
ENCODING 45546
SWIDTH 1000 0
DWIDTH 14 0
BBX 14 14 0 -2
BITMAP
0000
0200
1220
2240
0580
1860
6210
0200
1220
1540
2480
0860
7018
0000
ENDCHAR

STARTCHAR Cb1eb
ENCODING 45547
SWIDTH 1000 0
DWIDTH 14 0
BBX 14 14 0 -2
BITMAP
0000
1080
1080
14F0
5910
5220
5040
12F8
1288
2AF8
2688
4288
42F8
0000
ENDCHAR

STARTCHAR Cb1ec
ENCODING 45548
SWIDTH 1000 0
DWIDTH 14 0
BBX 14 14 0 -2
BITMAP
0000
1000
13F8
14A0
5BF8
52A8
52A8
13F8
1040
29F0
2440
4040
43F8
0000
ENDCHAR

STARTCHAR Cb1ed
ENCODING 45549
SWIDTH 1000 0
DWIDTH 14 0
BBX 14 14 0 -2
BITMAP
0000
0480
7FF8
0480
17A0
1020
77B8
14A0
77A8
1038
2510
2488
4488
0000
ENDCHAR

STARTCHAR Cb1ee
ENCODING 45550
SWIDTH 1000 0
DWIDTH 14 0
BBX 14 14 0 -2
BITMAP
0000
4880
2BF0
1080
17F8
2800
4BF0
1A10
2BF0
4A40
0D50
0920
3398
0000
ENDCHAR

STARTCHAR Cb1ef
ENCODING 45551
SWIDTH 1000 0
DWIDTH 14 0
BBX 14 14 0 -2
BITMAP
0000
11E0
2020
45E0
2820
13F8
24A0
7D28
1290
5890
5548
5248
10C0
0000
ENDCHAR

STARTCHAR Cb1f0
ENCODING 45552
SWIDTH 1000 0
DWIDTH 14 0
BBX 14 14 0 -2
BITMAP
0000
1440
3E70
2A90
3FF8
2AA8
3EA8
00A8
7FF8
2280
3E80
1488
7EF8
0000
ENDCHAR

STARTCHAR Cb1f1
ENCODING 45553
SWIDTH 1000 0
DWIDTH 14 0
BBX 14 14 0 -2
BITMAP
0000
0840
7FF8
0840
1000
1EF0
1290
2290
5490
14B0
0880
1088
60F8
0000
ENDCHAR

STARTCHAR Cb1f2
ENCODING 45554
SWIDTH 1000 0
DWIDTH 14 0
BBX 14 14 0 -2
BITMAP
0000
0840
7FF8
0840
3FF0
2210
3FD0
2890
2F90
2250
2790
2A50
3FF0
0000
ENDCHAR

STARTCHAR Cb1f3
ENCODING 45555
SWIDTH 1000 0
DWIDTH 14 0
BBX 14 14 0 -2
BITMAP
0000
2080
13F0
1080
07F8
0220
73E0
1088
11D0
16A0
1090
2C00
43F8
0000
ENDCHAR

STARTCHAR Cb1f4
ENCODING 45556
SWIDTH 1000 0
DWIDTH 14 0
BBX 14 14 0 -2
BITMAP
0000
10A0
28A0
4510
0110
7A08
1208
7DF0
1110
5510
5110
1D10
61F0
0000
ENDCHAR

STARTCHAR Cb1f5
ENCODING 45557
SWIDTH 1000 0
DWIDTH 14 0
BBX 14 14 0 -2
BITMAP
0000
1EF0
2290
54B0
0880
1278
7FC0
1040
1FF8
1000
1FF0
2A90
4A60
0000
ENDCHAR

STARTCHAR Cb1f6
ENCODING 45558
SWIDTH 1000 0
DWIDTH 14 0
BBX 14 14 0 -2
BITMAP
0000
1200
13F0
1400
7BE0
1220
1220
13E0
1000
1FF0
6550
0550
0FF8
0000
ENDCHAR

STARTCHAR Cb1f7
ENCODING 45559
SWIDTH 1000 0
DWIDTH 14 0
BBX 14 14 0 -2
BITMAP
0000
1040
10A0
7D10
2208
2000
3D80
2460
2410
2400
2580
4460
5810
0000
ENDCHAR

STARTCHAR Cb1f8
ENCODING 45560
SWIDTH 1000 0
DWIDTH 14 0
BBX 14 14 0 -2
BITMAP
0000
2000
17F0
0100
4100
2FF8
0200
1200
13F0
2410
2410
4010
40E0
0000
ENDCHAR

STARTCHAR Cb1f9
ENCODING 45561
SWIDTH 1000 0
DWIDTH 14 0
BBX 14 14 0 -2
BITMAP
0000
1000
51F0
7D50
51F0
5150
11F0
7C80
13F8
1088
1C88
6108
0230
0000
ENDCHAR

STARTCHAR Cb1fa
ENCODING 45562
SWIDTH 1000 0
DWIDTH 14 0
BBX 14 14 0 -2
BITMAP
0000
0000
0000
3CF0
2490
2490
2490
2790
2010
2010
2010
3FF0
2010
0000
ENDCHAR

STARTCHAR Cb1fb
ENCODING 45563
SWIDTH 1000 0
DWIDTH 14 0
BBX 14 14 0 -2
BITMAP
0000
0200
0200
1FE0
1220
1220
1220
1220
7FF8
0500
0880
1060
6018
0000
ENDCHAR

STARTCHAR Cb1fc
ENCODING 45564
SWIDTH 1000 0
DWIDTH 14 0
BBX 14 14 0 -2
BITMAP
0000
0400
3FF0
2210
3250
2A90
3FF0
2A90
2A50
7FF8
0500
18C0
6038
0000
ENDCHAR

STARTCHAR Cb1fd
ENCODING 45565
SWIDTH 1000 0
DWIDTH 14 0
BBX 14 14 0 -2
BITMAP
0000
1100
1080
27F8
4880
0880
1080
33F0
5080
1080
1080
1080
17F8
0000
ENDCHAR

STARTCHAR Cb1fe
ENCODING 45566
SWIDTH 1000 0
DWIDTH 14 0
BBX 14 14 0 -2
BITMAP
0000
0100
3FF8
2200
2100
2080
22A0
2210
2A10
2A08
4A28
5220
43E0
0000
ENDCHAR

STARTCHAR Cb2a1
ENCODING 45729
SWIDTH 1000 0
DWIDTH 14 0
BBX 14 14 0 -2
BITMAP
0000
1000
13F8
7E48
1248
13F8
1248
1E48
73F8
1040
1040
1040
3040
0000
ENDCHAR

STARTCHAR Cb2a2
ENCODING 45730
SWIDTH 1000 0
DWIDTH 14 0
BBX 14 14 0 -2
BITMAP
0000
0000
7FF8
4880
4880
4880
7880
4BF0
4880
4880
7880
0080
07F8
0000
ENDCHAR

STARTCHAR Cb2a3
ENCODING 45731
SWIDTH 1000 0
DWIDTH 14 0
BBX 14 14 0 -2
BITMAP
0000
1120
13F0
1120
7FF8
1080
33F0
5A90
57F0
5290
13F0
1120
1618
0000
ENDCHAR

STARTCHAR Cb2a4
ENCODING 45732
SWIDTH 1000 0
DWIDTH 14 0
BBX 14 14 0 -2
BITMAP
0000
0080
7C80
40F8
6548
5548
4840
4840
54A0
64A0
4110
7D10
0208
0000
ENDCHAR

STARTCHAR Cb2a5
ENCODING 45733
SWIDTH 1000 0
DWIDTH 14 0
BBX 14 14 0 -2
BITMAP
0000
01E0
7D20
4120
6528
5638
4800
4BF0
5510
64A0
4040
7CA0
0318
0000
ENDCHAR

STARTCHAR Cb2a6
ENCODING 45734
SWIDTH 1000 0
DWIDTH 14 0
BBX 14 14 0 -2
BITMAP
0000
0000
3FF0
0200
0200
0200
0200
1FE0
0200
0200
0200
0200
7FF8
0000
ENDCHAR

STARTCHAR Cb2a7
ENCODING 45735
SWIDTH 1000 0
DWIDTH 14 0
BBX 14 14 0 -2
BITMAP
0000
0480
1860
6218
0440
1FA0
0000
7DF0
2490
1450
1C70
6590
0C30
0000
ENDCHAR

STARTCHAR Cb2a8
ENCODING 45736
SWIDTH 1000 0
DWIDTH 14 0
BBX 14 14 0 -2
BITMAP
0000
2080
27F8
7488
14A8
17F8
2488
25C8
72A0
2FF8
2140
2220
2C18
0000
ENDCHAR

STARTCHAR Cb2a9
ENCODING 45737
SWIDTH 1000 0
DWIDTH 14 0
BBX 14 14 0 -2
BITMAP
0000
2210
1120
7FF8
4408
5FE8
1020
1FF8
1000
1FF8
2008
2A88
4A58
0000
ENDCHAR

STARTCHAR Cb2aa
ENCODING 45738
SWIDTH 1000 0
DWIDTH 14 0
BBX 14 14 0 -2
BITMAP
0000
0080
7DE0
4120
65E0
5520
49F8
4900
55F8
6408
42A8
7AA8
0418
0000
ENDCHAR

STARTCHAR Cb2ab
ENCODING 45739
SWIDTH 1000 0
DWIDTH 14 0
BBX 14 14 0 -2
BITMAP
0000
0840
3FF0
0840
7FF8
0200
1FE0
1220
1FE0
1220
1FE0
0840
7038
0000
ENDCHAR

STARTCHAR Cb2ac
ENCODING 45740
SWIDTH 1000 0
DWIDTH 14 0
BBX 14 14 0 -2
BITMAP
0000
0000
7FF8
4008
4848
4488
5FE8
4208
4A48
4A48
4A48
4FC8
4038
0000
ENDCHAR

STARTCHAR Cb2ad
ENCODING 45741
SWIDTH 1000 0
DWIDTH 14 0
BBX 14 14 0 -2
BITMAP
0000
2080
1080
07F8
4488
2488
0488
1488
17F8
2080
2080
4080
4080
0000
ENDCHAR

STARTCHAR Cb2ae
ENCODING 45742
SWIDTH 1000 0
DWIDTH 14 0
BBX 14 14 0 -2
BITMAP
0000
0840
7FF8
0840
0000
2840
1148
2950
4A40
18A0
28A0
4910
1A08
0000
ENDCHAR

STARTCHAR Cb2af
ENCODING 45743
SWIDTH 1000 0
DWIDTH 14 0
BBX 14 14 0 -2
BITMAP
0000
0880
0BF0
1220
1140
37F8
5210
13F0
1210
13F0
1080
1528
19E8
0000
ENDCHAR

STARTCHAR Cb2b0
ENCODING 45744
SWIDTH 1000 0
DWIDTH 14 0
BBX 14 14 0 -2
BITMAP
0000
0000
3FF0
2010
3FF0
2000
3FF0
2420
2FD0
2100
2FF0
4100
5FF8
0000
ENDCHAR

STARTCHAR Cb2b1
ENCODING 45745
SWIDTH 1000 0
DWIDTH 14 0
BBX 14 14 0 -2
BITMAP
0000
1080
13F0
1220
1940
57F8
5210
53F0
1210
13F0
1080
1528
19E8
0000
ENDCHAR

STARTCHAR Cb2b2
ENCODING 45746
SWIDTH 1000 0
DWIDTH 14 0
BBX 14 14 0 -2
BITMAP
0000
0040
3FF8
2510
24A0
3FF8
2510
25F0
3D10
25F0
2480
45A8
4EE8
0000
ENDCHAR

STARTCHAR Cb2b3
ENCODING 45747
SWIDTH 1000 0
DWIDTH 14 0
BBX 14 14 0 -2
BITMAP
0000
1000
13F0
1010
7CA0
13F8
3248
5BF8
5648
53F8
1248
1248
1258
0000
ENDCHAR

STARTCHAR Cb2b4
ENCODING 45748
SWIDTH 1000 0
DWIDTH 14 0
BBX 14 14 0 -2
BITMAP
0000
1080
5080
5080
7C80
53F0
5080
1080
1C80
7080
1080
1080
17F8
0000
ENDCHAR

STARTCHAR Cb2b5
ENCODING 45749
SWIDTH 1000 0
DWIDTH 14 0
BBX 14 14 0 -2
BITMAP
0000
0000
0000
3FC0
0080
0300
0400
0800
1000
1010
2010
2010
1FF0
0000
ENDCHAR

STARTCHAR Cb2b6
ENCODING 45750
SWIDTH 1000 0
DWIDTH 14 0
BBX 14 14 0 -2
BITMAP
0000
0880
0880
0FF8
1240
1520
3FF0
5528
17E0
1520
17E8
1108
11F8
0000
ENDCHAR

STARTCHAR Cb2b7
ENCODING 45751
SWIDTH 1000 0
DWIDTH 14 0
BBX 14 14 0 -2
BITMAP
0000
1000
10F8
3E88
4888
0888
7E88
0888
2E88
28B8
2E80
7080
0080
0000
ENDCHAR

STARTCHAR Cb2b8
ENCODING 45752
SWIDTH 1000 0
DWIDTH 14 0
BBX 14 14 0 -2
BITMAP
0000
0000
3FF0
2210
2FD0
2210
2590
2850
3FF0
0200
2910
2848
4FC8
0000
ENDCHAR

STARTCHAR Cb2b9
ENCODING 45753
SWIDTH 1000 0
DWIDTH 14 0
BBX 14 14 0 -2
BITMAP
0000
2000
13E0
0220
43E0
2220
03E0
1000
17F0
2550
2550
4550
4FF8
0000
ENDCHAR

STARTCHAR Cb2ba
ENCODING 45754
SWIDTH 1000 0
DWIDTH 14 0
BBX 14 14 0 -2
BITMAP
0000
0C70
7380
1248
1150
7FF0
1010
39F0
5410
53F0
5140
1528
19E8
0000
ENDCHAR

STARTCHAR Cb2bb
ENCODING 45755
SWIDTH 1000 0
DWIDTH 14 0
BBX 14 14 0 -2
BITMAP
0000
0200
0200
3FF0
0840
0480
7FF8
0000
1FE0
1020
1FE0
1020
1FE0
0000
ENDCHAR

STARTCHAR Cb2bc
ENCODING 45756
SWIDTH 1000 0
DWIDTH 14 0
BBX 14 14 0 -2
BITMAP
0000
0000
7FF8
0200
0200
0300
02C0
0220
0210
0200
0200
0200
0200
0000
ENDCHAR

STARTCHAR Cb2bd
ENCODING 45757
SWIDTH 1000 0
DWIDTH 14 0
BBX 14 14 0 -2
BITMAP
0000
0900
0900
0900
1110
1160
3180
5100
1100
1100
1108
1108
10F8
0000
ENDCHAR

STARTCHAR Cb2be
ENCODING 45758
SWIDTH 1000 0
DWIDTH 14 0
BBX 14 14 0 -2
BITMAP
0000
0800
0BF8
0A00
1200
13F0
3290
5290
12A0
14A0
1440
18A0
1318
0000
ENDCHAR

STARTCHAR Cb2bf
ENCODING 45759
SWIDTH 1000 0
DWIDTH 14 0
BBX 14 14 0 -2
BITMAP
0000
0800
0BF8
0810
1010
13D0
3250
5250
1250
13D0
1010
1010
1070
0000
ENDCHAR

STARTCHAR Cb2c0
ENCODING 45760
SWIDTH 1000 0
DWIDTH 14 0
BBX 14 14 0 -2
BITMAP
0000
0A00
0A38
0A28
17A8
12A8
32A8
52A8
14A8
14A8
14A8
14A8
1B38
0000
ENDCHAR

STARTCHAR Cb2c1
ENCODING 45761
SWIDTH 1000 0
DWIDTH 14 0
BBX 14 14 0 -2
BITMAP
0000
0800
0FF8
0920
1120
17F8
3528
5528
1528
1528
1528
1528
17F8
0000
ENDCHAR

STARTCHAR Cb2c2
ENCODING 45762
SWIDTH 1000 0
DWIDTH 14 0
BBX 14 14 0 -2
BITMAP
0000
0880
0880
0BF0
1080
1080
37F8
5080
1080
13F0
1080
1080
17F8
0000
ENDCHAR

STARTCHAR Cb2c3
ENCODING 45763
SWIDTH 1000 0
DWIDTH 14 0
BBX 14 14 0 -2
BITMAP
0000
1000
1000
7EF8
1288
1288
1288
1288
1288
2288
2288
22F8
4C88
0000
ENDCHAR

STARTCHAR Cb2c4
ENCODING 45764
SWIDTH 1000 0
DWIDTH 14 0
BBX 14 14 0 -2
BITMAP
0000
0000
7FF8
0020
0020
1F20
1120
1120
1120
1F20
1020
0020
00E0
0000
ENDCHAR

STARTCHAR Cb2c5
ENCODING 45765
SWIDTH 1000 0
DWIDTH 14 0
BBX 14 14 0 -2
BITMAP
0000
0200
7FF8
0200
3FF0
1020
1FE0
0840
7FF8
1000
7EF8
1288
6CF8
0000
ENDCHAR

STARTCHAR Cb2c6
ENCODING 45766
SWIDTH 1000 0
DWIDTH 14 0
BBX 14 14 0 -2
BITMAP
0000
7FF8
0200
1FE0
1020
1FE0
1020
1FE0
0400
0FE0
3440
0380
7C78
0000
ENDCHAR

STARTCHAR Cb2c7
ENCODING 45767
SWIDTH 1000 0
DWIDTH 14 0
BBX 14 14 0 -2
BITMAP
0000
2040
23F8
2208
79F0
28A0
2928
4A90
4950
2A48
10A8
2920
4060
0000
ENDCHAR

STARTCHAR Cb2c8
ENCODING 45768
SWIDTH 1000 0
DWIDTH 14 0
BBX 14 14 0 -2
BITMAP
0000
0200
7FF8
4008
5FE8
0480
1A48
6550
1920
62A0
0C90
3088
0300
0000
ENDCHAR

STARTCHAR Cb2c9
ENCODING 45769
SWIDTH 1000 0
DWIDTH 14 0
BBX 14 14 0 -2
BITMAP
0000
0200
7FF8
4408
5FE8
1020
1FE0
1020
7FF8
1020
6FD8
0440
19C0
0000
ENDCHAR

STARTCHAR Cb2ca
ENCODING 45770
SWIDTH 1000 0
DWIDTH 14 0
BBX 14 14 0 -2
BITMAP
0000
0C20
7120
10A0
1020
7D20
10A0
3820
5438
53E0
5020
1020
1020
0000
ENDCHAR

STARTCHAR Cb2cb
ENCODING 45771
SWIDTH 1000 0
DWIDTH 14 0
BBX 14 14 0 -2
BITMAP
0000
0000
77B8
5488
5488
57B8
7400
57F8
5448
5450
7720
0450
0488
0000
ENDCHAR

STARTCHAR Cb2cc
ENCODING 45772
SWIDTH 1000 0
DWIDTH 14 0
BBX 14 14 0 -2
BITMAP
0000
0000
1FE0
1220
1FE0
1220
1FE0
0200
7FF8
0A80
1260
6218
0200
0000
ENDCHAR

STARTCHAR Cb2cd
ENCODING 45773
SWIDTH 1000 0
DWIDTH 14 0
BBX 14 14 0 -2
BITMAP
0000
1000
10F0
7E90
1290
2290
4CF0
0200
7FF8
0A80
1260
6218
0200
0000
ENDCHAR

STARTCHAR Cb2ce
ENCODING 45774
SWIDTH 1000 0
DWIDTH 14 0
BBX 14 14 0 -2
BITMAP
0000
7E80
0480
74F8
5548
7550
0050
7E40
04A0
74A0
5490
7510
0D08
0000
ENDCHAR

STARTCHAR Cb2cf
ENCODING 45775
SWIDTH 1000 0
DWIDTH 14 0
BBX 14 14 0 -2
BITMAP
0000
2000
17F8
0020
4020
27A0
04A0
14A0
14A0
27A0
2020
4020
40E0
0000
ENDCHAR

STARTCHAR Cb2d0
ENCODING 45776
SWIDTH 1000 0
DWIDTH 14 0
BBX 14 14 0 -2
BITMAP
0000
0200
0200
0210
1210
1220
1240
2500
2500
0880
0840
1020
6018
0000
ENDCHAR

STARTCHAR Cb2d1
ENCODING 45777
SWIDTH 1000 0
DWIDTH 14 0
BBX 14 14 0 -2
BITMAP
0000
0000
7FF8
1010
1010
13D0
7E50
1250
1250
13D0
1C10
6010
0070
0000
ENDCHAR

STARTCHAR Cb2d2
ENCODING 45778
SWIDTH 1000 0
DWIDTH 14 0
BBX 14 14 0 -2
BITMAP
0000
1000
11F0
7D10
0570
0950
13F8
3A08
56E8
12A8
12A8
12E8
1218
0000
ENDCHAR

STARTCHAR Cb2d3
ENCODING 45779
SWIDTH 1000 0
DWIDTH 14 0
BBX 14 14 0 -2
BITMAP
0000
0000
01E0
3E00
0200
0200
7FF8
0A80
0A40
1220
2210
4208
0200
0000
ENDCHAR

STARTCHAR Cb2d4
ENCODING 45780
SWIDTH 1000 0
DWIDTH 14 0
BBX 14 14 0 -2
BITMAP
0000
0C40
73F8
1208
11F0
7CA0
1128
3290
5950
5248
50A8
1120
1060
0000
ENDCHAR

STARTCHAR Cb2d5
ENCODING 45781
SWIDTH 1000 0
DWIDTH 14 0
BBX 14 14 0 -2
BITMAP
0000
2080
3EF8
5140
0820
3FF0
2210
2F90
2210
2F90
2890
2890
3FF0
0000
ENDCHAR

STARTCHAR Cb2d6
ENCODING 45782
SWIDTH 1000 0
DWIDTH 14 0
BBX 14 14 0 -2
BITMAP
0000
0840
7FF8
0840
0000
0900
0900
1130
31C0
5100
1108
1108
10F8
0000
ENDCHAR

STARTCHAR Cb2d7
ENCODING 45783
SWIDTH 1000 0
DWIDTH 14 0
BBX 14 14 0 -2
BITMAP
0000
0840
7FF8
0840
0000
7FF8
0020
1F20
1120
1120
1F20
0020
00E0
0000
ENDCHAR

STARTCHAR Cb2d8
ENCODING 45784
SWIDTH 1000 0
DWIDTH 14 0
BBX 14 14 0 -2
BITMAP
0000
0840
7FF8
0840
1000
1000
7EF8
1288
1288
1288
2288
2288
4CF8
0000
ENDCHAR

STARTCHAR Cb2d9
ENCODING 45785
SWIDTH 1000 0
DWIDTH 14 0
BBX 14 14 0 -2
BITMAP
0000
0840
7FF8
0840
0000
0BF8
0810
13D0
3250
5250
13D0
1010
1070
0000
ENDCHAR

STARTCHAR Cb2da
ENCODING 45786
SWIDTH 1000 0
DWIDTH 14 0
BBX 14 14 0 -2
BITMAP
0000
0840
7FF8
0840
3FF0
1240
7FF8
1240
3FF0
0200
7FF8
0200
0200
0000
ENDCHAR

STARTCHAR Cb2db
ENCODING 45787
SWIDTH 1000 0
DWIDTH 14 0
BBX 14 14 0 -2
BITMAP
0000
0840
7FF8
0840
0000
1FE0
1220
1FE0
1220
7FF8
0A80
1260
6218
0000
ENDCHAR

STARTCHAR Cb2dc
ENCODING 45788
SWIDTH 1000 0
DWIDTH 14 0
BBX 14 14 0 -2
BITMAP
0000
11D8
1148
7D48
55D8
5500
55F8
5528
7D28
11D0
1510
1D28
6548
0000
ENDCHAR

STARTCHAR Cb2dd
ENCODING 45789
SWIDTH 1000 0
DWIDTH 14 0
BBX 14 14 0 -2
BITMAP
0000
3DF0
0150
7DF0
0150
3DF0
0040
3FF8
0040
3CE0
2550
2648
3C40
0000
ENDCHAR

STARTCHAR Cb2de
ENCODING 45790
SWIDTH 1000 0
DWIDTH 14 0
BBX 14 14 0 -2
BITMAP
0000
0120
77F8
5120
57F8
52A0
5FF8
52A0
57F8
5080
77F8
0080
0080
0000
ENDCHAR

STARTCHAR Cb2df
ENCODING 45791
SWIDTH 1000 0
DWIDTH 14 0
BBX 14 14 0 -2
BITMAP
0000
0930
11C0
7108
11F8
1000
1FE0
1020
1FE0
1020
1FE0
0840
7038
0000
ENDCHAR

STARTCHAR Cb2e0
ENCODING 45792
SWIDTH 1000 0
DWIDTH 14 0
BBX 14 14 0 -2
BITMAP
0000
2200
1238
17A8
02A8
02A8
72A8
12A8
14A8
15B8
1000
2C00
43F8
0000
ENDCHAR

STARTCHAR Cb2e1
ENCODING 45793
SWIDTH 1000 0
DWIDTH 14 0
BBX 14 14 0 -2
BITMAP
0000
21F0
1110
1170
0150
03F8
7208
12E8
12A8
12E8
1218
2C00
43F8
0000
ENDCHAR

STARTCHAR Cb2e2
ENCODING 45794
SWIDTH 1000 0
DWIDTH 14 0
BBX 14 14 0 -2
BITMAP
0000
3FF0
0200
7FF8
4208
5AE8
0000
3DF0
2410
3DF0
2120
3CC0
2338
0000
ENDCHAR

STARTCHAR Cb2e3
ENCODING 45795
SWIDTH 1000 0
DWIDTH 14 0
BBX 14 14 0 -2
BITMAP
0000
1040
1040
7FF8
5510
5510
5510
54A0
7CA0
1040
14A0
1D10
6208
0000
ENDCHAR

STARTCHAR Cb2e4
ENCODING 45796
SWIDTH 1000 0
DWIDTH 14 0
BBX 14 14 0 -2
BITMAP
0000
1140
1650
1248
2240
2FF8
6240
2248
2348
2E50
2220
2250
2688
0000
ENDCHAR

STARTCHAR Cb2e5
ENCODING 45797
SWIDTH 1000 0
DWIDTH 14 0
BBX 14 14 0 -2
BITMAP
0000
10A0
1330
1128
5520
57F8
5520
5528
55A8
5710
7D10
0128
0348
0000
ENDCHAR

STARTCHAR Cb2e6
ENCODING 45798
SWIDTH 1000 0
DWIDTH 14 0
BBX 14 14 0 -2
BITMAP
0000
0680
38A0
0890
0880
7FF8
0880
0890
0E90
78A0
0848
08A8
3918
0000
ENDCHAR

STARTCHAR Cb2e7
ENCODING 45799
SWIDTH 1000 0
DWIDTH 14 0
BBX 14 14 0 -2
BITMAP
0000
0000
1FF0
1040
1040
1040
7FF8
0140
0240
0440
1840
6040
01C0
0000
ENDCHAR

STARTCHAR Cb2e8
ENCODING 45800
SWIDTH 1000 0
DWIDTH 14 0
BBX 14 14 0 -2
BITMAP
0000
0000
7FF8
0200
0200
5FE8
5228
5FE8
5228
5228
5FE8
4008
7FF8
0000
ENDCHAR

STARTCHAR Cb2e9
ENCODING 45801
SWIDTH 1000 0
DWIDTH 14 0
BBX 14 14 0 -2
BITMAP
0000
0040
7E40
5040
5040
7C40
44A0
44A0
7CA0
5110
5110
7E08
0408
0000
ENDCHAR

STARTCHAR Cb2ea
ENCODING 45802
SWIDTH 1000 0
DWIDTH 14 0
BBX 14 14 0 -2
BITMAP
0000
0840
7FF8
0840
0000
1FF0
0840
0840
7FF8
0240
0440
1840
61C0
0000
ENDCHAR

STARTCHAR Cb2eb
ENCODING 45803
SWIDTH 1000 0
DWIDTH 14 0
BBX 14 14 0 -2
BITMAP
0000
10A0
1330
7D28
5520
57F8
5520
7D28
11A8
1310
1510
1D28
6348
0000
ENDCHAR

STARTCHAR Cb2ec
ENCODING 45804
SWIDTH 1000 0
DWIDTH 14 0
BBX 14 14 0 -2
BITMAP
0000
1000
7EF8
1288
26F8
4000
1FE0
1020
1FE0
1020
1FE0
0840
7038
0000
ENDCHAR

STARTCHAR Cb2ed
ENCODING 45805
SWIDTH 1000 0
DWIDTH 14 0
BBX 14 14 0 -2
BITMAP
0000
0090
7CA0
29F8
2920
2B20
7DF8
0920
1920
29F8
4920
0920
19F8
0000
ENDCHAR

STARTCHAR Cb2ee
ENCODING 45806
SWIDTH 1000 0
DWIDTH 14 0
BBX 14 14 0 -2
BITMAP
0000
18A0
2730
5128
3D20
27F8
3D20
2528
3DA8
2310
2110
2928
7748
0000
ENDCHAR

STARTCHAR Cb2ef
ENCODING 45807
SWIDTH 1000 0
DWIDTH 14 0
BBX 14 14 0 -2
BITMAP
0000
1000
7EF8
1288
26F8
4000
1FE0
1100
1FE0
1100
1FF8
2A88
4AB0
0000
ENDCHAR

STARTCHAR Cb2f0
ENCODING 45808
SWIDTH 1000 0
DWIDTH 14 0
BBX 14 14 0 -2
BITMAP
0000
0200
0500
0880
1060
6018
0080
0880
0880
0880
1080
1080
2080
0000
ENDCHAR

STARTCHAR Cb2f1
ENCODING 45809
SWIDTH 1000 0
DWIDTH 14 0
BBX 14 14 0 -2
BITMAP
0000
0200
0500
0880
1060
6F98
0000
0000
7FF8
0840
0820
11D0
7E10
0000
ENDCHAR

STARTCHAR Cb2f2
ENCODING 45810
SWIDTH 1000 0
DWIDTH 14 0
BBX 14 14 0 -2
BITMAP
0000
1000
1DF8
2448
4848
3E98
2AA0
3EF8
2B20
3E20
23F8
4220
4620
0000
ENDCHAR

STARTCHAR Cb2f3
ENCODING 45811
SWIDTH 1000 0
DWIDTH 14 0
BBX 14 14 0 -2
BITMAP
0000
0000
3FF0
2010
2010
2790
2490
2490
2790
2010
2010
3FF0
2010
0000
ENDCHAR

STARTCHAR Cb2f4
ENCODING 45812
SWIDTH 1000 0
DWIDTH 14 0
BBX 14 14 0 -2
BITMAP
0000
0100
17F0
1490
17F0
7C90
1490
17F0
12A0
1EA8
62F8
0488
18F8
0000
ENDCHAR

STARTCHAR Cb2f5
ENCODING 45813
SWIDTH 1000 0
DWIDTH 14 0
BBX 14 14 0 -2
BITMAP
0000
0040
13F8
1040
13F8
7EA8
13F8
1040
13F8
1CA0
6328
0150
0188
0000
ENDCHAR

STARTCHAR Cb2f6
ENCODING 45814
SWIDTH 1000 0
DWIDTH 14 0
BBX 14 14 0 -2
BITMAP
0000
0000
73F8
1208
12E8
22A8
3AA8
0AE8
4A08
2BF8
1000
2C00
43F8
0000
ENDCHAR

STARTCHAR Cb2f7
ENCODING 45815
SWIDTH 1000 0
DWIDTH 14 0
BBX 14 14 0 -2
BITMAP
0000
1080
1080
13F0
1890
5490
5090
57F8
1080
1140
1120
1210
1408
0000
ENDCHAR

STARTCHAR Cb2f8
ENCODING 45816
SWIDTH 1000 0
DWIDTH 14 0
BBX 14 14 0 -2
BITMAP
0000
1000
13F0
1110
18A0
5440
50A0
5358
1040
11F0
1040
1040
13F8
0000
ENDCHAR

STARTCHAR Cb2f9
ENCODING 45817
SWIDTH 1000 0
DWIDTH 14 0
BBX 14 14 0 -2
BITMAP
0000
1100
11F8
1A00
15F0
5150
5150
57F8
1250
1250
13F8
1010
1060
0000
ENDCHAR

STARTCHAR Cb2fa
ENCODING 45818
SWIDTH 1000 0
DWIDTH 14 0
BBX 14 14 0 -2
BITMAP
0000
1000
13F8
1200
1A20
56A8
52A8
52A8
1220
1250
1450
1488
1108
0000
ENDCHAR

STARTCHAR Cb2fb
ENCODING 45819
SWIDTH 1000 0
DWIDTH 14 0
BBX 14 14 0 -2
BITMAP
0000
1040
13F8
1040
1BF8
56A8
53F8
5040
17F8
10A0
1128
1750
1188
0000
ENDCHAR

STARTCHAR Cb2fc
ENCODING 45820
SWIDTH 1000 0
DWIDTH 14 0
BBX 14 14 0 -2
BITMAP
0000
00A0
0090
7FF8
0080
1490
1490
7EA0
14A0
1448
24A8
4110
0208
0000
ENDCHAR

STARTCHAR Cb2fd
ENCODING 45821
SWIDTH 1000 0
DWIDTH 14 0
BBX 14 14 0 -2
BITMAP
0000
1000
11F0
7D10
1110
1110
11F0
1C00
73F8
1088
1088
1108
3630
0000
ENDCHAR

STARTCHAR Cb2fe
ENCODING 45822
SWIDTH 1000 0
DWIDTH 14 0
BBX 14 14 0 -2
BITMAP
0000
0080
7880
08F8
0910
7910
4290
40A0
44A0
4440
7CA0
0110
0208
0000
ENDCHAR

STARTCHAR Cb3a1
ENCODING 45985
SWIDTH 1000 0
DWIDTH 14 0
BBX 14 14 0 -2
BITMAP
0000
2020
7D20
54A0
7C20
5520
54A0
7C38
29E0
2A20
2E28
4808
4FF8
0000
ENDCHAR

STARTCHAR Cb3a2
ENCODING 45986
SWIDTH 1000 0
DWIDTH 14 0
BBX 14 14 0 -2
BITMAP
0000
0100
79F8
4A00
4BF0
4D50
7950
4FF8
4A50
4A50
7BF8
0010
0060
0000
ENDCHAR

STARTCHAR Cb3a3
ENCODING 45987
SWIDTH 1000 0
DWIDTH 14 0
BBX 14 14 0 -2
BITMAP
0000
1020
1028
13F8
7C20
1020
32A0
5AA8
57E8
5290
1290
1428
10C8
0000
ENDCHAR

STARTCHAR Cb3a4
ENCODING 45988
SWIDTH 1000 0
DWIDTH 14 0
BBX 14 14 0 -2
BITMAP
0000
2200
13F8
0400
4BF0
2290
0290
0FF8
1490
1490
27F8
2010
40E0
0000
ENDCHAR

STARTCHAR Cb3a5
ENCODING 45989
SWIDTH 1000 0
DWIDTH 14 0
BBX 14 14 0 -2
BITMAP
0000
0000
1FF8
1000
1080
1090
1290
12A0
1480
1140
2120
2210
4C08
0000
ENDCHAR

STARTCHAR Cb3a6
ENCODING 45990
SWIDTH 1000 0
DWIDTH 14 0
BBX 14 14 0 -2
BITMAP
0000
0000
1FE0
1220
1FE0
1220
1FE0
0480
1860
6498
0480
0880
3080
0000
ENDCHAR

STARTCHAR Cb3a7
ENCODING 45991
SWIDTH 1000 0
DWIDTH 14 0
BBX 14 14 0 -2
BITMAP
0000
1080
10B0
1EC0
1088
1EF8
6000
0200
1FE0
1020
1FE0
1020
1FE0
0000
ENDCHAR

STARTCHAR Cb3a8
ENCODING 45992
SWIDTH 1000 0
DWIDTH 14 0
BBX 14 14 0 -2
BITMAP
0000
1040
20A0
4510
2A08
11F0
2400
7C00
13F8
5480
54A0
5110
13E8
0000
ENDCHAR

STARTCHAR Cb3a9
ENCODING 45993
SWIDTH 1000 0
DWIDTH 14 0
BBX 14 14 0 -2
BITMAP
0000
0840
7FF8
0840
0200
0500
0880
1060
6898
0880
0880
1080
2080
0000
ENDCHAR

STARTCHAR Cb3aa
ENCODING 45994
SWIDTH 1000 0
DWIDTH 14 0
BBX 14 14 0 -2
BITMAP
0000
3DF0
4890
3F30
2A40
3FF8
2240
2240
5FE0
1220
1FE0
0210
7FE8
0000
ENDCHAR

STARTCHAR Cb3ab
ENCODING 45995
SWIDTH 1000 0
DWIDTH 14 0
BBX 14 14 0 -2
BITMAP
0000
7CF8
4488
7CF8
4488
7CF8
4008
4FC8
4488
5FE8
4488
4488
48B8
0000
ENDCHAR

STARTCHAR Cb3ac
ENCODING 45996
SWIDTH 1000 0
DWIDTH 14 0
BBX 14 14 0 -2
BITMAP
0000
7A20
4BB8
5220
53A8
6638
5080
4BF0
4A10
4BF0
7210
4210
43F0
0000
ENDCHAR

STARTCHAR Cb3ad
ENCODING 45997
SWIDTH 1000 0
DWIDTH 14 0
BBX 14 14 0 -2
BITMAP
0000
0000
1FE0
1020
1FE0
1020
1FE0
1020
1020
1FE0
0000
1860
6018
0000
ENDCHAR

STARTCHAR Cb3ae
ENCODING 45998
SWIDTH 1000 0
DWIDTH 14 0
BBX 14 14 0 -2
BITMAP
0000
1000
55E0
7D20
0120
7D20
0120
7D20
4520
7D20
2928
2E28
7238
0000
ENDCHAR

STARTCHAR Cb3af
ENCODING 45999
SWIDTH 1000 0
DWIDTH 14 0
BBX 14 14 0 -2
BITMAP
0000
0840
0840
7E40
11F8
2048
4448
2848
1248
2488
4888
1508
6230
0000
ENDCHAR

STARTCHAR Cb3b0
ENCODING 46000
SWIDTH 1000 0
DWIDTH 14 0
BBX 14 14 0 -2
BITMAP
0000
1040
1040
1E40
1240
1340
32C0
2A60
4458
0440
0840
1040
2040
0000
ENDCHAR

STARTCHAR Cb3b1
ENCODING 46001
SWIDTH 1000 0
DWIDTH 14 0
BBX 14 14 0 -2
BITMAP
0000
0080
7880
4FF8
4900
4A20
4940
4890
4920
4A40
78A0
0110
0608
0000
ENDCHAR

STARTCHAR Cb3b2
ENCODING 46002
SWIDTH 1000 0
DWIDTH 14 0
BBX 14 14 0 -2
BITMAP
0000
0200
7FF8
4208
5FE8
0200
0FC0
0200
7FF8
0000
1FE0
1020
1FE0
0000
ENDCHAR

STARTCHAR Cb3b3
ENCODING 46003
SWIDTH 1000 0
DWIDTH 14 0
BBX 14 14 0 -2
BITMAP
0000
1110
1110
1FF0
0000
3FF8
2100
2FF0
2100
3FF8
2100
4100
5FF8
0000
ENDCHAR

STARTCHAR Cb3b4
ENCODING 46004
SWIDTH 1000 0
DWIDTH 14 0
BBX 14 14 0 -2
BITMAP
0000
1000
1778
1550
1F50
5550
57F8
5420
1420
1530
1F50
1150
1098
0000
ENDCHAR

STARTCHAR Cb3b5
ENCODING 46005
SWIDTH 1000 0
DWIDTH 14 0
BBX 14 14 0 -2
BITMAP
0000
1000
1778
1550
7F50
1550
37F8
5C20
5420
5530
1F50
1150
1098
0000
ENDCHAR

STARTCHAR Cb3b6
ENCODING 46006
SWIDTH 1000 0
DWIDTH 14 0
BBX 14 14 0 -2
BITMAP
0000
2000
17F8
0440
45F0
2440
0440
17F8
1440
25F0
2440
4840
4BF8
0000
ENDCHAR

STARTCHAR Cb3b7
ENCODING 46007
SWIDTH 1000 0
DWIDTH 14 0
BBX 14 14 0 -2
BITMAP
0000
01F0
7D10
11F0
1110
21F0
3800
6BF8
2810
2BF8
2910
3890
0030
0000
ENDCHAR

STARTCHAR Cb3b8
ENCODING 46008
SWIDTH 1000 0
DWIDTH 14 0
BBX 14 14 0 -2
BITMAP
0000
0840
7FF8
0A40
1FE0
0200
7FF8
0820
3FD0
0000
1FE0
14A0
7FF8
0000
ENDCHAR

STARTCHAR Cb3b9
ENCODING 46009
SWIDTH 1000 0
DWIDTH 14 0
BBX 14 14 0 -2
BITMAP
0000
1100
1138
27C0
4900
0938
17D0
3110
57D0
1110
11D0
1610
1030
0000
ENDCHAR

STARTCHAR Cb3ba
ENCODING 46010
SWIDTH 1000 0
DWIDTH 14 0
BBX 14 14 0 -2
BITMAP
0000
3C40
0040
7FF8
0040
3C80
0110
3CA0
0048
3C90
2520
2450
3D88
0000
ENDCHAR

STARTCHAR Cb3bb
ENCODING 46011
SWIDTH 1000 0
DWIDTH 14 0
BBX 14 14 0 -2
BITMAP
0000
1040
2950
45F0
0000
7DF8
1000
7DF0
1110
55F0
50A0
1CA0
63F8
0000
ENDCHAR

STARTCHAR Cb3bc
ENCODING 46012
SWIDTH 1000 0
DWIDTH 14 0
BBX 14 14 0 -2
BITMAP
0000
3E20
2220
2EF8
2A40
7F88
4150
3E20
2248
3E90
2220
2250
2688
0000
ENDCHAR

STARTCHAR Cb3bd
ENCODING 46013
SWIDTH 1000 0
DWIDTH 14 0
BBX 14 14 0 -2
BITMAP
0000
27F0
1490
0490
47F0
2490
0490
17F0
1080
27F0
2080
4080
4FF8
0000
ENDCHAR

STARTCHAR Cb3be
ENCODING 46014
SWIDTH 1000 0
DWIDTH 14 0
BBX 14 14 0 -2
BITMAP
0000
08E0
7EA8
0938
7E00
25F0
3C90
4060
1F98
0200
7FF8
2850
4FC8
0000
ENDCHAR

STARTCHAR Cb3bf
ENCODING 46015
SWIDTH 1000 0
DWIDTH 14 0
BBX 14 14 0 -2
BITMAP
0000
1040
1040
7DF0
5440
5440
57F8
5440
7C40
11F0
1440
1C40
63F8
0000
ENDCHAR

STARTCHAR Cb3c0
ENCODING 46016
SWIDTH 1000 0
DWIDTH 14 0
BBX 14 14 0 -2
BITMAP
0000
0000
13F8
1000
11F0
7D10
1110
11F0
1110
1D10
61F0
0000
03F8
0000
ENDCHAR

STARTCHAR Cb3c1
ENCODING 46017
SWIDTH 1000 0
DWIDTH 14 0
BBX 14 14 0 -2
BITMAP
0000
1040
1040
13F8
7C40
1040
33F8
5A48
5648
5248
1258
1040
1040
0000
ENDCHAR

STARTCHAR Cb3c2
ENCODING 46018
SWIDTH 1000 0
DWIDTH 14 0
BBX 14 14 0 -2
BITMAP
0000
1000
11F8
7D00
55F8
5540
5540
5578
7D48
1148
1548
1E88
62B0
0000
ENDCHAR

STARTCHAR Cb3c3
ENCODING 46019
SWIDTH 1000 0
DWIDTH 14 0
BBX 14 14 0 -2
BITMAP
0000
1080
2880
44F8
0108
7E08
1088
7C88
1128
55E8
5008
1C08
6030
0000
ENDCHAR

STARTCHAR Cb3c4
ENCODING 46020
SWIDTH 1000 0
DWIDTH 14 0
BBX 14 14 0 -2
BITMAP
0000
0810
3E10
0A50
7F50
0A50
7FD0
2A50
3E50
2A50
3E10
0010
7F70
0000
ENDCHAR

STARTCHAR Cb3c5
ENCODING 46021
SWIDTH 1000 0
DWIDTH 14 0
BBX 14 14 0 -2
BITMAP
0000
0220
7220
5778
5220
5220
5FF8
5550
5558
5DD0
7550
0550
0B90
0000
ENDCHAR

STARTCHAR Cb3c6
ENCODING 46022
SWIDTH 1000 0
DWIDTH 14 0
BBX 14 14 0 -2
BITMAP
0000
0400
07C0
0840
1480
2300
0480
1860
6FD8
0840
0840
0840
0FC0
0000
ENDCHAR

STARTCHAR Cb3c7
ENCODING 46023
SWIDTH 1000 0
DWIDTH 14 0
BBX 14 14 0 -2
BITMAP
0000
0100
3FF8
2400
3FF8
2948
2F50
2050
2F48
2248
3FF0
4440
4C40
0000
ENDCHAR

STARTCHAR Cb3c8
ENCODING 46024
SWIDTH 1000 0
DWIDTH 14 0
BBX 14 14 0 -2
BITMAP
0000
1040
13F8
7A00
1240
1240
1240
1A50
7290
1288
12B8
15C8
3408
0000
ENDCHAR

STARTCHAR Cb3c9
ENCODING 46025
SWIDTH 1000 0
DWIDTH 14 0
BBX 14 14 0 -2
BITMAP
0000
1488
1250
7FF8
1408
13F0
1210
1BF0
7210
13F0
1140
1248
3478
0000
ENDCHAR

STARTCHAR Cb3ca
ENCODING 46026
SWIDTH 1000 0
DWIDTH 14 0
BBX 14 14 0 -2
BITMAP
0000
1080
10F0
1110
7EA0
1040
30A0
5910
57F8
5110
1110
1110
11F0
0000
ENDCHAR

STARTCHAR Cb3cb
ENCODING 46027
SWIDTH 1000 0
DWIDTH 14 0
BBX 14 14 0 -2
BITMAP
0000
1040
1040
13F8
7C40
1080
3110
58A0
5448
5090
1120
1050
1188
0000
ENDCHAR

STARTCHAR Cb3cc
ENCODING 46028
SWIDTH 1000 0
DWIDTH 14 0
BBX 14 14 0 -2
BITMAP
0000
10E0
7EA0
10A0
7CA8
0138
7E00
43F0
3890
28A0
2A40
2EA0
4118
0000
ENDCHAR

STARTCHAR Cb3cd
ENCODING 46029
SWIDTH 1000 0
DWIDTH 14 0
BBX 14 14 0 -2
BITMAP
0000
4920
2FF8
1120
13F0
2E40
4BF0
1A40
2BF8
4A10
0920
08C0
3338
0000
ENDCHAR

STARTCHAR Cb3ce
ENCODING 46030
SWIDTH 1000 0
DWIDTH 14 0
BBX 14 14 0 -2
BITMAP
0000
0040
7FF8
1288
1090
2120
3BF8
6D40
29F0
2940
29F0
3940
01F8
0000
ENDCHAR

STARTCHAR Cb3cf
ENCODING 46031
SWIDTH 1000 0
DWIDTH 14 0
BBX 14 14 0 -2
BITMAP
0000
0CA0
73F8
10A0
11F8
7D20
13F8
3920
55F8
5108
5090
1060
1198
0000
ENDCHAR

STARTCHAR Cb3d0
ENCODING 46032
SWIDTH 1000 0
DWIDTH 14 0
BBX 14 14 0 -2
BITMAP
0000
2420
1240
7FF8
4008
5FE8
1020
1FE0
1020
1FE0
0488
0888
70F8
0000
ENDCHAR

STARTCHAR Cb3d1
ENCODING 46033
SWIDTH 1000 0
DWIDTH 14 0
BBX 14 14 0 -2
BITMAP
0000
0400
07C0
0880
1100
3FF0
5110
1FF0
1110
1FF0
2010
2010
4070
0000
ENDCHAR

STARTCHAR Cb3d2
ENCODING 46034
SWIDTH 1000 0
DWIDTH 14 0
BBX 14 14 0 -2
BITMAP
0000
0840
0840
3EF0
0840
0840
7FF8
14A0
35B0
56A8
14A0
24A0
4D60
0000
ENDCHAR

STARTCHAR Cb3d3
ENCODING 46035
SWIDTH 1000 0
DWIDTH 14 0
BBX 14 14 0 -2
BITMAP
0000
1040
7C40
13F8
7C00
5510
7E08
54A0
7CA0
1040
7CA0
1110
1208
0000
ENDCHAR

STARTCHAR Cb3d4
ENCODING 46036
SWIDTH 1000 0
DWIDTH 14 0
BBX 14 14 0 -2
BITMAP
0000
1000
7EF8
0088
3C90
24A0
3C90
0090
3C88
0888
7EF0
0880
1880
0000
ENDCHAR

STARTCHAR Cb3d5
ENCODING 46037
SWIDTH 1000 0
DWIDTH 14 0
BBX 14 14 0 -2
BITMAP
0000
7CF8
4488
7CF8
4408
4788
4C88
5308
4488
5FE8
4488
4788
4018
0000
ENDCHAR

STARTCHAR Cb3d6
ENCODING 46038
SWIDTH 1000 0
DWIDTH 14 0
BBX 14 14 0 -2
BITMAP
0000
03F8
7800
49F0
5110
61F0
5000
4BF8
4AA8
4B38
72E8
4248
4258
0000
ENDCHAR

STARTCHAR Cb3d7
ENCODING 46039
SWIDTH 1000 0
DWIDTH 14 0
BBX 14 14 0 -2
BITMAP
0000
0840
7FF8
0840
0FC0
0200
1FE0
1220
1FE0
0200
7FF8
0200
0200
0000
ENDCHAR

STARTCHAR Cb3d8
ENCODING 46040
SWIDTH 1000 0
DWIDTH 14 0
BBX 14 14 0 -2
BITMAP
0000
1210
0920
7FF8
4008
4FC8
0080
0100
7FF8
0100
0100
0100
0700
0000
ENDCHAR

STARTCHAR Cb3d9
ENCODING 46041
SWIDTH 1000 0
DWIDTH 14 0
BBX 14 14 0 -2
BITMAP
0000
01C0
1E00
1000
1FF0
1040
1040
1040
7FF8
0200
2210
2210
3FF0
0000
ENDCHAR

STARTCHAR Cb3da
ENCODING 46042
SWIDTH 1000 0
DWIDTH 14 0
BBX 14 14 0 -2
BITMAP
0000
0200
4FC8
2850
0FC0
2850
4FC8
0200
7FF8
0A80
1260
6218
0200
0000
ENDCHAR

STARTCHAR Cb3db
ENCODING 46043
SWIDTH 1000 0
DWIDTH 14 0
BBX 14 14 0 -2
BITMAP
0000
1000
7FF8
5240
1DF0
2510
55F0
0910
15F0
6310
3DF0
24A0
3F18
0000
ENDCHAR

STARTCHAR Cb3dc
ENCODING 46044
SWIDTH 1000 0
DWIDTH 14 0
BBX 14 14 0 -2
BITMAP
0000
0000
7DF8
5440
7DF0
0110
7DF0
0110
7FF0
2110
3DF0
04A0
1B18
0000
ENDCHAR

STARTCHAR Cb3dd
ENCODING 46045
SWIDTH 1000 0
DWIDTH 14 0
BBX 14 14 0 -2
BITMAP
0000
1120
1120
7BA0
1120
1120
17F0
1928
7120
13A0
1120
1120
37E0
0000
ENDCHAR

STARTCHAR Cb3de
ENCODING 46046
SWIDTH 1000 0
DWIDTH 14 0
BBX 14 14 0 -2
BITMAP
0000
1040
1E78
28A0
4510
0210
0200
3FF0
0840
0840
0480
0480
7FF8
0000
ENDCHAR

STARTCHAR Cb3df
ENCODING 46047
SWIDTH 1000 0
DWIDTH 14 0
BBX 14 14 0 -2
BITMAP
0000
17F8
1528
17A8
7C90
1790
3528
5FC8
5080
53F0
1080
1080
17F8
0000
ENDCHAR

STARTCHAR Cb3e0
ENCODING 46048
SWIDTH 1000 0
DWIDTH 14 0
BBX 14 14 0 -2
BITMAP
0000
1000
17F8
1290
7BF0
1290
37F8
5800
57F0
5290
13F0
1290
17F8
0000
ENDCHAR

STARTCHAR Cb3e1
ENCODING 46049
SWIDTH 1000 0
DWIDTH 14 0
BBX 14 14 0 -2
BITMAP
0000
1000
13F0
1210
7FF0
1200
32E0
5A40
57F0
5240
13F0
1440
1478
0000
ENDCHAR

STARTCHAR Cb3e2
ENCODING 46050
SWIDTH 1000 0
DWIDTH 14 0
BBX 14 14 0 -2
BITMAP
0000
20A0
3B20
4928
1128
7FE8
5520
7D20
57A0
7D50
0150
5548
5588
0000
ENDCHAR

STARTCHAR Cb3e3
ENCODING 46051
SWIDTH 1000 0
DWIDTH 14 0
BBX 14 14 0 -2
BITMAP
0000
2100
1670
0410
4770
2410
07F0
1200
13F8
2408
2858
4548
4538
0000
ENDCHAR

STARTCHAR Cb3e4
ENCODING 46052
SWIDTH 1000 0
DWIDTH 14 0
BBX 14 14 0 -2
BITMAP
0000
0808
7F08
4948
3E48
0848
3E48
0848
7F48
0048
3E08
2208
3E38
0000
ENDCHAR

STARTCHAR Cb3e5
ENCODING 46053
SWIDTH 1000 0
DWIDTH 14 0
BBX 14 14 0 -2
BITMAP
0000
03F0
7A10
4BF0
4A10
4BF0
4900
4BF8
4E08
4B88
7A28
03E8
0018
0000
ENDCHAR

STARTCHAR Cb3e6
ENCODING 46054
SWIDTH 1000 0
DWIDTH 14 0
BBX 14 14 0 -2
BITMAP
0000
10C0
1120
1210
1408
59E0
5400
5000
13F0
1210
1210
1210
13F0
0000
ENDCHAR

STARTCHAR Cb3e7
ENCODING 46055
SWIDTH 1000 0
DWIDTH 14 0
BBX 14 14 0 -2
BITMAP
0000
1030
11C0
7C40
1040
13F8
1040
1C40
71F0
1110
1110
1110
31F0
0000
ENDCHAR

STARTCHAR Cb3e8
ENCODING 46056
SWIDTH 1000 0
DWIDTH 14 0
BBX 14 14 0 -2
BITMAP
0000
2070
1780
0080
4080
2FF8
0080
1080
17F0
2410
2410
4410
47F0
0000
ENDCHAR

STARTCHAR Cb3e9
ENCODING 46057
SWIDTH 1000 0
DWIDTH 14 0
BBX 14 14 0 -2
BITMAP
0000
27F0
1410
07F0
4410
27F0
0100
13F8
1608
2B88
2228
43E8
4018
0000
ENDCHAR

STARTCHAR Cb3ea
ENCODING 46058
SWIDTH 1000 0
DWIDTH 14 0
BBX 14 14 0 -2
BITMAP
0000
23F0
1210
0270
4250
27F8
0408
13F0
1210
23F0
2210
4210
4230
0000
ENDCHAR

STARTCHAR Cb3eb
ENCODING 46059
SWIDTH 1000 0
DWIDTH 14 0
BBX 14 14 0 -2
BITMAP
0000
0840
7FF8
0840
1FE0
1020
1FE0
1020
1FF8
3108
5E08
1088
1FB0
0000
ENDCHAR

STARTCHAR Cb3ec
ENCODING 46060
SWIDTH 1000 0
DWIDTH 14 0
BBX 14 14 0 -2
BITMAP
0000
13F0
1210
7BF0
0A10
13F0
1100
35F8
5B08
15C8
1108
11C8
1030
0000
ENDCHAR

STARTCHAR Cb3ed
ENCODING 46061
SWIDTH 1000 0
DWIDTH 14 0
BBX 14 14 0 -2
BITMAP
0000
1040
7FF8
1248
7DF0
5440
7DF0
5440
7FF8
1000
7DF0
1110
11F0
0000
ENDCHAR

STARTCHAR Cb3ee
ENCODING 46062
SWIDTH 1000 0
DWIDTH 14 0
BBX 14 14 0 -2
BITMAP
0000
0000
1FE0
1020
1020
1FE0
1020
1020
1FE0
1020
1020
1020
7FF8
0000
ENDCHAR

STARTCHAR Cb3ef
ENCODING 46063
SWIDTH 1000 0
DWIDTH 14 0
BBX 14 14 0 -2
BITMAP
0000
2380
3A78
4B88
12A8
7F90
5228
7FC0
5440
7DF0
0040
5440
57F8
0000
ENDCHAR

STARTCHAR Cb3f0
ENCODING 46064
SWIDTH 1000 0
DWIDTH 14 0
BBX 14 14 0 -2
BITMAP
0000
0080
0080
7880
4880
4FF8
4880
4880
4880
4880
7880
0080
0080
0000
ENDCHAR

STARTCHAR Cb3f1
ENCODING 46065
SWIDTH 1000 0
DWIDTH 14 0
BBX 14 14 0 -2
BITMAP
0000
10A0
13F8
10A0
7C00
10A0
30A0
5928
5330
5520
1128
1128
1138
0000
ENDCHAR

STARTCHAR Cb3f2
ENCODING 46066
SWIDTH 1000 0
DWIDTH 14 0
BBX 14 14 0 -2
BITMAP
0000
10A0
13F8
10A0
7FF8
1150
33F8
5950
57F8
5040
13F8
1040
1040
0000
ENDCHAR

STARTCHAR Cb3f3
ENCODING 46067
SWIDTH 1000 0
DWIDTH 14 0
BBX 14 14 0 -2
BITMAP
0000
2880
7C80
29F0
3A10
11D0
7C50
55D0
7D10
1160
7D08
1108
11F8
0000
ENDCHAR

STARTCHAR Cb3f4
ENCODING 46068
SWIDTH 1000 0
DWIDTH 14 0
BBX 14 14 0 -2
BITMAP
0000
1040
1140
11F0
7D40
1040
33F8
5840
54E0
5150
1150
1248
1040
0000
ENDCHAR

STARTCHAR Cb3f5
ENCODING 46069
SWIDTH 1000 0
DWIDTH 14 0
BBX 14 14 0 -2
BITMAP
0000
0A00
37B0
2490
2790
2490
2490
37B0
0000
0480
0488
0888
70F8
0000
ENDCHAR

STARTCHAR Cb3f6
ENCODING 46070
SWIDTH 1000 0
DWIDTH 14 0
BBX 14 14 0 -2
BITMAP
0000
0200
7FF8
4A88
5FE8
0200
7FF8
1240
3FE0
2220
3FE8
0228
03F8
0000
ENDCHAR

STARTCHAR Cb3f7
ENCODING 46071
SWIDTH 1000 0
DWIDTH 14 0
BBX 14 14 0 -2
BITMAP
0000
0840
7FF8
0840
2090
17F8
4080
27F0
0490
17F0
2490
2490
44B0
0000
ENDCHAR

STARTCHAR Cb3f8
ENCODING 46072
SWIDTH 1000 0
DWIDTH 14 0
BBX 14 14 0 -2
BITMAP
0000
0480
1860
6498
0300
0CC0
7038
0FC0
0200
3FF0
1220
0A40
7FF8
0000
ENDCHAR

STARTCHAR Cb3f9
ENCODING 46073
SWIDTH 1000 0
DWIDTH 14 0
BBX 14 14 0 -2
BITMAP
0000
1110
2BF8
44A0
03F8
7CA8
13F8
7CA8
13F8
54A0
51B0
1EA8
60A0
0000
ENDCHAR

STARTCHAR Cb3fa
ENCODING 46074
SWIDTH 1000 0
DWIDTH 14 0
BBX 14 14 0 -2
BITMAP
0000
0080
72F0
5280
5FF8
5550
5490
57F0
5490
55D0
76B0
0490
07F0
0000
ENDCHAR

STARTCHAR Cb3fb
ENCODING 46075
SWIDTH 1000 0
DWIDTH 14 0
BBX 14 14 0 -2
BITMAP
0000
0080
7DE0
5520
55E0
7D20
55F8
5500
7DF8
1008
12A8
12A8
1418
0000
ENDCHAR

STARTCHAR Cb3fc
ENCODING 46076
SWIDTH 1000 0
DWIDTH 14 0
BBX 14 14 0 -2
BITMAP
0000
1000
13F8
1040
7C80
11F0
3110
5910
55F0
5110
1110
1110
11F0
0000
ENDCHAR

STARTCHAR Cb3fd
ENCODING 46077
SWIDTH 1000 0
DWIDTH 14 0
BBX 14 14 0 -2
BITMAP
0000
0840
7FF8
0840
1FE0
0440
0280
7FF8
0510
0920
1100
6100
0700
0000
ENDCHAR

STARTCHAR Cb3fe
ENCODING 46078
SWIDTH 1000 0
DWIDTH 14 0
BBX 14 14 0 -2
BITMAP
0000
0840
7FF8
0A40
7FF8
4008
5FE8
0000
0FC0
0840
0FC0
0840
7FF8
0000
ENDCHAR

STARTCHAR Cb4a1
ENCODING 46241
SWIDTH 1000 0
DWIDTH 14 0
BBX 14 14 0 -2
BITMAP
0000
7238
1A48
1688
7238
4FA0
4220
7338
1688
1A48
1208
1208
6030
0000
ENDCHAR

STARTCHAR Cb4a2
ENCODING 46242
SWIDTH 1000 0
DWIDTH 14 0
BBX 14 14 0 -2
BITMAP
0000
0410
0410
4490
2490
1490
0890
0890
1490
1290
2210
2010
4070
0000
ENDCHAR

STARTCHAR Cb4a3
ENCODING 46243
SWIDTH 1000 0
DWIDTH 14 0
BBX 14 14 0 -2
BITMAP
0000
0840
7FF8
0840
0000
0410
2490
1490
0890
1490
1290
2210
4070
0000
ENDCHAR

STARTCHAR Cb4a4
ENCODING 46244
SWIDTH 1000 0
DWIDTH 14 0
BBX 14 14 0 -2
BITMAP
0000
0000
3FF0
0400
0400
07C0
0840
0A40
0940
1140
1048
1FC8
6078
0000
ENDCHAR

STARTCHAR Cb4a5
ENCODING 46245
SWIDTH 1000 0
DWIDTH 14 0
BBX 14 14 0 -2
BITMAP
0000
1080
7C80
10F8
7D00
4600
7DF0
4420
7C40
1080
7D08
1108
10F8
0000
ENDCHAR

STARTCHAR Cb4a6
ENCODING 46246
SWIDTH 1000 0
DWIDTH 14 0
BBX 14 14 0 -2
BITMAP
0000
0800
0BF0
0A10
1210
13F0
3000
5020
12A0
12A0
12A8
12A8
1438
0000
ENDCHAR

STARTCHAR Cb4a7
ENCODING 46247
SWIDTH 1000 0
DWIDTH 14 0
BBX 14 14 0 -2
BITMAP
0000
0000
7FF8
4028
3828
03F0
0020
7D20
28A0
2820
2868
4808
4FF8
0000
ENDCHAR

STARTCHAR Cb4a8
ENCODING 46248
SWIDTH 1000 0
DWIDTH 14 0
BBX 14 14 0 -2
BITMAP
0000
0200
7FF8
4848
1FE0
0840
1FE0
0840
7FF8
1220
2190
4E08
01C0
0000
ENDCHAR

STARTCHAR Cb4a9
ENCODING 46249
SWIDTH 1000 0
DWIDTH 14 0
BBX 14 14 0 -2
BITMAP
0000
0010
3E90
0890
0890
0890
7F90
0890
0890
0890
0810
0810
0870
0000
ENDCHAR

STARTCHAR Cb4aa
ENCODING 46250
SWIDTH 1000 0
DWIDTH 14 0
BBX 14 14 0 -2
BITMAP
0000
1240
3F40
1240
1FF8
1248
1E48
1248
7F48
2888
3688
2088
3F30
0000
ENDCHAR

STARTCHAR Cb4ab
ENCODING 46251
SWIDTH 1000 0
DWIDTH 14 0
BBX 14 14 0 -2
BITMAP
0000
2040
3E40
4840
3FF8
1448
3E48
6848
3E88
2888
3E88
2888
3F30
0000
ENDCHAR

STARTCHAR Cb4ac
ENCODING 46252
SWIDTH 1000 0
DWIDTH 14 0
BBX 14 14 0 -2
BITMAP
0000
1220
0A40
3FF0
0500
7FF8
0880
1060
6F98
0080
1F90
1010
1FF0
0000
ENDCHAR

STARTCHAR Cb4ad
ENCODING 46253
SWIDTH 1000 0
DWIDTH 14 0
BBX 14 14 0 -2
BITMAP
0000
0100
79E0
4A40
4FF0
4A90
4B70
4A10
4880
4FF8
7940
0220
0418
0000
ENDCHAR

STARTCHAR Cb4ae
ENCODING 46254
SWIDTH 1000 0
DWIDTH 14 0
BBX 14 14 0 -2
BITMAP
0000
0110
13F8
1110
11F0
7D10
11F0
1110
17F8
12A0
1F38
6200
03F8
0000
ENDCHAR

STARTCHAR Cb4af
ENCODING 46255
SWIDTH 1000 0
DWIDTH 14 0
BBX 14 14 0 -2
BITMAP
0000
0200
3FF0
0440
0C80
0360
3C10
1040
7FF8
2490
69A0
1450
6388
0000
ENDCHAR

STARTCHAR Cb4b0
ENCODING 46256
SWIDTH 1000 0
DWIDTH 14 0
BBX 14 14 0 -2
BITMAP
0000
0200
7FF8
4008
4008
1FE0
0000
0000
7FF8
0880
0888
1088
60F8
0000
ENDCHAR

STARTCHAR Cb4b1
ENCODING 46257
SWIDTH 1000 0
DWIDTH 14 0
BBX 14 14 0 -2
BITMAP
0000
0200
7FF8
4008
5FC8
1040
1040
1FC0
1000
1FE0
1020
1020
1FE0
0000
ENDCHAR

STARTCHAR Cb4b2
ENCODING 46258
SWIDTH 1000 0
DWIDTH 14 0
BBX 14 14 0 -2
BITMAP
0000
0200
7FF8
4488
5FE8
0480
1FE0
1020
1FE0
1020
1FE0
0888
70F8
0000
ENDCHAR

STARTCHAR Cb4b3
ENCODING 46259
SWIDTH 1000 0
DWIDTH 14 0
BBX 14 14 0 -2
BITMAP
0000
0000
3FF0
0200
0200
0200
0200
7FF8
0200
0200
0200
0200
0200
0000
ENDCHAR

STARTCHAR Cb4b4
ENCODING 46260
SWIDTH 1000 0
DWIDTH 14 0
BBX 14 14 0 -2
BITMAP
0000
1040
7CA0
1110
7E08
45F0
7C40
4440
7FF8
1040
7C40
1040
1040
0000
ENDCHAR

STARTCHAR Cb4b5
ENCODING 46261
SWIDTH 1000 0
DWIDTH 14 0
BBX 14 14 0 -2
BITMAP
0000
0200
1FE0
1220
1FE0
0200
3FF0
2210
3FF0
0200
2910
2848
4FC8
0000
ENDCHAR

STARTCHAR Cb4b6
ENCODING 46262
SWIDTH 1000 0
DWIDTH 14 0
BBX 14 14 0 -2
BITMAP
0000
0050
3FF8
2040
2F50
2050
2F20
4928
4F58
0200
2910
2848
4FC8
0000
ENDCHAR

STARTCHAR Cb4b7
ENCODING 46263
SWIDTH 1000 0
DWIDTH 14 0
BBX 14 14 0 -2
BITMAP
0000
13E0
12A0
17F8
1AA0
57F0
5410
57F0
1410
1410
17F0
1220
1C18
0000
ENDCHAR

STARTCHAR Cb4b8
ENCODING 46264
SWIDTH 1000 0
DWIDTH 14 0
BBX 14 14 0 -2
BITMAP
0000
1050
17F8
1440
1750
5D50
5520
5728
1858
1080
1550
1508
19E8
0000
ENDCHAR

STARTCHAR Cb4b9
ENCODING 46265
SWIDTH 1000 0
DWIDTH 14 0
BBX 14 14 0 -2
BITMAP
0000
1100
11E0
7A40
17F0
1290
1370
1A10
7080
17F8
1140
1220
3418
0000
ENDCHAR

STARTCHAR Cb4ba
ENCODING 46266
SWIDTH 1000 0
DWIDTH 14 0
BBX 14 14 0 -2
BITMAP
0000
0080
7E80
10F8
7E90
2510
3D10
26A0
3CA0
2440
3CA0
6510
0608
0000
ENDCHAR

STARTCHAR Cb4bb
ENCODING 46267
SWIDTH 1000 0
DWIDTH 14 0
BBX 14 14 0 -2
BITMAP
0000
1110
1110
13F8
7D10
1110
3110
59F0
5510
5110
1110
1110
11F0
0000
ENDCHAR

STARTCHAR Cb4bc
ENCODING 46268
SWIDTH 1000 0
DWIDTH 14 0
BBX 14 14 0 -2
BITMAP
0000
1000
13F8
1000
7DF0
1110
3110
59F0
5510
5110
11F0
1000
13F8
0000
ENDCHAR

STARTCHAR Cb4bd
ENCODING 46269
SWIDTH 1000 0
DWIDTH 14 0
BBX 14 14 0 -2
BITMAP
0000
1040
13F8
1208
7C00
11F0
3110
59F0
5500
51F8
1108
1108
11F8
0000
ENDCHAR

STARTCHAR Cb4be
ENCODING 46270
SWIDTH 1000 0
DWIDTH 14 0
BBX 14 14 0 -2
BITMAP
0000
0880
7E80
08F8
3D48
0148
3C40
0040
7EA0
08A0
2A90
4910
1908
0000
ENDCHAR

STARTCHAR Cb4bf
ENCODING 46271
SWIDTH 1000 0
DWIDTH 14 0
BBX 14 14 0 -2
BITMAP
0000
2080
3E80
48F8
3F48
1450
3E50
6840
3CA0
28A0
3D10
2910
3E08
0000
ENDCHAR

STARTCHAR Cb4c0
ENCODING 46272
SWIDTH 1000 0
DWIDTH 14 0
BBX 14 14 0 -2
BITMAP
0000
2000
17F0
0080
4080
2080
0080
0FF8
1080
1080
2080
2080
4080
0000
ENDCHAR

STARTCHAR Cb4c1
ENCODING 46273
SWIDTH 1000 0
DWIDTH 14 0
BBX 14 14 0 -2
BITMAP
0000
2120
17F8
0120
47F0
2490
07F0
1080
17F0
2080
2FF8
4140
4E38
0000
ENDCHAR

STARTCHAR Cb4c2
ENCODING 46274
SWIDTH 1000 0
DWIDTH 14 0
BBX 14 14 0 -2
BITMAP
0000
2778
1548
0778
4548
2778
0408
15E8
1528
25E8
2528
45E8
4418
0000
ENDCHAR

STARTCHAR Cb4c3
ENCODING 46275
SWIDTH 1000 0
DWIDTH 14 0
BBX 14 14 0 -2
BITMAP
0000
2200
13F0
0480
4BF8
2120
03F8
1240
17F0
2A40
23F0
4240
43F8
0000
ENDCHAR

STARTCHAR Cb4c4
ENCODING 46276
SWIDTH 1000 0
DWIDTH 14 0
BBX 14 14 0 -2
BITMAP
0000
07F0
7D50
17F0
1000
17F8
7A10
13F0
1088
19D0
62A0
0C90
0088
0000
ENDCHAR

STARTCHAR Cb4c5
ENCODING 46277
SWIDTH 1000 0
DWIDTH 14 0
BBX 14 14 0 -2
BITMAP
0000
1020
1020
7FF8
1020
1020
1020
1FE0
1020
1020
1020
1020
1FE0
0000
ENDCHAR

STARTCHAR Cb4c6
ENCODING 46278
SWIDTH 1000 0
DWIDTH 14 0
BBX 14 14 0 -2
BITMAP
0000
3E40
2878
3E80
2300
3E00
28F8
3E00
0000
1FE0
14A0
14A0
7FF8
0000
ENDCHAR

STARTCHAR Cb4c7
ENCODING 46279
SWIDTH 1000 0
DWIDTH 14 0
BBX 14 14 0 -2
BITMAP
0000
01C0
1E00
0200
3FF0
0400
7FF8
0800
1FE0
2820
4FE0
0820
0FE0
0000
ENDCHAR

STARTCHAR Cb4c8
ENCODING 46280
SWIDTH 1000 0
DWIDTH 14 0
BBX 14 14 0 -2
BITMAP
0000
1040
1E78
28A0
4510
0000
1FE0
0200
0200
7FF8
0200
0200
0200
0000
ENDCHAR

STARTCHAR Cb4c9
ENCODING 46281
SWIDTH 1000 0
DWIDTH 14 0
BBX 14 14 0 -2
BITMAP
0000
2080
3EF8
5120
0A10
7FF8
4848
4FC8
0800
0FF0
0810
0810
0FF0
0000
ENDCHAR

STARTCHAR Cb4ca
ENCODING 46282
SWIDTH 1000 0
DWIDTH 14 0
BBX 14 14 0 -2
BITMAP
0000
2080
3EF8
5140
0820
3CF0
2490
3FF0
2490
2790
2490
2790
2030
0000
ENDCHAR

STARTCHAR Cb4cb
ENCODING 46283
SWIDTH 1000 0
DWIDTH 14 0
BBX 14 14 0 -2
BITMAP
0000
1030
23C8
4950
2BF8
1080
27F8
7880
11F0
5910
52A0
5440
11B8
0000
ENDCHAR

STARTCHAR Cb4cc
ENCODING 46284
SWIDTH 1000 0
DWIDTH 14 0
BBX 14 14 0 -2
BITMAP
0000
1000
1000
1FF0
2200
4200
0200
7FF8
0200
2210
2210
2210
3FF0
0000
ENDCHAR

STARTCHAR Cb4cd
ENCODING 46285
SWIDTH 1000 0
DWIDTH 14 0
BBX 14 14 0 -2
BITMAP
0000
10C0
7D20
1210
7C08
47B8
7C88
46A8
7D98
1088
7FB8
1088
1198
0000
ENDCHAR

STARTCHAR Cb4ce
ENCODING 46286
SWIDTH 1000 0
DWIDTH 14 0
BBX 14 14 0 -2
BITMAP
0000
0000
3DF0
2440
2440
3C40
2440
27F8
3C40
2440
2440
4440
4C40
0000
ENDCHAR

STARTCHAR Cb4cf
ENCODING 46287
SWIDTH 1000 0
DWIDTH 14 0
BBX 14 14 0 -2
BITMAP
0000
11D0
2118
7DE0
4540
55C0
4518
7DC0
4400
55F0
5550
4550
4FF8
0000
ENDCHAR

STARTCHAR Cb4d0
ENCODING 46288
SWIDTH 1000 0
DWIDTH 14 0
BBX 14 14 0 -2
BITMAP
0000
0840
7FF8
0840
0200
7FF8
4008
5FE8
0000
7FF8
0880
1088
60F8
0000
ENDCHAR

STARTCHAR Cb4d1
ENCODING 46289
SWIDTH 1000 0
DWIDTH 14 0
BBX 14 14 0 -2
BITMAP
0000
2000
3FF0
4910
3FF0
1510
3FF0
6910
3F10
29F0
3EA0
28A8
3F38
0000
ENDCHAR

STARTCHAR Cb4d2
ENCODING 46290
SWIDTH 1000 0
DWIDTH 14 0
BBX 14 14 0 -2
BITMAP
0000
3840
03F8
7C40
01F0
3950
01F0
3950
01F0
3840
28E0
2950
3A48
0000
ENDCHAR

STARTCHAR Cb4d3
ENCODING 46291
SWIDTH 1000 0
DWIDTH 14 0
BBX 14 14 0 -2
BITMAP
0000
0FE0
0920
7FF8
1240
1FE0
1020
1FE0
1020
1020
1FE0
0840
7038
0000
ENDCHAR

STARTCHAR Cb4d4
ENCODING 46292
SWIDTH 1000 0
DWIDTH 14 0
BBX 14 14 0 -2
BITMAP
0000
27F0
1550
17F0
0000
0FF8
7220
13E0
1090
11E0
1690
2880
47F8
0000
ENDCHAR

STARTCHAR Cb4d5
ENCODING 46293
SWIDTH 1000 0
DWIDTH 14 0
BBX 14 14 0 -2
BITMAP
0000
13D0
2A98
47E0
0240
7FC0
1298
7FC0
1000
55F0
5150
1D50
63F8
0000
ENDCHAR

STARTCHAR Cb4d6
ENCODING 46294
SWIDTH 1000 0
DWIDTH 14 0
BBX 14 14 0 -2
BITMAP
0000
7CF8
4488
7CF8
4488
7CF8
4008
4FC8
4848
4FC8
4848
4FC8
4018
0000
ENDCHAR

STARTCHAR Cb4d7
ENCODING 46295
SWIDTH 1000 0
DWIDTH 14 0
BBX 14 14 0 -2
BITMAP
0000
7CF8
4488
7CF8
4488
7CF8
4208
5FC8
4208
4708
4A88
5248
4018
0000
ENDCHAR

STARTCHAR Cb4d8
ENCODING 46296
SWIDTH 1000 0
DWIDTH 14 0
BBX 14 14 0 -2
BITMAP
0000
7CF8
4488
7CF8
4488
7CF8
4508
4FC8
4208
5FE8
4208
4588
5858
0000
ENDCHAR

STARTCHAR Cb4d9
ENCODING 46297
SWIDTH 1000 0
DWIDTH 14 0
BBX 14 14 0 -2
BITMAP
0000
0100
79F0
4910
5220
6440
52F8
4A88
4A88
4AF8
7288
4288
42F8
0000
ENDCHAR

STARTCHAR Cb4da
ENCODING 46298
SWIDTH 1000 0
DWIDTH 14 0
BBX 14 14 0 -2
BITMAP
0000
1040
7DF0
1090
7DF8
4400
7DF0
4510
7DF8
1120
7FF8
1020
1020
0000
ENDCHAR

STARTCHAR Cb4db
ENCODING 46299
SWIDTH 1000 0
DWIDTH 14 0
BBX 14 14 0 -2
BITMAP
0000
1840
27F8
5208
3DF0
2510
3D10
25F0
3D00
21F8
2908
2508
7BF8
0000
ENDCHAR

STARTCHAR Cb4dc
ENCODING 46300
SWIDTH 1000 0
DWIDTH 14 0
BBX 14 14 0 -2
BITMAP
0000
1040
2BF8
4608
01F0
7D10
1110
7DF0
1100
7DF8
4508
4508
7DF8
0000
ENDCHAR

STARTCHAR Cb4dd
ENCODING 46301
SWIDTH 1000 0
DWIDTH 14 0
BBX 14 14 0 -2
BITMAP
0000
0400
0400
7FC0
0440
0440
3440
0C40
0A40
0940
1048
2048
4078
0000
ENDCHAR

STARTCHAR Cb4de
ENCODING 46302
SWIDTH 1000 0
DWIDTH 14 0
BBX 14 14 0 -2
BITMAP
0000
0200
0500
0880
1760
6018
1FC0
0080
0100
1FE0
1020
1020
1FE0
0000
ENDCHAR

STARTCHAR Cb4df
ENCODING 46303
SWIDTH 1000 0
DWIDTH 14 0
BBX 14 14 0 -2
BITMAP
0000
1110
1110
1FF0
0000
3FF8
2000
2FF0
2100
3FF8
2100
4100
4100
0000
ENDCHAR

STARTCHAR Cb4e0
ENCODING 46304
SWIDTH 1000 0
DWIDTH 14 0
BBX 14 14 0 -2
BITMAP
0000
1110
1FF0
0920
3FF8
2440
3F78
2950
2F90
2950
2F20
5950
4188
0000
ENDCHAR

STARTCHAR Cb4e1
ENCODING 46305
SWIDTH 1000 0
DWIDTH 14 0
BBX 14 14 0 -2
BITMAP
0000
0000
7DF0
1000
1000
1000
7BF8
1120
1120
1D20
6228
0228
0438
0000
ENDCHAR

STARTCHAR Cb4e2
ENCODING 46306
SWIDTH 1000 0
DWIDTH 14 0
BBX 14 14 0 -2
BITMAP
0000
0080
1FF8
5220
33E0
1000
1770
3550
5770
1000
2490
2490
47F0
0000
ENDCHAR

STARTCHAR Cb4e3
ENCODING 46307
SWIDTH 1000 0
DWIDTH 14 0
BBX 14 14 0 -2
BITMAP
0000
0000
7BF0
4A10
4BF0
7A10
4BF0
4A48
7A50
4A20
4A20
7AD0
0708
0000
ENDCHAR

STARTCHAR Cb4e4
ENCODING 46308
SWIDTH 1000 0
DWIDTH 14 0
BBX 14 14 0 -2
BITMAP
0000
0200
1220
1220
1FE0
0000
7FF8
0800
1000
17E0
2420
4420
07E0
0000
ENDCHAR

STARTCHAR Cb4e5
ENCODING 46309
SWIDTH 1000 0
DWIDTH 14 0
BBX 14 14 0 -2
BITMAP
0000
7770
1100
5500
3300
55F8
1150
0850
3E50
2250
3E90
2290
3F18
0000
ENDCHAR

STARTCHAR Cb4e6
ENCODING 46310
SWIDTH 1000 0
DWIDTH 14 0
BBX 14 14 0 -2
BITMAP
0000
0000
3FF8
2520
2BF8
3920
2FF8
2810
2FF0
2810
2FF0
4420
5818
0000
ENDCHAR

STARTCHAR Cb4e7
ENCODING 46311
SWIDTH 1000 0
DWIDTH 14 0
BBX 14 14 0 -2
BITMAP
0000
0000
3FF8
2490
24A0
29F8
2920
3BF8
2D20
29F8
2920
4920
49F8
0000
ENDCHAR

STARTCHAR Cb4e8
ENCODING 46312
SWIDTH 1000 0
DWIDTH 14 0
BBX 14 14 0 -2
BITMAP
0000
0000
3BF8
0040
01F0
7D10
29F0
2910
29F0
2B10
4DF0
40A0
0318
0000
ENDCHAR

STARTCHAR Cb4e9
ENCODING 46313
SWIDTH 1000 0
DWIDTH 14 0
BBX 14 14 0 -2
BITMAP
0000
0800
3FF8
1440
15F0
3F10
25F0
2910
25F0
2910
25F0
48A0
5318
0000
ENDCHAR

STARTCHAR Cb4ea
ENCODING 46314
SWIDTH 1000 0
DWIDTH 14 0
BBX 14 14 0 -2
BITMAP
0000
0000
3FF8
2840
3DF0
2510
3DF0
2510
3DF0
2910
4DF0
58A0
0B18
0000
ENDCHAR

STARTCHAR Cb4eb
ENCODING 46315
SWIDTH 1000 0
DWIDTH 14 0
BBX 14 14 0 -2
BITMAP
0000
0200
0500
0880
1060
6218
0200
1200
13E0
1200
1200
1200
7FF8
0000
ENDCHAR

STARTCHAR Cb4ec
ENCODING 46316
SWIDTH 1000 0
DWIDTH 14 0
BBX 14 14 0 -2
BITMAP
0000
0880
0880
0FF8
1080
1080
37E0
5220
1220
1140
1080
1160
1618
0000
ENDCHAR

STARTCHAR Cb4ed
ENCODING 46317
SWIDTH 1000 0
DWIDTH 14 0
BBX 14 14 0 -2
BITMAP
0000
0800
0F80
1080
2100
5FF8
1000
17E0
1420
14E0
2408
2408
47F8
0000
ENDCHAR

STARTCHAR Cb4ee
ENCODING 46318
SWIDTH 1000 0
DWIDTH 14 0
BBX 14 14 0 -2
BITMAP
0000
0200
7FF8
0200
3FF0
0000
1FE0
1020
1FE0
0480
7FF8
1020
1FE0
0000
ENDCHAR

STARTCHAR Cb4ef
ENCODING 46319
SWIDTH 1000 0
DWIDTH 14 0
BBX 14 14 0 -2
BITMAP
0000
0000
3CF0
2490
2490
3EF0
0200
7FF8
0840
3CF0
6498
2490
3CF0
0000
ENDCHAR

STARTCHAR Cb4f0
ENCODING 46320
SWIDTH 1000 0
DWIDTH 14 0
BBX 14 14 0 -2
BITMAP
0000
0840
3FF0
0840
0FC0
0840
0FC0
0840
7FF8
1220
2FD0
4208
3FF0
0000
ENDCHAR

STARTCHAR Cb4f1
ENCODING 46321
SWIDTH 1000 0
DWIDTH 14 0
BBX 14 14 0 -2
BITMAP
0000
0200
3FF0
0200
0580
0840
7FF8
0020
1F20
1120
1120
1F20
0060
0000
ENDCHAR

STARTCHAR Cb4f2
ENCODING 46322
SWIDTH 1000 0
DWIDTH 14 0
BBX 14 14 0 -2
BITMAP
0000
1040
13F8
1040
7DF0
2400
25F0
4510
49F0
28A0
13F8
2910
41F0
0000
ENDCHAR

STARTCHAR Cb4f3
ENCODING 46323
SWIDTH 1000 0
DWIDTH 14 0
BBX 14 14 0 -2
BITMAP
0000
0200
7FF8
4208
5FE8
0200
0580
0840
7FF8
1220
1220
1E20
00E0
0000
ENDCHAR

STARTCHAR Cb4f4
ENCODING 46324
SWIDTH 1000 0
DWIDTH 14 0
BBX 14 14 0 -2
BITMAP
0000
1040
1040
57F8
5440
5440
57F0
5510
5520
54A0
7C40
00A0
0318
0000
ENDCHAR

STARTCHAR Cb4f5
ENCODING 46325
SWIDTH 1000 0
DWIDTH 14 0
BBX 14 14 0 -2
BITMAP
0000
0E60
0180
0640
3820
0400
7FF8
0900
1FF0
6910
0910
0930
0100
0000
ENDCHAR

STARTCHAR Cb4f6
ENCODING 46326
SWIDTH 1000 0
DWIDTH 14 0
BBX 14 14 0 -2
BITMAP
0000
1240
2AA0
1240
2290
7AF0
0220
7FF8
1220
1140
1088
2968
4218
0000
ENDCHAR

STARTCHAR Cb4f7
ENCODING 46327
SWIDTH 1000 0
DWIDTH 14 0
BBX 14 14 0 -2
BITMAP
0000
3FC0
0040
0040
3FC0
2010
2010
3FF0
0200
0900
2810
2848
4FC8
0000
ENDCHAR

STARTCHAR Cb4f8
ENCODING 46328
SWIDTH 1000 0
DWIDTH 14 0
BBX 14 14 0 -2
BITMAP
0000
13F8
1248
7DF0
1040
11F0
1150
1DF0
7150
11F0
1040
13F8
3040
0000
ENDCHAR

STARTCHAR Cb4f9
ENCODING 46329
SWIDTH 1000 0
DWIDTH 14 0
BBX 14 14 0 -2
BITMAP
0000
1000
11E0
1120
7D20
1120
3120
5920
5520
5120
1228
1228
1438
0000
ENDCHAR

STARTCHAR Cb4fa
ENCODING 46330
SWIDTH 1000 0
DWIDTH 14 0
BBX 14 14 0 -2
BITMAP
0000
1100
11F8
7E90
21F8
2090
3CF0
2490
24F0
2490
25F8
4490
5908
0000
ENDCHAR

STARTCHAR Cb4fb
ENCODING 46331
SWIDTH 1000 0
DWIDTH 14 0
BBX 14 14 0 -2
BITMAP
0000
0000
3DF8
24A0
3CA0
24A0
3DF8
2040
2060
24A0
3CA0
6528
0238
0000
ENDCHAR

STARTCHAR Cb4fc
ENCODING 46332
SWIDTH 1000 0
DWIDTH 14 0
BBX 14 14 0 -2
BITMAP
0000
2400
24F0
7E90
2490
3CF0
2490
3C90
24F0
7E90
0890
2510
4130
0000
ENDCHAR

STARTCHAR Cb4fd
ENCODING 46333
SWIDTH 1000 0
DWIDTH 14 0
BBX 14 14 0 -2
BITMAP
0000
1110
1110
13F8
7D10
11F0
3110
59F0
5510
53F8
1000
1110
1208
0000
ENDCHAR

STARTCHAR Cb4fe
ENCODING 46334
SWIDTH 1000 0
DWIDTH 14 0
BBX 14 14 0 -2
BITMAP
0000
0200
7FF8
0840
3FE0
1250
1240
7FF8
1240
7FF8
0A80
1260
6218
0000
ENDCHAR

STARTCHAR Cb5a1
ENCODING 46497
SWIDTH 1000 0
DWIDTH 14 0
BBX 14 14 0 -2
BITMAP
0000
1290
14A0
1290
7CA0
17B8
3090
5BF8
5640
5250
1520
1450
1888
0000
ENDCHAR

STARTCHAR Cb5a2
ENCODING 46498
SWIDTH 1000 0
DWIDTH 14 0
BBX 14 14 0 -2
BITMAP
0000
13F0
1010
53F0
5010
57F8
5488
57F8
5290
1290
22B0
2080
4080
0000
ENDCHAR

STARTCHAR Cb5a3
ENCODING 46499
SWIDTH 1000 0
DWIDTH 14 0
BBX 14 14 0 -2
BITMAP
0000
1000
7CE0
28A0
28A8
7D38
1000
2BF0
4C90
1AA0
2840
48A0
1918
0000
ENDCHAR

STARTCHAR Cb5a4
ENCODING 46500
SWIDTH 1000 0
DWIDTH 14 0
BBX 14 14 0 -2
BITMAP
0000
1000
1FE0
2000
2FC0
4000
1FC0
0040
1140
0A40
0428
1A28
6118
0000
ENDCHAR

STARTCHAR Cb5a5
ENCODING 46501
SWIDTH 1000 0
DWIDTH 14 0
BBX 14 14 0 -2
BITMAP
0000
2400
17F0
0400
4BE0
2000
07C0
1040
1040
2040
2028
4028
4018
0000
ENDCHAR

STARTCHAR Cb5a6
ENCODING 46502
SWIDTH 1000 0
DWIDTH 14 0
BBX 14 14 0 -2
BITMAP
0000
1120
2950
1120
2548
7DF8
0110
7FF8
2A80
3EA0
2A48
3EA8
0118
0000
ENDCHAR

STARTCHAR Cb5a7
ENCODING 46503
SWIDTH 1000 0
DWIDTH 14 0
BBX 14 14 0 -2
BITMAP
0000
1030
11C0
7D00
0500
09F8
1120
3920
5520
1120
1220
1220
1420
0000
ENDCHAR

STARTCHAR Cb5a8
ENCODING 46504
SWIDTH 1000 0
DWIDTH 14 0
BBX 14 14 0 -2
BITMAP
0000
01E0
3E00
0200
7FF8
0A40
1220
6FD8
0080
7FF8
0100
0100
0700
0000
ENDCHAR

STARTCHAR Cb5a9
ENCODING 46505
SWIDTH 1000 0
DWIDTH 14 0
BBX 14 14 0 -2
BITMAP
0000
0CD0
7020
10D0
1308
7C80
13F8
3940
53F8
5548
5148
1158
1040
0000
ENDCHAR

STARTCHAR Cb5aa
ENCODING 46506
SWIDTH 1000 0
DWIDTH 14 0
BBX 14 14 0 -2
BITMAP
0000
1000
21F0
4410
2810
1010
25F0
7D00
1100
5500
5508
5108
11F8
0000
ENDCHAR

STARTCHAR Cb5ab
ENCODING 46507
SWIDTH 1000 0
DWIDTH 14 0
BBX 14 14 0 -2
BITMAP
0000
1220
2AA0
4FB8
1250
2450
6550
2250
2520
2F20
2250
2B50
2A88
0000
ENDCHAR

STARTCHAR Cb5ac
ENCODING 46508
SWIDTH 1000 0
DWIDTH 14 0
BBX 14 14 0 -2
BITMAP
0000
11F0
1110
7DF0
1110
11F0
7D10
1110
11F0
28A0
24A8
4128
0638
0000
ENDCHAR

STARTCHAR Cb5ad
ENCODING 46509
SWIDTH 1000 0
DWIDTH 14 0
BBX 14 14 0 -2
BITMAP
0000
3C00
01F0
7E10
0010
3C10
01F0
3D00
0100
3D00
2508
2508
3DF8
0000
ENDCHAR

STARTCHAR Cb5ae
ENCODING 46510
SWIDTH 1000 0
DWIDTH 14 0
BBX 14 14 0 -2
BITMAP
0000
0200
1FE0
1220
7FF8
0000
1FE0
1020
1FE0
1020
1FE0
0840
7038
0000
ENDCHAR

STARTCHAR Cb5af
ENCODING 46511
SWIDTH 1000 0
DWIDTH 14 0
BBX 14 14 0 -2
BITMAP
0000
0800
3EF0
0810
0810
7EF0
0880
0880
2E88
2888
28F8
5800
47F8
0000
ENDCHAR

STARTCHAR Cb5b0
ENCODING 46512
SWIDTH 1000 0
DWIDTH 14 0
BBX 14 14 0 -2
BITMAP
0000
1080
7C80
1080
7FE0
54A0
7CA0
54A0
7CA0
1120
7D28
1128
1238
0000
ENDCHAR

STARTCHAR Cb5b1
ENCODING 46513
SWIDTH 1000 0
DWIDTH 14 0
BBX 14 14 0 -2
BITMAP
0000
13F8
5648
59F0
1040
7DF0
2950
29F0
2B50
2DF0
4840
43F8
0040
0000
ENDCHAR

STARTCHAR Cb5b2
ENCODING 46514
SWIDTH 1000 0
DWIDTH 14 0
BBX 14 14 0 -2
BITMAP
0000
1800
25E0
5120
3D20
2520
3D20
2520
3D20
2120
2A28
3A28
6438
0000
ENDCHAR

STARTCHAR Cb5b3
ENCODING 46515
SWIDTH 1000 0
DWIDTH 14 0
BBX 14 14 0 -2
BITMAP
0000
0040
7DF0
5040
7CA0
5110
7FF8
5010
7DD0
0550
55D0
4410
4C30
0000
ENDCHAR

STARTCHAR Cb5b4
ENCODING 46516
SWIDTH 1000 0
DWIDTH 14 0
BBX 14 14 0 -2
BITMAP
0000
0200
1FE0
1220
1FE0
1220
1220
1FE0
0940
0950
09F0
1108
61F8
0000
ENDCHAR

STARTCHAR Cb5b5
ENCODING 46517
SWIDTH 1000 0
DWIDTH 14 0
BBX 14 14 0 -2
BITMAP
0000
1000
1F80
2100
5FE0
1220
3FF0
2210
3FF0
2210
3FF0
0208
03F8
0000
ENDCHAR

STARTCHAR Cb5b6
ENCODING 46518
SWIDTH 1000 0
DWIDTH 14 0
BBX 14 14 0 -2
BITMAP
0000
0A40
0A80
0FE0
1120
11F0
3210
5210
17F8
1808
12A8
1288
1430
0000
ENDCHAR

STARTCHAR Cb5b7
ENCODING 46519
SWIDTH 1000 0
DWIDTH 14 0
BBX 14 14 0 -2
BITMAP
0000
0920
0FF0
0880
13E0
1080
3FF8
5250
17F8
1240
1750
1228
16D8
0000
ENDCHAR

STARTCHAR Cb5b8
ENCODING 46520
SWIDTH 1000 0
DWIDTH 14 0
BBX 14 14 0 -2
BITMAP
0000
1040
1040
13F8
7C40
2440
27F0
4510
4920
28A0
1040
28A0
4318
0000
ENDCHAR

STARTCHAR Cb5b9
ENCODING 46521
SWIDTH 1000 0
DWIDTH 14 0
BBX 14 14 0 -2
BITMAP
0000
0200
7FF8
4008
4008
1FE0
1020
1FE0
1020
1FE0
1020
1020
7FF8
0000
ENDCHAR

STARTCHAR Cb5ba
ENCODING 46522
SWIDTH 1000 0
DWIDTH 14 0
BBX 14 14 0 -2
BITMAP
0000
0850
0F48
0840
3F78
29C0
3C48
2948
2F50
2A50
5B20
4A28
5FD8
0000
ENDCHAR

STARTCHAR Cb5bb
ENCODING 46523
SWIDTH 1000 0
DWIDTH 14 0
BBX 14 14 0 -2
BITMAP
0000
1040
1040
7FF8
1040
1040
13F0
1D10
7120
10A0
1040
10A0
3318
0000
ENDCHAR

STARTCHAR Cb5bc
ENCODING 46524
SWIDTH 1000 0
DWIDTH 14 0
BBX 14 14 0 -2
BITMAP
0000
2800
2EF8
7808
2F50
2020
28F8
3F28
64A0
2FB8
24A0
2AA0
7178
0000
ENDCHAR

STARTCHAR Cb5bd
ENCODING 46525
SWIDTH 1000 0
DWIDTH 14 0
BBX 14 14 0 -2
BITMAP
0000
2480
2480
7EF8
2548
3D50
2450
3C40
24A0
7EA0
0110
2510
4208
0000
ENDCHAR

STARTCHAR Cb5be
ENCODING 46526
SWIDTH 1000 0
DWIDTH 14 0
BBX 14 14 0 -2
BITMAP
0000
1220
57F0
5080
7BE0
5080
57F8
1150
1FF8
7140
17D0
1128
1358
0000
ENDCHAR

STARTCHAR Cb5bf
ENCODING 46527
SWIDTH 1000 0
DWIDTH 14 0
BBX 14 14 0 -2
BITMAP
0000
2000
3DF0
2010
1CA0
23F8
3C48
5040
1140
7D70
1140
2AC0
4438
0000
ENDCHAR

STARTCHAR Cb5c0
ENCODING 46528
SWIDTH 1000 0
DWIDTH 14 0
BBX 14 14 0 -2
BITMAP
0000
1030
13C0
7A40
0A40
1240
13F8
3A40
5640
1228
1228
1390
1C08
0000
ENDCHAR

STARTCHAR Cb5c1
ENCODING 46529
SWIDTH 1000 0
DWIDTH 14 0
BBX 14 14 0 -2
BITMAP
0000
0840
3FF0
0200
1FE0
0200
7FF8
08A0
7FF8
08A0
3E40
08A8
1B18
0000
ENDCHAR

STARTCHAR Cb5c2
ENCODING 46530
SWIDTH 1000 0
DWIDTH 14 0
BBX 14 14 0 -2
BITMAP
0000
1110
13F8
7C40
55F0
5440
57F8
5520
7FF8
1120
13A8
1D10
6368
0000
ENDCHAR

STARTCHAR Cb5c3
ENCODING 46531
SWIDTH 1000 0
DWIDTH 14 0
BBX 14 14 0 -2
BITMAP
0000
3840
03F8
7A08
0000
39F0
0110
39F0
0110
39F0
2910
2910
3BF8
0000
ENDCHAR

STARTCHAR Cb5c4
ENCODING 46532
SWIDTH 1000 0
DWIDTH 14 0
BBX 14 14 0 -2
BITMAP
0000
3910
03F8
7C40
01F0
3840
03F8
3920
03F8
3920
2BA8
2910
3B68
0000
ENDCHAR

STARTCHAR Cb5c5
ENCODING 46533
SWIDTH 1000 0
DWIDTH 14 0
BBX 14 14 0 -2
BITMAP
0000
1100
1100
7BF8
1208
14A8
12A8
1888
77F8
1288
12C8
14A8
3098
0000
ENDCHAR

STARTCHAR Cb5c6
ENCODING 46534
SWIDTH 1000 0
DWIDTH 14 0
BBX 14 14 0 -2
BITMAP
0000
0840
7FF8
0840
1000
1FF0
2A50
4A90
1FD0
0A10
0B10
1290
2260
0000
ENDCHAR

STARTCHAR Cb5c7
ENCODING 46535
SWIDTH 1000 0
DWIDTH 14 0
BBX 14 14 0 -2
BITMAP
0000
2900
7D00
29F8
3A08
12A8
7C88
57E8
7C88
11C8
7EA8
1088
1030
0000
ENDCHAR

STARTCHAR Cb5c8
ENCODING 46536
SWIDTH 1000 0
DWIDTH 14 0
BBX 14 14 0 -2
BITMAP
0000
0200
0200
7FF8
0200
0200
3FF0
0000
0000
1FE0
1020
1020
1FE0
0000
ENDCHAR

STARTCHAR Cb5c9
ENCODING 46537
SWIDTH 1000 0
DWIDTH 14 0
BBX 14 14 0 -2
BITMAP
0000
0100
7900
49F8
4A00
4C00
49F0
4820
4840
4880
7908
0108
00F8
0000
ENDCHAR

STARTCHAR Cb5ca
ENCODING 46538
SWIDTH 1000 0
DWIDTH 14 0
BBX 14 14 0 -2
BITMAP
0000
0200
0FF8
7228
57A8
5228
5348
5C98
5080
57F8
7140
0220
0C18
0000
ENDCHAR

STARTCHAR Cb5cb
ENCODING 46539
SWIDTH 1000 0
DWIDTH 14 0
BBX 14 14 0 -2
BITMAP
0000
1040
1040
13F8
7C40
1040
31F0
5800
55F0
5110
1110
1110
11F0
0000
ENDCHAR

STARTCHAR Cb5cc
ENCODING 46540
SWIDTH 1000 0
DWIDTH 14 0
BBX 14 14 0 -2
BITMAP
0000
11F0
1010
10A0
7BF8
1148
3240
5BF8
56A8
5318
12E8
12A8
12F8
0000
ENDCHAR

STARTCHAR Cb5cd
ENCODING 46541
SWIDTH 1000 0
DWIDTH 14 0
BBX 14 14 0 -2
BITMAP
0000
3C40
0040
7FF8
0040
3C40
01F0
3C00
01F0
3D10
2510
2510
3DF0
0000
ENDCHAR

STARTCHAR Cb5ce
ENCODING 46542
SWIDTH 1000 0
DWIDTH 14 0
BBX 14 14 0 -2
BITMAP
0000
0040
7E40
1040
1078
2040
3C40
65F8
2508
2508
2508
3D08
01F8
0000
ENDCHAR

STARTCHAR Cb5cf
ENCODING 46543
SWIDTH 1000 0
DWIDTH 14 0
BBX 14 14 0 -2
BITMAP
0000
1100
1100
11F8
7E40
1240
3040
5BF8
5440
5040
1040
1040
1040
0000
ENDCHAR

STARTCHAR Cb5d0
ENCODING 46544
SWIDTH 1000 0
DWIDTH 14 0
BBX 14 14 0 -2
BITMAP
0000
01E0
3E00
0200
7FF8
0A40
7338
0480
1A60
6A98
0700
1AC0
6630
0000
ENDCHAR

STARTCHAR Cb5d1
ENCODING 46545
SWIDTH 1000 0
DWIDTH 14 0
BBX 14 14 0 -2
BITMAP
0000
0800
08F8
3E88
0888
0888
7F88
1088
1488
22B8
2E80
7280
0080
0000
ENDCHAR

STARTCHAR Cb5d2
ENCODING 46546
SWIDTH 1000 0
DWIDTH 14 0
BBX 14 14 0 -2
BITMAP
0000
0200
7FF8
4408
47C8
0840
3480
0300
0480
1FE0
6858
0840
0FC0
0000
ENDCHAR

STARTCHAR Cb5d3
ENCODING 46547
SWIDTH 1000 0
DWIDTH 14 0
BBX 14 14 0 -2
BITMAP
0000
0100
3938
2BA8
2928
3928
2FE8
2928
3928
2A38
2AA0
4F60
5820
0000
ENDCHAR

STARTCHAR Cb5d4
ENCODING 46548
SWIDTH 1000 0
DWIDTH 14 0
BBX 14 14 0 -2
BITMAP
0000
0200
03E0
0200
3FF8
2408
3FA0
2420
2FF0
2800
2FE0
4800
4FF0
0000
ENDCHAR

STARTCHAR Cb5d5
ENCODING 46549
SWIDTH 1000 0
DWIDTH 14 0
BBX 14 14 0 -2
BITMAP
0000
2210
1120
17F8
0080
0290
7290
1290
13F0
1080
1100
2A00
47F8
0000
ENDCHAR

STARTCHAR Cb5d6
ENCODING 46550
SWIDTH 1000 0
DWIDTH 14 0
BBX 14 14 0 -2
BITMAP
0000
0000
01E0
1E00
1000
1000
1FF0
1080
1080
1080
1080
1080
7FF8
0000
ENDCHAR

STARTCHAR Cb5d7
ENCODING 46551
SWIDTH 1000 0
DWIDTH 14 0
BBX 14 14 0 -2
BITMAP
0000
0400
0400
07C0
0840
0880
1080
2100
4100
0280
0440
1820
6018
0000
ENDCHAR

STARTCHAR Cb5d8
ENCODING 46552
SWIDTH 1000 0
DWIDTH 14 0
BBX 14 14 0 -2
BITMAP
0000
0900
0900
0900
17E0
1120
3120
5120
1220
1220
1228
1428
1838
0000
ENDCHAR

STARTCHAR Cb5d9
ENCODING 46553
SWIDTH 1000 0
DWIDTH 14 0
BBX 14 14 0 -2
BITMAP
0000
0880
0880
0880
17F8
1080
31C0
52A0
12A0
1490
1888
1080
1080
0000
ENDCHAR

STARTCHAR Cb5da
ENCODING 46554
SWIDTH 1000 0
DWIDTH 14 0
BBX 14 14 0 -2
BITMAP
0000
0000
1F80
0880
0880
09E0
0820
1420
1240
1140
2080
2360
4C18
0000
ENDCHAR

STARTCHAR Cb5db
ENCODING 46555
SWIDTH 1000 0
DWIDTH 14 0
BBX 14 14 0 -2
BITMAP
0000
0000
03E0
7920
4920
4970
4910
4910
4AA0
7AA0
0440
08A0
0118
0000
ENDCHAR

STARTCHAR Cb5dc
ENCODING 46556
SWIDTH 1000 0
DWIDTH 14 0
BBX 14 14 0 -2
BITMAP
0000
0200
7FF8
4008
4FC8
0840
0840
0FC0
0200
1FE0
1020
1020
1FE0
0000
ENDCHAR

STARTCHAR Cb5dd
ENCODING 46557
SWIDTH 1000 0
DWIDTH 14 0
BBX 14 14 0 -2
BITMAP
0000
0000
3FE0
0020
0020
1FE0
1000
2000
3FF0
0010
0010
0010
01E0
0000
ENDCHAR

STARTCHAR Cb5de
ENCODING 46558
SWIDTH 1000 0
DWIDTH 14 0
BBX 14 14 0 -2
BITMAP
0000
0800
0F80
1100
3FE0
4020
0FE0
0020
1FE0
0200
2910
2848
4FC8
0000
ENDCHAR

STARTCHAR Cb5df
ENCODING 46559
SWIDTH 1000 0
DWIDTH 14 0
BBX 14 14 0 -2
BITMAP
0000
0880
0A80
08F8
7F10
0910
4A90
2CA0
08A0
1C40
2AA0
4910
1A08
0000
ENDCHAR

STARTCHAR Cb5e0
ENCODING 46560
SWIDTH 1000 0
DWIDTH 14 0
BBX 14 14 0 -2
BITMAP
0000
1000
13F8
1080
7C80
1080
30F8
5908
5508
5008
1008
1008
1070
0000
ENDCHAR

STARTCHAR Cb5e1
ENCODING 46561
SWIDTH 1000 0
DWIDTH 14 0
BBX 14 14 0 -2
BITMAP
0000
0240
0220
0200
7FF8
0200
2220
1340
1280
0640
1A20
6218
0600
0000
ENDCHAR

STARTCHAR Cb5e2
ENCODING 46562
SWIDTH 1000 0
DWIDTH 14 0
BBX 14 14 0 -2
BITMAP
0000
2000
17E0
0220
4220
2270
0210
1210
1520
24A0
2840
48A0
5318
0000
ENDCHAR

STARTCHAR Cb5e3
ENCODING 46563
SWIDTH 1000 0
DWIDTH 14 0
BBX 14 14 0 -2
BITMAP
0000
2080
1080
07F0
4000
2010
0410
1420
1220
2220
2240
4040
4FF8
0000
ENDCHAR

STARTCHAR Cb5e4
ENCODING 46564
SWIDTH 1000 0
DWIDTH 14 0
BBX 14 14 0 -2
BITMAP
0000
0400
0FC0
1080
6100
0280
0C60
7218
1220
1240
2500
08C0
7038
0000
ENDCHAR

STARTCHAR Cb5e5
ENCODING 46565
SWIDTH 1000 0
DWIDTH 14 0
BBX 14 14 0 -2
BITMAP
0000
0050
0048
7C40
13F8
1040
1248
7D50
1060
10D0
1D50
6248
00C0
0000
ENDCHAR

STARTCHAR Cb5e6
ENCODING 46566
SWIDTH 1000 0
DWIDTH 14 0
BBX 14 14 0 -2
BITMAP
0000
0200
7FF8
4908
4928
11E0
6400
0400
3FC0
0440
0448
0848
7078
0000
ENDCHAR

STARTCHAR Cb5e7
ENCODING 46567
SWIDTH 1000 0
DWIDTH 14 0
BBX 14 14 0 -2
BITMAP
0000
0200
7FF8
4908
11E0
6800
3EF0
2210
3EF0
2280
7EF8
1208
6630
0000
ENDCHAR

STARTCHAR Cb5e8
ENCODING 46568
SWIDTH 1000 0
DWIDTH 14 0
BBX 14 14 0 -2
BITMAP
0000
1040
1E78
28A0
4510
0000
1F80
0880
09E0
1420
1240
2180
4E78
0000
ENDCHAR

STARTCHAR Cb5e9
ENCODING 46569
SWIDTH 1000 0
DWIDTH 14 0
BBX 14 14 0 -2
BITMAP
0000
1000
23E0
4520
2920
1170
2510
7D10
1120
5AA0
5240
54A0
1118
0000
ENDCHAR

STARTCHAR Cb5ea
ENCODING 46570
SWIDTH 1000 0
DWIDTH 14 0
BBX 14 14 0 -2
BITMAP
0000
1020
2020
4520
2920
1120
2520
7D20
1138
57E0
5420
5020
1020
0000
ENDCHAR

STARTCHAR Cb5eb
ENCODING 46571
SWIDTH 1000 0
DWIDTH 14 0
BBX 14 14 0 -2
BITMAP
0000
1040
20A0
4510
2A08
11F0
2400
7C00
11F0
5510
5510
5110
11F0
0000
ENDCHAR

STARTCHAR Cb5ec
ENCODING 46572
SWIDTH 1000 0
DWIDTH 14 0
BBX 14 14 0 -2
BITMAP
0000
0000
27F0
2410
2410
2410
27F0
2410
2410
2410
2410
27F0
2410
0000
ENDCHAR

STARTCHAR Cb5ed
ENCODING 46573
SWIDTH 1000 0
DWIDTH 14 0
BBX 14 14 0 -2
BITMAP
0000
0200
1200
1200
1FF0
2200
4200
0200
7FF8
0200
0200
0200
0200
0000
ENDCHAR

STARTCHAR Cb5ee
ENCODING 46574
SWIDTH 1000 0
DWIDTH 14 0
BBX 14 14 0 -2
BITMAP
0000
0200
0200
3FF0
0200
0200
7FF8
0400
0840
0820
11D0
7E08
2008
0000
ENDCHAR

STARTCHAR Cb5ef
ENCODING 46575
SWIDTH 1000 0
DWIDTH 14 0
BBX 14 14 0 -2
BITMAP
0000
0000
1FF0
1010
1010
1FF0
1080
1FF8
1080
17F0
2410
2410
47F0
0000
ENDCHAR

STARTCHAR Cb5f0
ENCODING 46576
SWIDTH 1000 0
DWIDTH 14 0
BBX 14 14 0 -2
BITMAP
0000
0000
3FF0
2000
2000
3FE0
2020
2020
3FE0
2000
2000
2000
3FF0
0000
ENDCHAR

STARTCHAR Cb5f1
ENCODING 46577
SWIDTH 1000 0
DWIDTH 14 0
BBX 14 14 0 -2
BITMAP
0000
1000
11F8
7D00
1100
11F0
1110
1D10
71F0
1100
1100
1100
31F8
0000
ENDCHAR

STARTCHAR Cb5f2
ENCODING 46578
SWIDTH 1000 0
DWIDTH 14 0
BBX 14 14 0 -2
BITMAP
0000
2400
2470
7750
2550
2950
2950
3550
6290
2298
2500
24C0
6838
0000
ENDCHAR

STARTCHAR Cb5f3
ENCODING 46579
SWIDTH 1000 0
DWIDTH 14 0
BBX 14 14 0 -2
BITMAP
0000
1220
0940
7FF8
0840
1020
6FD8
0100
3FF0
0100
7FF8
0100
0700
0000
ENDCHAR

STARTCHAR Cb5f4
ENCODING 46580
SWIDTH 1000 0
DWIDTH 14 0
BBX 14 14 0 -2
BITMAP
0000
27F0
1400
47E0
2420
07E0
1400
27F8
4200
7FF8
0A80
1260
6218
0000
ENDCHAR

STARTCHAR Cb5f5
ENCODING 46581
SWIDTH 1000 0
DWIDTH 14 0
BBX 14 14 0 -2
BITMAP
0000
0200
03E0
0200
3FF8
2208
2FC0
2210
23F0
2A48
2650
4240
5FF8
0000
ENDCHAR

STARTCHAR Cb5f6
ENCODING 46582
SWIDTH 1000 0
DWIDTH 14 0
BBX 14 14 0 -2
BITMAP
0000
3C80
0080
7EF8
0120
3D20
0020
3DF8
0020
3C20
2420
2420
3C20
0000
ENDCHAR

STARTCHAR Cb5f7
ENCODING 46583
SWIDTH 1000 0
DWIDTH 14 0
BBX 14 14 0 -2
BITMAP
0000
0000
3DF8
2500
2500
3DF0
0910
0910
2FF0
2900
2900
2F00
71F8
0000
ENDCHAR

STARTCHAR Cb5f8
ENCODING 46584
SWIDTH 1000 0
DWIDTH 14 0
BBX 14 14 0 -2
BITMAP
0000
1000
29F8
4508
0108
7DF8
1120
7DF8
1120
52F8
5288
1C88
60F8
0000
ENDCHAR

STARTCHAR Cb5f9
ENCODING 46585
SWIDTH 1000 0
DWIDTH 14 0
BBX 14 14 0 -2
BITMAP
0000
2200
13C0
0440
4880
27F0
0490
17F0
1490
27F0
2000
4550
4948
0000
ENDCHAR

STARTCHAR Cb5fa
ENCODING 46586
SWIDTH 1000 0
DWIDTH 14 0
BBX 14 14 0 -2
BITMAP
0000
2400
4F78
1248
2F48
6258
2F40
2040
1FE0
0000
7FF8
1220
2610
0000
ENDCHAR

STARTCHAR Cb5fb
ENCODING 46587
SWIDTH 1000 0
DWIDTH 14 0
BBX 14 14 0 -2
BITMAP
0000
0800
0F80
1100
1200
3FE0
5220
1FE0
1220
1FE0
2010
2488
4488
0000
ENDCHAR

STARTCHAR Cb5fc
ENCODING 46588
SWIDTH 1000 0
DWIDTH 14 0
BBX 14 14 0 -2
BITMAP
0000
0200
7FF8
0000
1FE0
1020
1FE0
0000
3FE0
0040
0380
0200
0E00
0000
ENDCHAR

STARTCHAR Cb5fd
ENCODING 46589
SWIDTH 1000 0
DWIDTH 14 0
BBX 14 14 0 -2
BITMAP
0000
0200
7FF8
0000
1FE0
1020
1FE0
0000
3FE0
0040
7FF8
0100
0700
0000
ENDCHAR

STARTCHAR Cb5fe
ENCODING 46590
SWIDTH 1000 0
DWIDTH 14 0
BBX 14 14 0 -2
BITMAP
0000
0200
0200
7FF8
0000
1FE0
1020
1020
1FE0
0200
1220
2210
4608
0000
ENDCHAR

STARTCHAR Cb6a1
ENCODING 46753
SWIDTH 1000 0
DWIDTH 14 0
BBX 14 14 0 -2
BITMAP
0000
0920
0920
0920
13F0
1120
3120
5120
17F8
1000
1120
1210
1408
0000
ENDCHAR

STARTCHAR Cb6a2
ENCODING 46754
SWIDTH 1000 0
DWIDTH 14 0
BBX 14 14 0 -2
BITMAP
0000
0880
0880
0FF0
1080
1490
32A0
5FF8
1080
1140
1120
1210
1408
0000
ENDCHAR

STARTCHAR Cb6a3
ENCODING 46755
SWIDTH 1000 0
DWIDTH 14 0
BBX 14 14 0 -2
BITMAP
0000
0870
0B80
0880
17F8
1220
35D0
5948
17F8
1408
15C8
1548
15D8
0000
ENDCHAR

STARTCHAR Cb6a4
ENCODING 46756
SWIDTH 1000 0
DWIDTH 14 0
BBX 14 14 0 -2
BITMAP
0000
0440
2290
2110
2290
2C50
2010
3FF0
0480
0480
0888
1088
60F8
0000
ENDCHAR

STARTCHAR Cb6a5
ENCODING 46757
SWIDTH 1000 0
DWIDTH 14 0
BBX 14 14 0 -2
BITMAP
0000
1040
7DF0
28A0
7DF8
0000
7DF0
4510
7DF0
28A0
2AA0
2CA8
4938
0000
ENDCHAR

STARTCHAR Cb6a6
ENCODING 46758
SWIDTH 1000 0
DWIDTH 14 0
BBX 14 14 0 -2
BITMAP
0000
0840
0840
0840
3FF0
0840
0840
0840
7FF8
0000
0860
1010
6008
0000
ENDCHAR

STARTCHAR Cb6a7
ENCODING 46759
SWIDTH 1000 0
DWIDTH 14 0
BBX 14 14 0 -2
BITMAP
0000
0000
0040
2850
2490
2290
2110
2290
2450
3850
2010
2010
3FF0
0000
ENDCHAR

STARTCHAR Cb6a8
ENCODING 46760
SWIDTH 1000 0
DWIDTH 14 0
BBX 14 14 0 -2
BITMAP
0000
1080
13E0
10A0
7D20
1120
1240
1220
17F8
12A8
12A8
14A8
1958
0000
ENDCHAR

STARTCHAR Cb6a9
ENCODING 46761
SWIDTH 1000 0
DWIDTH 14 0
BBX 14 14 0 -2
BITMAP
0000
0000
3FF8
2000
2FF0
2100
2100
27E0
2100
2100
2FF0
2000
3FF8
0000
ENDCHAR

STARTCHAR Cb6aa
ENCODING 46762
SWIDTH 1000 0
DWIDTH 14 0
BBX 14 14 0 -2
BITMAP
0000
1000
27B8
44A8
57A8
54A8
57A8
5428
5428
7538
14A0
2FA0
4020
0000
ENDCHAR

STARTCHAR Cb6ab
ENCODING 46763
SWIDTH 1000 0
DWIDTH 14 0
BBX 14 14 0 -2
BITMAP
0000
0020
0120
7920
4920
4920
4920
4920
4920
49F8
4F20
7820
0020
0000
ENDCHAR

STARTCHAR Cb6ac
ENCODING 46764
SWIDTH 1000 0
DWIDTH 14 0
BBX 14 14 0 -2
BITMAP
0000
01E0
1E00
0200
7FF8
0840
17A0
6498
3FF0
2010
2790
2490
27B0
0000
ENDCHAR

STARTCHAR Cb6ad
ENCODING 46765
SWIDTH 1000 0
DWIDTH 14 0
BBX 14 14 0 -2
BITMAP
0000
1080
13F0
1120
7920
17F8
1210
13F0
1A10
63F0
0140
0248
0C78
0000
ENDCHAR

STARTCHAR Cb6ae
ENCODING 46766
SWIDTH 1000 0
DWIDTH 14 0
BBX 14 14 0 -2
BITMAP
0000
1040
1040
13F8
5440
5548
5550
57F8
5440
54A0
7CA0
0110
0208
0000
ENDCHAR

STARTCHAR Cb6af
ENCODING 46767
SWIDTH 1000 0
DWIDTH 14 0
BBX 14 14 0 -2
BITMAP
0000
0080
7880
0910
0BF0
7880
43F0
4290
7A90
0BF0
0890
0888
37F8
0000
ENDCHAR

STARTCHAR Cb6b0
ENCODING 46768
SWIDTH 1000 0
DWIDTH 14 0
BBX 14 14 0 -2
BITMAP
0000
0000
7BF8
0950
09F0
7950
41F0
4000
7BF8
0950
09F0
0950
33F8
0000
ENDCHAR

STARTCHAR Cb6b1
ENCODING 46769
SWIDTH 1000 0
DWIDTH 14 0
BBX 14 14 0 -2
BITMAP
0000
1040
1040
11F0
1440
5440
57F8
5080
1080
1120
1110
17E8
1208
0000
ENDCHAR

STARTCHAR Cb6b2
ENCODING 46770
SWIDTH 1000 0
DWIDTH 14 0
BBX 14 14 0 -2
BITMAP
0000
0000
7DE0
1120
11A0
1168
1D28
6238
0000
0A20
2910
2848
4FC8
0000
ENDCHAR

STARTCHAR Cb6b3
ENCODING 46771
SWIDTH 1000 0
DWIDTH 14 0
BBX 14 14 0 -2
BITMAP
0000
0840
0840
3FF0
0840
0840
7FF8
1020
2410
5548
14A0
24A0
0C00
0000
ENDCHAR

STARTCHAR Cb6b4
ENCODING 46772
SWIDTH 1000 0
DWIDTH 14 0
BBX 14 14 0 -2
BITMAP
0000
1080
1080
17F0
7880
1290
12A0
1FF8
7080
1140
1120
1210
3408
0000
ENDCHAR

STARTCHAR Cb6b5
ENCODING 46773
SWIDTH 1000 0
DWIDTH 14 0
BBX 14 14 0 -2
BITMAP
0000
1080
1280
3AF8
1490
7F10
1110
3AA0
48A0
1040
7CA0
1110
3208
0000
ENDCHAR

STARTCHAR Cb6b6
ENCODING 46774
SWIDTH 1000 0
DWIDTH 14 0
BBX 14 14 0 -2
BITMAP
0000
1070
1780
1080
7FF8
1220
35D0
5948
57F8
5408
15C8
1548
15D8
0000
ENDCHAR

STARTCHAR Cb6b7
ENCODING 46775
SWIDTH 1000 0
DWIDTH 14 0
BBX 14 14 0 -2
BITMAP
0000
2000
17F0
0410
4410
2410
07F0
1240
1240
2240
2448
4448
4878
0000
ENDCHAR

STARTCHAR Cb6b8
ENCODING 46776
SWIDTH 1000 0
DWIDTH 14 0
BBX 14 14 0 -2
BITMAP
0000
0000
47F8
2880
1080
1080
2880
4BF0
1880
2880
4880
0880
37F8
0000
ENDCHAR

STARTCHAR Cb6b9
ENCODING 46777
SWIDTH 1000 0
DWIDTH 14 0
BBX 14 14 0 -2
BITMAP
0000
0080
4880
2BF0
1080
1290
2AA0
4FF8
1880
2940
4920
0A10
3408
0000
ENDCHAR

STARTCHAR Cb6ba
ENCODING 46778
SWIDTH 1000 0
DWIDTH 14 0
BBX 14 14 0 -2
BITMAP
0000
2030
21C0
3C40
53F8
50A0
11F0
7EA8
13F8
1208
2AE8
26A8
42F8
0000
ENDCHAR

STARTCHAR Cb6bb
ENCODING 46779
SWIDTH 1000 0
DWIDTH 14 0
BBX 14 14 0 -2
BITMAP
0000
0100
3900
2BF8
2A08
3C48
2948
2AA8
3B68
2A28
2BE8
4808
5830
0000
ENDCHAR

STARTCHAR Cb6bc
ENCODING 46780
SWIDTH 1000 0
DWIDTH 14 0
BBX 14 14 0 -2
BITMAP
0000
0200
1FE0
0420
38E0
1040
7EF8
1248
3FF8
5020
1FE0
1020
10E0
0000
ENDCHAR

STARTCHAR Cb6bd
ENCODING 46781
SWIDTH 1000 0
DWIDTH 14 0
BBX 14 14 0 -2
BITMAP
0000
0800
37B0
2490
37B0
2490
37B0
2490
2490
7FF8
0000
1860
6018
0000
ENDCHAR

STARTCHAR Cb6be
ENCODING 46782
SWIDTH 1000 0
DWIDTH 14 0
BBX 14 14 0 -2
BITMAP
0000
0840
7FF8
0840
1FE0
0200
7FF8
0840
3FF0
6018
2790
2490
27B0
0000
ENDCHAR

STARTCHAR Cb6bf
ENCODING 46783
SWIDTH 1000 0
DWIDTH 14 0
BBX 14 14 0 -2
BITMAP
0000
0000
17B8
24A8
47A8
54B0
27A8
4428
7428
1538
24A0
2FA0
4020
0000
ENDCHAR

STARTCHAR Cb6c0
ENCODING 46784
SWIDTH 1000 0
DWIDTH 14 0
BBX 14 14 0 -2
BITMAP
0000
1040
29F0
44A0
00A0
7FF8
1110
7DF0
1110
55F0
50A0
1D28
6238
0000
ENDCHAR

STARTCHAR Cb6c1
ENCODING 46785
SWIDTH 1000 0
DWIDTH 14 0
BBX 14 14 0 -2
BITMAP
0000
27B8
54A8
27B0
4428
74A8
1FB8
6220
3FF0
0840
7FF8
1020
1FE0
0000
ENDCHAR

STARTCHAR Cb6c2
ENCODING 46786
SWIDTH 1000 0
DWIDTH 14 0
BBX 14 14 0 -2
BITMAP
0000
27B8
54A8
27B0
4428
74A8
17B8
68A0
1FE0
6898
0FA0
08C0
3E30
0000
ENDCHAR

STARTCHAR Cb6c3
ENCODING 46787
SWIDTH 1000 0
DWIDTH 14 0
BBX 14 14 0 -2
BITMAP
0000
2440
7F78
22D0
5E20
1250
3FE8
2200
3FE0
2200
3FF8
4A88
4A58
0000
ENDCHAR

STARTCHAR Cb6c4
ENCODING 46788
SWIDTH 1000 0
DWIDTH 14 0
BBX 14 14 0 -2
BITMAP
0000
0880
0B78
0A48
1248
1248
3248
5248
1248
13D8
1C40
1040
1040
0000
ENDCHAR

STARTCHAR Cb6c5
ENCODING 46789
SWIDTH 1000 0
DWIDTH 14 0
BBX 14 14 0 -2
BITMAP
0000
0800
4EF8
2808
2750
0820
0EF8
1428
0420
2EB8
24A0
4AA0
5178
0000
ENDCHAR

STARTCHAR Cb6c6
ENCODING 46790
SWIDTH 1000 0
DWIDTH 14 0
BBX 14 14 0 -2
BITMAP
0000
0200
3FF0
0200
0A40
7FF8
0840
0840
3FF0
0480
0480
0888
70F8
0000
ENDCHAR

STARTCHAR Cb6c7
ENCODING 46791
SWIDTH 1000 0
DWIDTH 14 0
BBX 14 14 0 -2
BITMAP
0000
0040
7BF8
4840
4910
4BF8
7910
4910
4BF8
48A0
78A0
0128
0638
0000
ENDCHAR

STARTCHAR Cb6c8
ENCODING 46792
SWIDTH 1000 0
DWIDTH 14 0
BBX 14 14 0 -2
BITMAP
0000
2490
14A0
7FF8
0840
3FF0
0200
1FE0
0200
7FF8
0A80
1260
6218
0000
ENDCHAR

STARTCHAR Cb6c9
ENCODING 46793
SWIDTH 1000 0
DWIDTH 14 0
BBX 14 14 0 -2
BITMAP
0000
0000
1FE0
1020
1020
1FE0
1000
1FF8
1008
17C8
2448
27C8
4030
0000
ENDCHAR

STARTCHAR Cb6ca
ENCODING 46794
SWIDTH 1000 0
DWIDTH 14 0
BBX 14 14 0 -2
BITMAP
0000
0480
0480
0480
3FF0
2490
2490
2490
3FF0
2490
2490
2490
3FF0
0000
ENDCHAR

STARTCHAR Cb6cb
ENCODING 46795
SWIDTH 1000 0
DWIDTH 14 0
BBX 14 14 0 -2
BITMAP
0000
1000
17F8
1100
79C0
1078
3748
5D68
5550
5768
10C8
1000
17F8
0000
ENDCHAR

STARTCHAR Cb6cc
ENCODING 46796
SWIDTH 1000 0
DWIDTH 14 0
BBX 14 14 0 -2
BITMAP
0000
0000
0000
3FF0
0200
0200
0200
1FE0
0200
0240
0220
0220
7FF8
0000
ENDCHAR

STARTCHAR Cb6cd
ENCODING 46797
SWIDTH 1000 0
DWIDTH 14 0
BBX 14 14 0 -2
BITMAP
0000
1000
13F8
1208
7EE8
1208
32E8
5AA8
56A8
52E8
1208
1208
1218
0000
ENDCHAR

STARTCHAR Cb6ce
ENCODING 46798
SWIDTH 1000 0
DWIDTH 14 0
BBX 14 14 0 -2
BITMAP
0000
1030
55C0
5440
1040
7C40
13F8
3840
5440
5040
5040
1040
1040
0000
ENDCHAR

STARTCHAR Cb6cf
ENCODING 46799
SWIDTH 1000 0
DWIDTH 14 0
BBX 14 14 0 -2
BITMAP
0000
0920
0FF8
0920
17F0
1490
37F0
5080
17F0
1080
13E0
1080
1FF8
0000
ENDCHAR

STARTCHAR Cb6d0
ENCODING 46800
SWIDTH 1000 0
DWIDTH 14 0
BBX 14 14 0 -2
BITMAP
0000
1440
7F40
1440
3FF8
2A48
3E48
0848
7F48
0848
3E88
0888
7F30
0000
ENDCHAR

STARTCHAR Cb6d1
ENCODING 46801
SWIDTH 1000 0
DWIDTH 14 0
BBX 14 14 0 -2
BITMAP
0000
1100
1100
11F8
7E08
1208
1588
1048
1008
1C68
6388
0008
0070
0000
ENDCHAR

STARTCHAR Cb6d2
ENCODING 46802
SWIDTH 1000 0
DWIDTH 14 0
BBX 14 14 0 -2
BITMAP
0000
0200
0200
0200
3FF0
2210
2210
2210
2210
2210
2270
0200
0200
0000
ENDCHAR

STARTCHAR Cb6d3
ENCODING 46803
SWIDTH 1000 0
DWIDTH 14 0
BBX 14 14 0 -2
BITMAP
0000
1040
29F0
4510
01F0
7D10
11F0
7C40
13F8
5A48
5248
1E58
6040
0000
ENDCHAR

STARTCHAR Cb6d4
ENCODING 46804
SWIDTH 1000 0
DWIDTH 14 0
BBX 14 14 0 -2
BITMAP
0000
00E0
1F00
1000
1000
1FF8
1080
1080
1080
1080
2080
2080
4080
0000
ENDCHAR

STARTCHAR Cb6d5
ENCODING 46805
SWIDTH 1000 0
DWIDTH 14 0
BBX 14 14 0 -2
BITMAP
0000
0C80
3080
20F8
2148
3E50
2440
2440
24A0
24A0
2510
4510
4608
0000
ENDCHAR

STARTCHAR Cb6d6
ENCODING 46806
SWIDTH 1000 0
DWIDTH 14 0
BBX 14 14 0 -2
BITMAP
0000
1080
2880
44F8
0148
7E50
1040
7C40
10A0
54A0
5110
1D10
6208
0000
ENDCHAR

STARTCHAR Cb6d7
ENCODING 46807
SWIDTH 1000 0
DWIDTH 14 0
BBX 14 14 0 -2
BITMAP
0000
0000
7CF8
1020
7CF8
1220
7DF8
0880
1760
6018
1FC0
0080
0100
0000
ENDCHAR

STARTCHAR Cb6d8
ENCODING 46808
SWIDTH 1000 0
DWIDTH 14 0
BBX 14 14 0 -2
BITMAP
0000
1020
7CF8
1020
3870
54A8
1020
1FE0
0000
7FF8
0200
1220
2610
0000
ENDCHAR

STARTCHAR Cb6d9
ENCODING 46809
SWIDTH 1000 0
DWIDTH 14 0
BBX 14 14 0 -2
BITMAP
0000
0700
0880
1FE0
6518
1220
1520
1FE0
0200
3FF0
2490
2F50
2030
0000
ENDCHAR

STARTCHAR Cb6da
ENCODING 46810
SWIDTH 1000 0
DWIDTH 14 0
BBX 14 14 0 -2
BITMAP
0000
1040
1E78
28A0
4510
0040
3C40
25F8
3C48
2448
3C88
2488
4D30
0000
ENDCHAR

STARTCHAR Cb6db
ENCODING 46811
SWIDTH 1000 0
DWIDTH 14 0
BBX 14 14 0 -2
BITMAP
0000
7DF0
5090
7CA0
4440
7CA0
5110
7D08
0A40
0488
7FF8
1240
2220
0000
ENDCHAR

STARTCHAR Cb6dc
ENCODING 46812
SWIDTH 1000 0
DWIDTH 14 0
BBX 14 14 0 -2
BITMAP
0000
0840
7FF8
0840
0000
1FE0
1000
1000
1FF8
1080
2080
2080
4080
0000
ENDCHAR

STARTCHAR Cb6dd
ENCODING 46813
SWIDTH 1000 0
DWIDTH 14 0
BBX 14 14 0 -2
BITMAP
0000
0840
7FF8
0840
3FF0
2010
2F90
2210
3FD0
2A90
3250
2210
3FF0
0000
ENDCHAR

STARTCHAR Cb6de
ENCODING 46814
SWIDTH 1000 0
DWIDTH 14 0
BBX 14 14 0 -2
BITMAP
0000
1040
10A0
7910
0A08
11F0
1400
3800
55F0
1010
1020
1020
1040
0000
ENDCHAR

STARTCHAR Cb6df
ENCODING 46815
SWIDTH 1000 0
DWIDTH 14 0
BBX 14 14 0 -2
BITMAP
0000
1120
13F8
7920
0B70
15A8
1120
39F0
5400
13F8
1040
1150
12C8
0000
ENDCHAR

STARTCHAR Cb6e0
ENCODING 46816
SWIDTH 1000 0
DWIDTH 14 0
BBX 14 14 0 -2
BITMAP
0000
3920
03F8
7D20
03F0
3A90
03F0
3880
03F0
3880
2BF0
2880
3FF8
0000
ENDCHAR

STARTCHAR Cb6e1
ENCODING 46817
SWIDTH 1000 0
DWIDTH 14 0
BBX 14 14 0 -2
BITMAP
0000
2070
1380
1200
0200
03F8
7220
1220
1220
1420
1420
2800
47F8
0000
ENDCHAR

STARTCHAR Cb6e2
ENCODING 46818
SWIDTH 1000 0
DWIDTH 14 0
BBX 14 14 0 -2
BITMAP
0000
0200
0500
0880
1060
6FD8
0200
0200
3FF0
0200
2220
1240
7FF8
0000
ENDCHAR

STARTCHAR Cb6e3
ENCODING 46819
SWIDTH 1000 0
DWIDTH 14 0
BBX 14 14 0 -2
BITMAP
0000
0080
0140
7920
4A10
4DE8
4800
4800
4BF0
4810
7820
0020
0040
0000
ENDCHAR

STARTCHAR Cb6e4
ENCODING 46820
SWIDTH 1000 0
DWIDTH 14 0
BBX 14 14 0 -2
BITMAP
0000
1000
29F0
4510
01F0
7D10
11F0
7D48
1150
5520
5120
1DD0
6308
0000
ENDCHAR

STARTCHAR Cb6e5
ENCODING 46821
SWIDTH 1000 0
DWIDTH 14 0
BBX 14 14 0 -2
BITMAP
0000
0400
0400
0400
7FC0
0440
0440
0840
0840
1048
2048
4078
0000
0000
ENDCHAR

STARTCHAR Cb6e6
ENCODING 46822
SWIDTH 1000 0
DWIDTH 14 0
BBX 14 14 0 -2
BITMAP
0000
0800
0BF0
0A10
13F0
1210
33F0
5210
13F0
1000
17F8
1120
1618
0000
ENDCHAR

STARTCHAR Cb6e7
ENCODING 46823
SWIDTH 1000 0
DWIDTH 14 0
BBX 14 14 0 -2
BITMAP
0000
1000
1000
1FF0
2010
2010
5F10
1110
1110
1110
1F10
0010
00E0
0000
ENDCHAR

STARTCHAR Cb6e8
ENCODING 46824
SWIDTH 1000 0
DWIDTH 14 0
BBX 14 14 0 -2
BITMAP
0000
0000
3FF8
2000
2020
2620
2140
2080
2140
2220
2C10
2000
3FF8
0000
ENDCHAR

STARTCHAR Cb6e9
ENCODING 46825
SWIDTH 1000 0
DWIDTH 14 0
BBX 14 14 0 -2
BITMAP
0000
0100
4900
29F0
1210
1410
29D0
4950
1950
29D0
4810
0810
3060
0000
ENDCHAR

STARTCHAR Cb6ea
ENCODING 46826
SWIDTH 1000 0
DWIDTH 14 0
BBX 14 14 0 -2
BITMAP
0000
0100
7D00
11E0
1220
1220
7C40
1040
10A0
1CA0
6110
0210
0408
0000
ENDCHAR

STARTCHAR Cb6eb
ENCODING 46827
SWIDTH 1000 0
DWIDTH 14 0
BBX 14 14 0 -2
BITMAP
0000
2000
21F8
3D00
5100
51F0
1110
7D10
11F0
1100
2900
2500
41F8
0000
ENDCHAR

STARTCHAR Cb6ec
ENCODING 46828
SWIDTH 1000 0
DWIDTH 14 0
BBX 14 14 0 -2
BITMAP
0000
0880
7FF8
0880
0200
0200
7FF8
0200
0200
1FE0
1020
1020
1FE0
0000
ENDCHAR

STARTCHAR Cb6ed
ENCODING 46829
SWIDTH 1000 0
DWIDTH 14 0
BBX 14 14 0 -2
BITMAP
0000
1000
3DF8
2500
3D10
2590
3F50
2520
7D20
1550
1590
2500
4DF8
0000
ENDCHAR

STARTCHAR Cb6ee
ENCODING 46830
SWIDTH 1000 0
DWIDTH 14 0
BBX 14 14 0 -2
BITMAP
0000
0000
7DF8
5100
7D10
5190
7D50
5120
7D20
0550
5590
4500
59F8
0000
ENDCHAR

STARTCHAR Cb6ef
ENCODING 46831
SWIDTH 1000 0
DWIDTH 14 0
BBX 14 14 0 -2
BITMAP
0000
0030
7DC0
5100
7D00
51F8
7D20
5120
7D20
0520
5520
4520
5BF8
0000
ENDCHAR

STARTCHAR Cb6f0
ENCODING 46832
SWIDTH 1000 0
DWIDTH 14 0
BBX 14 14 0 -2
BITMAP
0000
0080
7C80
51F8
7D08
5208
7DE8
5128
7D28
05E8
5408
4408
5830
0000
ENDCHAR

STARTCHAR Cb6f1
ENCODING 46833
SWIDTH 1000 0
DWIDTH 14 0
BBX 14 14 0 -2
BITMAP
0000
0000
1FE0
1020
1FE0
1020
1FE0
1020
1FE0
0000
7FF8
0840
3030
0000
ENDCHAR

STARTCHAR Cb6f2
ENCODING 46834
SWIDTH 1000 0
DWIDTH 14 0
BBX 14 14 0 -2
BITMAP
0000
0000
1FE0
1220
1FE0
1220
3FF0
2250
2FD0
2230
0900
2850
4FC8
0000
ENDCHAR

ENDFONT
